<?xml version="1.0" standalone="no"?>
<!DOCTYPE svg PUBLIC "-//W3C//DTD SVG 1.1//EN" "http://www.w3.org/Graphics/SVG/1.1/DTD/svg11.dtd" >
<svg xmlns="http://www.w3.org/2000/svg" xmlns:xlink="http://www.w3.org/1999/xlink" version="1.1">
<metadata>
Created by FontForge 20170731 at Wed Oct 29 16:52:17 2014
 By Aleksey,,,
Copyright (c) 2014 John Davis for Letterhead Fonts, All rights reserved.
WARNING: Protected by FontGuard account encryption system. Reproduction or distribution of this copyrighted work is illegal.
</metadata>
<defs>
<font id="LHFEncoreRegular" horiz-adv-x="1530" >
  <font-face 
    font-family="LHFEncoreRegular"
    font-weight="400"
    font-stretch="normal"
    units-per-em="3000"
    panose-1="2 0 0 0 0 0 0 0 0 0"
    ascent="2702"
    descent="-298"
    x-height="1450"
    cap-height="1812"
    bbox="-200 -1362 3983 2626"
    underline-thickness="50"
    underline-position="-150"
    unicode-range="U+0020-FB02"
  />
<missing-glyph horiz-adv-x="300" 
 />
    <glyph glyph-name="fi" unicode="fi" horiz-adv-x="1536" 
d="M446 0h-346v31h17q26 0 43 23t17 52v1238q0 29 -17 52t-43 23h-17v31h761q41 0 41 27h31v-463h-31v17q0 13 -1 32t-7 56.5t-16 73t-30 74.5t-46.5 68t-68 48t-92.5 19h-272v-610h261q35 0 60.5 16t36 39t16 46.5t5.5 39.5v16h31v-362h-31q-1 0 0 8.5t-1.5 22.5t-5.5 30.5
t-12 33.5t-20.5 31t-32 22.5t-46.5 8.5h-261v-638q0 -29 17 -52t43 -23h17v-31zM1436 0h-346v31h17q26 0 43 23t17 52v1238q0 29 -17 52t-43 23h-17v31h346v-31h-17q-26 0 -43 -23t-17 -52v-1238q0 -29 17 -52t43 -23h17v-31z" />
    <glyph glyph-name="fl" unicode="fl" horiz-adv-x="2041" 
d="M446 0h-346v31h17q26 0 43 23t17 52v1238q0 29 -17 52t-43 23h-17v31h761q41 0 41 27h31v-463h-31v17q0 13 -1 32t-7 56.5t-16 73t-30 74.5t-46.5 68t-68 48t-92.5 19h-272v-610h261q35 0 60.5 16t36 39t16 46.5t5.5 39.5v16h31v-362h-31q-1 0 0 8.5t-1.5 22.5t-5.5 30.5
t-12 33.5t-20.5 31t-32 22.5t-46.5 8.5h-261v-638q0 -29 17 -52t43 -23h17v-31zM1966 -27h-31q0 27 -41 27h-812v31h17q26 0 43 23t17 52v1238q0 29 -17 52t-43 23h-17v31h346v-31h-17q-26 0 -43 -23t-17 -52v-1296h323q51 0 92.5 19t68 48t46.5 68t30 74.5t16 73t7 56.5
t1 32v17h31v-463z" />
    <glyph glyph-name=".notdef" horiz-adv-x="300" 
 />
    <glyph glyph-name=".null" horiz-adv-x="0" 
 />
    <glyph glyph-name="nonmarkingreturn" horiz-adv-x="1000" 
 />
    <glyph glyph-name="space" unicode=" " horiz-adv-x="600" 
 />
    <glyph glyph-name="exclam" unicode="!" horiz-adv-x="546" 
d="M299 220h-51l-71 666v458q0 29 -17 52t-43 23h-17v31h346v-31h-17q-26 0 -43 -23t-17 -52v-458zM273 -12q-38 0 -64 28.5t-26 68.5q0 41 26 69.5t64 28.5q37 0 63 -28.5t26 -69.5t-26 -69t-63 -28z" />
    <glyph glyph-name="quotedbl" unicode="&#x22;" horiz-adv-x="469" 
d="M75 1092l-50 221v93q0 32 26 48.5t58 16.5t59 -16.5t27 -48.5v-90l-51 -224q-8 -41 -33 -41q-12 0 -22 11t-14 30zM324 1092l-50 221v93q0 32 26 48.5t58 16.5t59 -16.5t27 -48.5v-90l-50 -224q-8 -41 -35 -41q-26 0 -35 41z" />
    <glyph glyph-name="numbersign" unicode="#" horiz-adv-x="3125" 
d="M2360 280q-170 0 -308.5 62.5t-226 167.5t-134 237.5t-46.5 277.5t46.5 277.5t134 237.5t226 167.5t308.5 62.5t308.5 -62.5t226 -167.5t134 -237.5t46.5 -277.5t-46.5 -277.5t-134 -237.5t-226 -167.5t-308.5 -62.5zM2386 327q122 0 219.5 52t158.5 140.5t93.5 201
t32.5 237.5q0 146 -36 281t-103 244t-174 174.5t-239 65.5q-122 0 -219.5 -52t-158.5 -140.5t-93.5 -201t-32.5 -237.5q0 -146 36 -281t103 -244t174 -174.5t239 -65.5zM1508 389v1298q0 36 -21.5 65t-53.5 29h-21v31h252v-31h-21q-32 0 -53.5 -29t-21.5 -65v-1784
q-47 121 -119 232t-154.5 199t-177 170t-190 154.5t-190 144t-180 146.5t-156 153.5t-123.5 173.5t-77 199v-1350q0 -36 21.5 -65t53.5 -29h21v-31h-252v31h21q32 0 53.5 29t21.5 65v1562q0 36 -21.5 65t-53.5 29h-21v31h239q41 -145 124 -280.5t184.5 -241t216 -204
t226 -185.5t207 -168t167.5 -169.5t99 -174.5zM1988 12q2 5 7 13t23.5 28t41 35.5t62 28.5t85.5 13q51 0 158 -21.5t168 -21.5q51 0 100.5 10.5t73.5 20.5l24 10q-2 -5 -6.5 -13t-23 -28t-41 -35.5t-61.5 -28.5t-85 -13q-51 0 -153.5 21t-158.5 21q-59 0 -112.5 -10
t-77.5 -20z" />
    <glyph glyph-name="dollar" unicode="$" horiz-adv-x="1282" 
d="M700 -335h-55v204q-54 -4 -82 -4h-13v-200h-55v203q-93 7 -192 38.5t-122 31.5q-31 0 -49 -20t-20 -40l-3 -19h-28v556h31q-1 -103 21.5 -187t59.5 -139t88.5 -95t103.5 -59.5t110 -27.5v1025q-76 43 -129.5 78t-112.5 86t-95 102t-59.5 120t-23.5 146q0 150 113 268.5
t307 145.5v207h55v-202q28 2 45 2q16 0 50 -2v202h55v-208q79 -12 159 -44q37 -15 60 -15q24 0 38.5 18t16.5 36l3 19h30v-477h-31q1 80 -14.5 146t-41 111.5t-62 80t-75 54t-83.5 30.5v-771q197 -108 278 -167q203 -147 257 -333q22 -76 22 -162q0 -91 -37.5 -178
t-107 -159t-176 -123t-236.5 -69v-209zM700 817v-898q164 42 257.5 169t93.5 276q0 63 -19 119.5t-49 100.5t-78 87.5t-95 76t-110 69.5zM495 1187v646q-92 -28 -153 -104.5t-61 -205.5q0 -105 55.5 -185t158.5 -151zM645 -92v941l-95 52v-999h13q30 0 82 6zM645 1095v750
q-25 3 -50 3q-23 0 -45 -3v-694q23 -14 95 -56z" />
    <glyph glyph-name="percent" unicode="%" horiz-adv-x="2047" 
d="M535 638q-132 0 -244 81t-176.5 220.5t-64.5 303.5t64.5 303.5t176.5 220.5t244 81t244 -81t176.5 -220.5t64.5 -303.5t-64.5 -303.5t-176.5 -220.5t-244 -81zM535 675q90 0 166.5 76t121 207t44.5 285t-44.5 285t-121 207t-166.5 76t-166.5 -76t-121 -207t-44.5 -285
t44.5 -285t121 -207t166.5 -76zM678 -135h-61l752 2020h61zM1512 -98q-132 0 -244 81t-176.5 220.5t-64.5 303.5t64.5 303.5t176.5 220.5t244 81t244 -81t176.5 -220.5t64.5 -303.5t-64.5 -303.5t-176.5 -220.5t-244 -81zM1512 -61q90 0 166.5 76t121 207t44.5 285
t-44.5 285t-121 207t-166.5 76t-166.5 -76t-121 -207t-44.5 -285t44.5 -285t121 -207t166.5 -76z" />
    <glyph glyph-name="ampersand" unicode="&#x26;" horiz-adv-x="1856" 
d="M972 1248q0 26 -43.5 39.5t-101.5 13.5q-54 0 -103 -13.5t-71 -27.5l-22 -14q7 -7 21.5 -17t64 -27t105.5 -17q58 0 104 18t46 45zM1144 1350h-21q-1 238 -84.5 368t-232.5 130q-33 0 -67 -8.5t-72 -31.5t-66.5 -58.5t-47.5 -96.5t-19 -138q0 -67 15.5 -123.5t30.5 -79.5
l16 -24q12 6 34 14t82.5 22t114.5 14q98 0 165.5 -26t66.5 -65q-1 -41 -64.5 -70t-172.5 -29q-73 0 -138 13.5t-94 26.5l-29 14q-5 -3 -14.5 -9t-36.5 -29.5t-52 -52t-55 -78.5t-51.5 -107t-36.5 -139t-15 -173q0 -95 25.5 -194.5t78 -192t124 -165t171 -116.5t211.5 -44
q105 0 192 38.5t144 100.5t96.5 143.5t57 164.5t17.5 167q0 67 -14 135t-45 134t-74.5 117t-107.5 82.5t-139 31.5q-135 0 -217.5 -87t-82.5 -220q0 -128 68.5 -202t169.5 -74q97 0 157.5 57t60.5 144q0 63 -31.5 106.5t-78.5 43.5q-22 0 -33.5 -12.5t-14.5 -27.5
t-15.5 -27.5t-35.5 -12.5q-22 0 -37 15.5t-15 39.5q0 36 32.5 59.5t77.5 23.5q80 0 133.5 -59.5t53.5 -148.5q0 -102 -70.5 -170t-183.5 -68q-158 0 -255 93.5t-97 219.5q0 84 37.5 150t100.5 108.5t145 76.5t173 58.5t181.5 48.5t172.5 53.5t145 66.5t100.5 93.5
t37.5 129.5q0 98 -53 158.5t-143 60.5q-82 0 -138.5 -51.5t-56.5 -129.5q0 -54 30 -95.5t72 -41.5q16 0 25 8.5t11.5 18.5t11.5 18.5t26 8.5t28 -11t11 -28q0 -25 -23.5 -42.5t-52.5 -17.5q-74 0 -122 53.5t-48 128.5q0 91 66.5 150.5t159.5 59.5q58 0 105.5 -16t78.5 -42
t52.5 -59t30.5 -66t9 -65q0 -51 -23 -96.5t-59 -80t-91.5 -66.5t-109.5 -54t-124 -45t-124.5 -37.5t-121.5 -32.5t-105 -30q168 0 310 -71t225.5 -194.5t83.5 -270.5q0 -150 -59.5 -274t-162 -206t-238 -126.5t-287.5 -44.5q-179 0 -337.5 60t-270.5 161t-177 239.5
t-65 290.5q0 95 24 181.5t62.5 148.5t84.5 115t92.5 87.5t85 58.5t62.5 35l24 10q-5 3 -12.5 9.5t-27 29t-34.5 48.5t-27.5 68.5t-12.5 89.5q0 71 29.5 139.5t82.5 124t136 90t181 34.5q60 0 133 -17t102 -17q27 0 44 12.5t23.5 36t8.5 41.5t2 46h21v-637z" />
    <glyph glyph-name="quotesingle" unicode="'" horiz-adv-x="312" 
d="M89 1132l-24 12q9 7 22.5 19t39 46.5t31.5 66.5q-38 0 -64 28.5t-26 68.5q0 41 26 69.5t64 28.5q39 0 64 -28.5t25 -76.5q0 -36 -16.5 -73.5t-39.5 -65t-46 -50t-39 -33.5z" />
    <glyph glyph-name="parenleft" unicode="(" horiz-adv-x="616" 
d="M456 -134l-10 -14q-68 52 -133.5 133.5t-123.5 191t-93.5 252.5t-35.5 295t35.5 296t93.5 253.5t123.5 191t133.5 133.5l10 -14q-9 -11 -23 -33.5t-50 -102.5t-64 -171.5t-50.5 -241t-22.5 -311.5t21.5 -309.5t52.5 -243t62 -168t52 -105.5z" />
    <glyph glyph-name="parenright" unicode=")" horiz-adv-x="616" 
d="M170 -148l-10 14q9 11 23 33.5t50 102.5t64 171.5t50.5 241t22.5 311.5t-21.5 309.5t-52.5 243t-62 168t-52 105.5l-22 32l10 14q68 -52 133.5 -133.5t123.5 -191t93.5 -252.5t35.5 -295t-35.5 -296t-93.5 -253.5t-123.5 -191t-133.5 -133.5z" />
    <glyph glyph-name="asterisk" unicode="*" horiz-adv-x="576" 
d="M485 1413l-91 -58l-106 168l-107 -168l-91 58l76 122l-141 50l36 101l172 -61v166h109v-166l172 61l37 -101l-143 -50z" />
    <glyph glyph-name="plus" unicode="+" horiz-adv-x="582" 
d="M358 599h-133v210h-200v133h200v210h133v-210h199v-133h-199v-210z" />
    <glyph glyph-name="comma" unicode="," horiz-adv-x="432" 
d="M149 -156l-24 12q9 7 22.5 19t39 46.5t31.5 66.5q-38 0 -64 28.5t-26 68.5q0 41 26 69.5t64 28.5q39 0 64 -28.5t25 -76.5q0 -36 -16.5 -73.5t-39.5 -65t-46 -50t-39 -33.5z" />
    <glyph glyph-name="hyphen" unicode="-" horiz-adv-x="917" 
d="M131 453q-1 5 -1.5 14.5t4.5 36.5t17 51.5t41.5 53.5t73.5 49q50 23 166.5 50t180.5 57q52 24 95 56.5t60 52.5l18 21q1 -5 1.5 -15t-4.5 -37t-17 -51t-41 -53t-71 -48q-51 -23 -166.5 -50.5t-178.5 -55.5q-58 -27 -102.5 -60t-60.5 -53z" />
    <glyph glyph-name="period" unicode="." horiz-adv-x="429" 
d="M215 -12q-38 0 -64 28.5t-26 68.5q0 41 26 69.5t64 28.5q37 0 63 -28.5t26 -69.5t-26 -69t-63 -28z" />
    <glyph glyph-name="slash" unicode="/" horiz-adv-x="883" 
d="M130 -148h-70l693 1746h70z" />
    <glyph glyph-name="zero" unicode="0" horiz-adv-x="1708" 
d="M854 -36q-167 0 -317 72t-259 196t-173.5 300t-64.5 374t64.5 374t173.5 300t259 196t317 72t317 -72t259 -196t173.5 -300t64.5 -374t-64.5 -374t-173.5 -300t-259 -196t-317 -72zM1375 1295q-31 -115 -127.5 -192.5t-200.5 -77.5q-96 0 -159.5 55t-63.5 142q0 41 23 72
t57 31q23 0 38.5 -15t15.5 -37q0 -23 -11.5 -35.5t-25 -15.5t-25 -14.5t-11.5 -33.5q0 -51 50 -81.5t112 -30.5q96 0 170.5 87.5t74.5 228.5q0 112 -65 213.5t-166 160.5t-207 59q-117 0 -223 -69t-183 -188.5t-122.5 -288.5t-45.5 -359t45.5 -359t122.5 -288.5t183 -188.5
t223 -69t223 69t183 188.5t122.5 288.5t45.5 359q0 207 -53 389z" />
    <glyph glyph-name="one" unicode="1" horiz-adv-x="516" 
d="M476 0h-408v31h21q32 0 53.5 29t21.5 65v1576q0 33 -25 56.5t-58 23.5h-41v31l340 37v-1724q0 -36 21.5 -65t53.5 -29h21v-31z" />
    <glyph glyph-name="two" unicode="2" horiz-adv-x="1630" 
d="M1425 -37h-31q0 19 -9 28t-32 9h-1136l-25 54q15 6 40.5 16.5t104 48t155 78.5t180.5 107t193 135t180 160.5t155 185.5t104.5 209t40.5 231q0 166 -67.5 300.5t-192.5 212.5t-283 78q-96 0 -188.5 -38t-165.5 -105t-118 -169.5t-45 -222.5q0 -115 34.5 -208.5t89.5 -150
t119 -86.5t129 -30q155 0 243.5 86.5t88.5 194.5q0 67 -34 121.5t-91 54.5q-24 0 -37 -12.5t-16.5 -27t-17.5 -27t-40 -12.5q-25 0 -42 16.5t-17 41.5q0 36 35 61.5t80 25.5q99 0 159.5 -68.5t60.5 -173.5q0 -133 -105 -227.5t-267 -94.5q-102 0 -202.5 33.5t-185 96
t-137 163.5t-52.5 223q0 108 57 211.5t152.5 181.5t230.5 126t282 48q139 0 260.5 -34t209.5 -93t151.5 -137.5t95 -169t31.5 -185.5q0 -99 -36 -199.5t-95 -186.5t-143.5 -172t-171 -155t-189.5 -136.5t-187.5 -116t-175.5 -94.5t-143.5 -70t-100.5 -45h774q60 0 108.5 16
t80.5 41t55.5 63.5t36.5 75t20 84t9 83t2 79.5v17h31v-550z" />
    <glyph glyph-name="three" unicode="3" horiz-adv-x="1678" 
d="M1042 1163q-7 4 -20 10.5t-57.5 17.5t-95.5 11q-56 0 -95 -17.5t-39 -36.5q0 -16 38.5 -30t95.5 -14q52 0 95.5 15t60.5 29zM448 1365h-20v483h20q0 -3 1 -8.5t5.5 -20t11.5 -25t22 -19.5t34 -9q22 0 66 20.5t111.5 41t145.5 20.5q209 0 346.5 -108t137.5 -256
q0 -56 -21.5 -108.5t-51.5 -88.5t-60.5 -63.5t-51.5 -40.5l-22 -13q10 -3 27 -10t66.5 -32t94.5 -54t100 -78t94.5 -104t66.5 -131.5t27 -159.5q0 -113 -45.5 -215t-123 -177.5t-178 -131.5t-213 -84.5t-225.5 -28.5q-194 0 -359.5 63.5t-269.5 188t-104 286.5
q0 103 50.5 193t133 150t188.5 94t217 34q52 0 105 -12t104.5 -38.5t91.5 -64.5t64.5 -95.5t24.5 -126.5q0 -113 -69 -189.5t-170 -76.5q-98 0 -152.5 51.5t-54.5 120.5q0 39 21.5 68t53.5 29q22 0 36.5 -14t14.5 -34q0 -22 -11.5 -33.5t-26 -14.5t-26 -13t-11.5 -29
q0 -31 41.5 -63.5t114.5 -32.5q92 0 148.5 71.5t56.5 159.5q0 124 -99.5 215t-256.5 91q-168 0 -275.5 -127t-107.5 -313q0 -143 71.5 -258.5t192 -179t263.5 -63.5q95 0 174.5 22t134.5 58t98 87t68.5 104t41.5 113.5t22 112t6 103.5q0 78 -16 149.5t-41.5 123.5t-56 97.5
t-61 75t-56 50.5t-41.5 31l-16 9q-9 -7 -25 -17.5t-68.5 -27.5t-107.5 -17q-87 0 -151 21t-64 52q0 35 64 59t151 24q42 0 92.5 -8.5t79.5 -17.5l29 -9q4 3 11 10t24 33t30 56.5t24 82t11 109.5q0 135 -95.5 229.5t-229.5 94.5q-57 0 -111 -13t-107 -46t-92 -82t-63 -127.5
t-24 -177.5z" />
    <glyph glyph-name="four" unicode="4" horiz-adv-x="1583" 
d="M1322 0h-408v31h21q32 0 53.5 29t21.5 65v458h-951l-19 41l324 541q293 489 286 798q-3 143 -85.5 236t-206.5 93q-114 0 -180.5 -65.5t-66.5 -151.5q0 -48 24 -87.5t63 -39.5q17 0 26 9t11.5 19.5t12.5 19.5t28 9q17 0 29 -12t12 -30q0 -27 -24.5 -45t-56.5 -18
q-69 0 -115.5 50.5t-46.5 124.5q0 104 81 179t227 75q164 0 271.5 -108.5t107.5 -257.5q0 -106 -83.5 -307.5t-241.5 -469.5l-332 -562h906v1063q0 36 -21.5 65t-53.5 29h-21v31h408v-31h-21q-32 0 -53.5 -29t-21.5 -65v-1063h118q35 0 60.5 16t36 39t16 46.5t5.5 39.5v16
h31v-355h-31q-1 0 0 8.5t-1.5 22.5t-5.5 30.5t-12 33.5t-20.5 31t-32 22.5t-46.5 8.5h-118v-458q0 -36 21.5 -65t53.5 -29h21v-31z" />
    <glyph glyph-name="five" unicode="5" horiz-adv-x="1736" 
d="M503 1229h-197v484q0 29 -7.5 49t-24.5 32.5t-30 18.5t-37 14v21q52 -9 136 -23t277.5 -37.5t307.5 -23.5q225 0 344.5 38t119.5 108q0 21 -9.5 34.5t-21.5 19t-21.5 18t-9.5 31.5q0 23 16.5 39t38.5 16q37 0 59.5 -29.5t22.5 -70.5q0 -47 -20.5 -84.5t-51.5 -62.5
t-79 -43t-93 -27.5t-103 -15t-99.5 -7t-92.5 -1.5q-88 0 -194.5 9.5t-168.5 19.5l-62 9v-486q14 5 39 12.5t100.5 20t147.5 12.5q171 0 316.5 -42.5t245 -112t169.5 -160t102.5 -186t32.5 -190.5q0 -135 -64 -259t-172 -213.5t-257.5 -143t-313.5 -53.5q-111 0 -221.5 26
t-208.5 77t-174 120.5t-120.5 163.5t-44.5 199q0 113 49 215t132.5 175.5t200.5 116.5t247 43q162 0 267.5 -97.5t105.5 -235.5q0 -109 -61 -179.5t-160 -70.5q-45 0 -80 26t-35 64q0 25 17 42.5t42 17.5q26 0 40 -13t17.5 -28t16.5 -28t37 -13q57 0 91 56t34 126
q0 52 -21 102.5t-61 93t-105 69t-145 26.5q-106 0 -196 -71t-141.5 -187.5t-51.5 -249.5q0 -112 31 -205t83 -155.5t120.5 -106t143 -63t151.5 -19.5q172 0 302.5 86t197.5 228.5t67 317.5q0 173 -80 322.5t-225 240.5t-321 91q-74 0 -145.5 -14.5t-106.5 -28.5z" />
    <glyph glyph-name="six" unicode="6" horiz-adv-x="1617" 
d="M1059 1885l24 -12q-16 -8 -44 -23t-107.5 -69.5t-152.5 -117t-162 -166.5t-152.5 -217t-107.5 -269t-44 -323q0 -114 19 -215t61 -188.5t103.5 -150t151.5 -98t201 -35.5q84 0 163 32t145.5 93.5t107 163.5t40.5 230q0 97 -23 180t-63 142t-93 101t-113.5 62.5
t-125.5 20.5q-137 0 -241.5 -96.5t-104.5 -237.5q0 -100 71 -177.5t179 -77.5q75 0 116.5 33.5t41.5 70.5q0 20 -12.5 30.5t-27 13.5t-27 15.5t-12.5 35.5q0 22 15.5 37t38.5 15q35 0 60 -32.5t25 -76.5q0 -73 -58.5 -126t-159.5 -53q-121 0 -204 82.5t-83 209.5
q0 111 59 197.5t150 130t195 43.5q139 0 257.5 -43t199.5 -117t126.5 -173t45.5 -210q0 -100 -51 -199t-138.5 -178.5t-219 -129t-279.5 -49.5q-100 0 -205 28t-206.5 88t-181 143.5t-128 204t-48.5 260.5q0 123 33.5 242.5t90 218t130 190t155 164t162.5 135.5t154.5 107.5
t130 76.5t90.5 48z" />
    <glyph glyph-name="seven" unicode="7" horiz-adv-x="1303" 
d="M688 0h-382l662 1775h-477q-180 0 -285 -111.5t-105 -347.5h-21v597h21q0 -4 1 -11t5.5 -24.5t11.5 -30.5t22 -24t35 -11h1047l-617 -1655q-17 -45 2 -85.5t59 -40.5h21v-31z" />
    <glyph glyph-name="eight" unicode="8" horiz-adv-x="1516" 
d="M916 1132q70 -31 123 -56.5t116.5 -62.5t109.5 -73t92 -84t74.5 -99t46.5 -116t18 -137q0 -103 -54 -200.5t-148.5 -173t-235 -121t-301.5 -45.5q-160 0 -300 45.5t-234.5 121t-148.5 173t-54 200.5q0 232 195 376q105 78 331 166q20 8 57 22q-79 37 -140 75.5t-116 90
t-84.5 117t-29.5 141.5q0 78 35.5 141t90.5 102t126.5 65.5t139 37t132.5 10.5q54 0 111 -8t117 -24t112.5 -44.5t94.5 -66.5t66.5 -93t24.5 -120q0 -39 -10 -73.5t-24.5 -61t-44 -54t-54 -46t-70 -43.5t-76 -40t-88.5 -42zM663 1045q-91 -40 -159.5 -86t-125 -110.5
t-86 -151t-29.5 -193.5q0 -99 35 -189.5t97 -160.5t156.5 -111.5t205.5 -41.5q114 0 209.5 41.5t157 111.5t95.5 160.5t34 189.5q0 203 -191 342q-99 71 -317 164l-36 15q-31 13 -46 20zM856 1158q109 58 172.5 144t63.5 190q0 136 -91.5 227.5t-243.5 91.5q-148 0 -240 -79
t-92 -205q0 -53 28.5 -102t68 -84.5t104.5 -73t112.5 -59t117.5 -50.5z" />
    <glyph glyph-name="nine" unicode="9" horiz-adv-x="1617" 
d="M558 -73l-24 12q16 8 44 23t107.5 69.5t152.5 117t162 166.5t152.5 217t107.5 269t44 323q0 108 -19 206.5t-61 187t-103.5 153t-152 102.5t-200.5 38q-84 0 -163 -32t-145.5 -93.5t-107 -163.5t-40.5 -230q0 -97 23 -180t63 -142t93 -101t113.5 -62.5t125.5 -20.5
q137 0 241.5 96.5t104.5 237.5q0 100 -71 177.5t-179 77.5q-75 0 -116.5 -33.5t-41.5 -70.5q0 -20 12.5 -30.5t27 -13.5t27 -15.5t12.5 -35.5q0 -22 -15.5 -37t-38.5 -15q-35 0 -60 32.5t-25 76.5q0 73 58.5 126t159.5 53q121 0 204 -82.5t83 -209.5q0 -111 -59 -197.5
t-150 -130t-195 -43.5q-139 0 -257.5 43t-199.5 117t-126.5 173t-45.5 210q0 100 51 199t138.5 178.5t219 129t279.5 49.5q106 0 213 -28t207.5 -88t178 -143.5t124 -204t46.5 -260.5q0 -123 -33.5 -242.5t-90 -218t-130 -190t-154.5 -164t-162.5 -135.5t-155 -107.5
t-130 -76.5t-89.5 -48z" />
    <glyph glyph-name="colon" unicode=":" horiz-adv-x="429" 
d="M215 -12q-38 0 -64 28.5t-26 68.5q0 41 26 69.5t64 28.5q37 0 63 -28.5t26 -69.5t-26 -69t-63 -28zM215 716q-38 0 -64 28.5t-26 68.5q0 41 26 69.5t64 28.5q37 0 63 -28.5t26 -69.5t-26 -69t-63 -28z" />
    <glyph glyph-name="semicolon" unicode=";" horiz-adv-x="432" 
d="M218 716q-38 0 -64 28.5t-26 68.5q0 41 26 69.5t64 28.5q37 0 63 -28.5t26 -69.5t-26 -69t-63 -28zM149 -156l-24 12q9 7 22.5 19t39 46.5t31.5 66.5q-38 0 -64 28.5t-26 68.5q0 41 26 69.5t64 28.5q39 0 64 -28.5t25 -76.5q0 -36 -16.5 -73.5t-39.5 -65t-46 -50
t-39 -33.5z" />
    <glyph glyph-name="less" unicode="&#x3c;" horiz-adv-x="637" 
d="M612 390h-116l-471 485l471 485h116l-471 -485z" />
    <glyph glyph-name="equal" unicode="=" horiz-adv-x="782" 
d="M757 1009h-732v133h732v-133zM757 609h-732v133h732v-133z" />
    <glyph glyph-name="greater" unicode="&#x3e;" horiz-adv-x="637" 
d="M141 390h-116l471 485l-471 485h116l471 -485z" />
    <glyph glyph-name="question" unicode="?" horiz-adv-x="917" 
d="M467 202q-48 0 -80 40t-32 102q0 47 20.5 91.5t53 83t71.5 79t78 88t71.5 100.5t53 126.5t20.5 156.5q0 73 -18.5 139.5t-54.5 121.5t-96.5 87.5t-137.5 32.5q-110 0 -193 -80t-83 -208q0 -114 58 -185.5t136 -71.5q89 0 133 48.5t44 111.5q0 38 -18.5 68.5t-48.5 30.5
q-14 0 -21 -7t-9 -15.5t-9.5 -15.5t-21.5 -7q-13 0 -22 9.5t-9 23.5q0 20 19 34.5t43 14.5q53 0 87 -38.5t34 -97.5q0 -78 -53 -132.5t-148 -54.5q-52 0 -106.5 20.5t-101 56t-76.5 89.5t-30 115q0 55 27.5 110.5t76.5 102t125.5 75.5t166.5 29q109 0 202 -35.5t152.5 -93
t93 -129.5t33.5 -147q0 -78 -27.5 -148.5t-71.5 -122.5t-97.5 -99.5t-107 -89t-97.5 -80t-71.5 -83t-27.5 -89.5q0 -44 24.5 -62.5t57.5 -18.5q22 0 40 7t25 15l8 7v-11t-4 -25.5t-12 -32t-26 -25t-43 -11.5zM436 -19q-38 0 -64 28.5t-26 68.5q0 41 26 69.5t64 28.5
q37 0 63 -28.5t26 -69.5t-26 -69t-63 -28z" />
    <glyph glyph-name="at" unicode="@" horiz-adv-x="2014" 
d="M1683 297h-357v21h15q28 0 45.5 22t4.5 52l-53 124q-99 27 -194 73.5t-167 100.5t-113 89t-74 69l-195 -467q-12 -30 6.5 -46.5t47.5 -16.5h16v-21h-217v21h21q23 0 44.5 18.5t33.5 47.5l210 502q-25 27 -47 52.5t-32 37.5l-9 13l36 86q1 -3 10 -16t30 -41.5t44 -55.5
l277 661l453 -1080q23 0 53 4t72.5 17t82.5 33t81 56t71.5 82t49.5 114t19 150q0 124 -38.5 247t-114.5 230.5t-178.5 190.5t-239.5 131t-289 48q-154 0 -292 -52t-242.5 -144t-181.5 -213.5t-116.5 -266t-39.5 -296.5t39.5 -296t116.5 -266t181.5 -213.5t242.5 -143.5
t292 -52q133 0 253.5 28t205.5 72.5t148 99t94 109.5t31 102q0 26 -12.5 48.5t-35.5 20.5q-6 0 -21.5 -5.5t-27.5 -5.5q-19 0 -31.5 14t-12.5 36q0 24 18.5 38t41.5 14q55 0 89 -44.5t34 -108.5q0 -59 -33 -122.5t-100.5 -123t-158 -107t-216.5 -76t-266 -28.5
q-138 0 -272.5 34.5t-252 97.5t-218 155t-172.5 202t-112.5 244t-40.5 277q0 213 89 403t236 322t341.5 209t401.5 77q195 0 366.5 -74.5t288.5 -197.5t184 -282.5t67 -328.5q0 -90 -22.5 -166t-57.5 -126t-82 -88.5t-91 -60t-89 -35t-73 -17.5t-45 -4l51 -121
q17 -40 34 -53t44 -13h20v-21zM1321 560l-325 776l-173 -412q25 -28 63 -64.5t105 -95t155 -114t175 -90.5z" />
    <glyph glyph-name="A" unicode="A" horiz-adv-x="2175" 
d="M2155 0h-511v31h21q40 0 64.5 30.5t6.5 74.5q-48 114 -127.5 209.5t-186.5 168.5t-248 114t-301 41q-43 0 -83 -3l-224 -530q-18 -44 6.5 -74.5t64.5 -30.5h21v-31h-309v31h30q37 0 62 18.5t49 75.5l225 532q-177 -27 -299.5 -118t-181 -228t-58.5 -312q0 -90 25.5 -182
t78.5 -177.5t127 -151.5t179 -106t225 -40q157 0 288 51t211 149.5t80 225.5q0 114 -80 194.5t-199 80.5q-41 0 -71 -17.5t-30 -44.5q0 -8 7.5 -22t7.5 -28q0 -18 -15 -32.5t-39 -14.5q-22 0 -39 15.5t-17 43.5q0 55 56.5 96t139.5 41q58 0 113.5 -21t101 -59t73.5 -98.5
t28 -133.5q0 -110 -51.5 -199.5t-138.5 -146t-196.5 -87t-229.5 -30.5q-124 0 -246 31.5t-228.5 92.5t-189 144t-130 194t-47.5 233t54 238.5t150.5 210.5t241 160t315.5 86l521 1234l762 -1804q24 -57 49 -75.5t62 -18.5h30v-31zM1598 461l-447 1060l-346 -819q44 2 68 2
q212 0 400 -64.5t325 -178.5z" />
    <glyph glyph-name="B" unicode="B" horiz-adv-x="2420" 
d="M728 686v982q-113 -47 -184 -73t-169.5 -49t-181.5 -23q-40 0 -77 8t-72.5 26t-57 54t-21.5 85q0 39 24 70.5t59 31.5q28 0 47.5 -18t19.5 -44t-25 -48.5t-25 -47.5q0 -31 38.5 -55.5t89.5 -24.5q94 0 210.5 33.5t231 81.5t233.5 96t254.5 81.5t257.5 33.5
q162 0 291.5 -38.5t210.5 -105t124 -152t43 -182.5q0 -109 -71 -224.5t-189 -202.5q88 -34 164.5 -78.5t150 -111t125.5 -146t84 -185.5t32 -227q0 -144 -46.5 -274t-128 -230t-191 -181.5t-236 -134t-262 -80.5t-270.5 -28q-190 0 -371.5 57.5t-320.5 155.5t-224 239
t-85 297q0 121 40.5 225.5t112.5 182.5t164 134t201 90zM1064 0h-432v31h21q32 0 53.5 29t21.5 65v496q-153 -84 -233 -240.5t-80 -326.5q0 -118 43 -228.5t119.5 -197t176 -151.5t217.5 -100t240 -35q184 0 336.5 55t253.5 144.5t171.5 207.5t101.5 239.5t31 244.5
q0 128 -31.5 241.5t-87.5 199t-124 150t-149 109.5q-161 -90 -336 -90q-122 0 -192.5 26.5t-70.5 75.5q0 50 78 83.5t199 33.5q142 0 308 -50q157 150 157 396q0 85 -31 163t-89 140.5t-150.5 100t-205.5 37.5q-176 0 -412 -85v-1032q39 3 77 3q88 0 173.5 -17.5t163.5 -55
t137.5 -90t94.5 -127.5t35 -163q0 -143 -99 -232.5t-222 -89.5q-89 0 -146 41t-57 96q0 28 17 43.5t39 15.5q24 0 39 -14.5t15 -32.5q0 -14 -7.5 -28t-7.5 -22q0 -27 30.5 -44.5t77.5 -17.5q119 0 201.5 85t82.5 200q0 126 -82 222.5t-209.5 145t-275.5 48.5q-27 0 -77 -4
v-569q0 -36 21.5 -65t53.5 -29h21v-31zM1645 967q-131 58 -254 58q-82 0 -141 -25t-59 -55q0 -27 51.5 -46.5t134.5 -19.5q146 0 268 88z" />
    <glyph glyph-name="C" unicode="C" horiz-adv-x="2233" 
d="M2185 329l13 -28q-5 -10 -15 -28t-49 -69.5t-86.5 -98.5t-130 -104t-176.5 -98.5t-229.5 -69.5t-285.5 -28q-159 0 -310 38.5t-279 107.5t-235.5 167.5t-182.5 216t-117 256t-42 284.5q0 175 59 338.5t166.5 295t251 230.5t321.5 153t368 54q231 0 417 -74t295.5 -216
t109.5 -328q0 -106 -40.5 -198.5t-108 -157.5t-154 -112.5t-179.5 -70t-183 -22.5q-69 0 -139 16.5t-136.5 52.5t-117.5 86t-82.5 123.5t-31.5 159.5q0 173 116 278t281 105q130 0 229.5 -79t99.5 -196q0 -93 -64 -153.5t-152 -60.5q-41 0 -72 23t-31 57q0 23 15 38.5
t37 15.5q23 0 35.5 -11.5t15.5 -25t14.5 -25t33.5 -11.5q52 0 91.5 43t39.5 110q0 100 -84.5 169t-207.5 69q-158 0 -259 -102t-101 -244q0 -162 135 -281.5t335 -119.5q93 0 177 32.5t151.5 95t108 165t40.5 231.5q0 170 -82.5 303t-227 205.5t-324.5 72.5
q-152 0 -291.5 -45t-254.5 -133.5t-200.5 -212t-132.5 -288.5t-47 -355q0 -159 33.5 -300.5t93.5 -254.5t145 -203.5t187.5 -150.5t221 -92t245.5 -32q451 0 755 251q129 107 198 226z" />
    <glyph glyph-name="D" unicode="D" horiz-adv-x="2908" 
d="M1486 0h-432v31h21q32 0 53.5 29t21.5 65v1714q-52 -17 -185.5 -63t-201.5 -67.5t-171 -51t-183 -42t-149 -12.5q-132 0 -216 53.5t-84 151.5q0 39 24 70.5t59 31.5q28 0 47.5 -18t19.5 -44q0 -24 -16 -39.5t-32 -28t-16 -28.5q0 -47 48.5 -79.5t165.5 -32.5
q115 0 267 37.5t304 91t307.5 107.5t321 91.5t300.5 37.5q168 0 320 -42t269.5 -115.5t213 -171.5t157.5 -211.5t95 -235t33 -241.5q0 -155 -51.5 -307.5t-142.5 -278.5t-208.5 -223.5t-258.5 -152t-282 -54.5q-204 0 -350.5 113t-164.5 291v-258q0 -34 22 -60.5t53 -26.5
h21v-31zM1390 1912v-1446q8 92 46.5 166.5t96 120.5t126.5 70t141 24q140 0 241 -83.5t101 -224.5q0 -104 -65.5 -171.5t-157.5 -67.5q-43 0 -75.5 25.5t-32.5 64.5q0 25 15.5 42.5t38.5 17.5q24 0 37.5 -13t16.5 -28t15.5 -28t35.5 -13q54 0 95.5 48t41.5 123
q0 117 -90 194t-217 77q-162 0 -266 -110t-105 -281q0 -70 31.5 -141t89.5 -131.5t151 -99t204 -38.5q125 0 236 52t195.5 144t146 214.5t93.5 268t32 300.5q0 122 -28 242.5t-79.5 229.5t-129 202t-172.5 161t-215 106.5t-251 38.5q-139 0 -343 -56z" />
    <glyph glyph-name="E" unicode="E" horiz-adv-x="1931" 
d="M1304 1355h-23q-1 239 -93.5 370.5t-256.5 131.5q-53 0 -107.5 -20t-102.5 -58.5t-78.5 -104t-30.5 -146.5q0 -44 9 -84t21 -65.5t24.5 -45t21.5 -28.5l9 -9q14 6 38 14.5t91 22.5t127 14q108 0 182.5 -26.5t73.5 -65.5q-1 -40 -71.5 -69t-190.5 -29q-80 0 -152 13.5
t-104 27.5l-32 13q-8 -4 -20.5 -12.5t-50 -40t-71.5 -68.5t-75.5 -100t-71 -133t-50 -168.5t-20.5 -206.5q0 -230 90 -409.5t258 -281t388 -101.5q120 0 218.5 32.5t168 90.5t116.5 138t69.5 173.5t22.5 199.5q0 64 -12 128t-36.5 128t-65.5 118.5t-94.5 97t-128.5 66.5
t-163 24q-172 0 -289 -120.5t-117 -321.5q0 -184 100.5 -302.5t257.5 -118.5q121 0 206.5 69t85.5 173q0 67 -39.5 110t-91.5 43q-22 0 -33.5 -11.5t-14.5 -25t-15.5 -25t-35.5 -11.5q-22 0 -37 15.5t-15 38.5q0 34 31 57t72 23q88 0 150 -60.5t62 -153.5q0 -126 -96 -200.5
t-229 -74.5q-93 0 -182 29.5t-163 84.5t-119.5 143.5t-45.5 196.5q0 97 37 178t96 134.5t134 91.5t148.5 54.5t142.5 16.5q148 0 283.5 -44.5t236 -122t160.5 -189.5t60 -239q0 -135 -58.5 -256.5t-164 -213.5t-264.5 -146.5t-348 -54.5q-199 0 -378.5 62t-311 170
t-209 263.5t-77.5 333.5q0 113 29 216.5t75.5 179.5t102.5 141.5t112 108.5t102.5 74t75.5 44l29 14q-5 3 -13.5 10t-30.5 31.5t-38.5 53t-30 75.5t-13.5 98q0 148 136.5 257t334.5 109q66 0 148.5 -17t114.5 -17q87 0 87 84h23v-589zM1113 1256q0 26 -48 40t-112 14
q-60 0 -114 -14t-79 -28l-24 -14q8 -7 24 -17t70.5 -26.5t116.5 -16.5q65 0 115.5 17.5t50.5 44.5z" />
    <glyph glyph-name="F" unicode="F" horiz-adv-x="2303" 
d="M1764 0h-432v31h21q32 0 53.5 29t21.5 65v1751q-319 92 -538 92q-128 0 -239 -37t-190.5 -101t-137 -149t-85.5 -181.5t-28 -198.5q0 -168 75.5 -316t214.5 -240t309 -92q71 0 141 13t139 44t121 76.5t84.5 116t32.5 157.5q0 63 -28.5 112.5t-79.5 49.5
q-22 0 -33.5 -11.5t-14.5 -25t-15.5 -25t-35.5 -11.5q-22 0 -37 15.5t-15 38.5q0 34 31 57t72 23q87 0 142 -63.5t55 -159.5q0 -139 -76.5 -241.5t-201.5 -152.5t-281 -50q-185 0 -345.5 59.5t-266.5 156.5t-166.5 219.5t-60.5 249.5q0 144 60.5 270.5t174 223.5
t290.5 153.5t395 56.5q147 0 324 -37.5t344 -91.5t333.5 -107.5t343.5 -91t323 -37.5q117 0 165.5 32.5t48.5 79.5q0 16 -16 28.5t-32 28t-16 39.5q0 26 19.5 44t47.5 18q35 0 59 -31.5t24 -70.5q0 -99 -81 -152t-219 -53q-97 0 -201.5 14.5t-216.5 43.5t-203.5 56.5
t-216.5 67.5q-11 4 -17.5 6t-16.5 5t-18 6v-978h317q80 0 107 47.5t27 141.5v51h31v-517h-31v51q0 94 -27 141.5t-107 47.5h-317v-662q0 -36 21.5 -65t53.5 -29h21v-31z" />
    <glyph glyph-name="G" unicode="G" horiz-adv-x="2473" 
d="M2114 -127h-31q0 73 -24 105t-80 32q-36 0 -82 -21t-102.5 -51t-129 -60.5t-187.5 -51.5t-252 -21q-159 0 -310 38.5t-279 107.5t-235.5 167.5t-182.5 216t-117 256t-42 284.5q0 175 59 338.5t166.5 295t251 230.5t321.5 153t368 54q231 0 417 -74t295.5 -216t109.5 -328
q0 -106 -40.5 -198.5t-108 -157.5t-154 -112.5t-179.5 -70t-183 -22.5q-69 0 -139 16.5t-136.5 52.5t-117.5 86t-82.5 123.5t-31.5 159.5q0 173 116 278t281 105q130 0 229.5 -79t99.5 -196q0 -93 -64 -153.5t-152 -60.5q-41 0 -72 23t-31 57q0 23 15 38.5t37 15.5
q23 0 35.5 -11.5t15.5 -25t14.5 -25t33.5 -11.5q52 0 91.5 43t39.5 110q0 100 -84.5 169t-207.5 69q-158 0 -259 -102t-101 -244q0 -162 135 -281.5t335 -119.5q93 0 177 32.5t151.5 95t108 165t40.5 231.5q0 170 -82.5 303t-227 205.5t-324.5 72.5q-189 0 -360.5 -82
t-295 -220.5t-197 -330t-73.5 -401.5t73.5 -401.5t197 -330t295 -220t360.5 -81.5q113 0 228.5 22t215 62.5t162 105t62.5 141.5v438q-57 -11 -179.5 -36t-195 -38.5t-178 -26t-195.5 -12.5q-120 0 -220.5 18.5t-141.5 37.5l-41 18l6 89q7 -4 21 -10.5t64.5 -24t109 -30.5
t155 -23.5t202.5 -10.5q103 0 253 25t279 55.5t282.5 55.5t262.5 25l70 -5v-82q-68 17 -170 17q-67 0 -164 -9v-771z" />
    <glyph glyph-name="H" unicode="H" horiz-adv-x="2040" 
d="M1995 -168h-432v31h21q32 0 53.5 29t21.5 65v674q0 71 -64.5 148.5t-169 141t-250.5 105t-295 41.5q-92 0 -168 -12v-930q0 -36 21.5 -65t53.5 -29h21v-31h-432v31h21q32 0 53.5 29t21.5 65v856q-296 -158 -296 -591q0 -90 25.5 -182t78.5 -177.5t127 -151.5t179 -106
t225 -40q157 0 288 51t211 149.5t80 225.5q0 114 -80 194.5t-199 80.5q-41 0 -71 -17.5t-30 -44.5q0 -8 7.5 -22t7.5 -28q0 -18 -15 -32.5t-39 -14.5q-22 0 -39 15.5t-17 43.5q0 55 56.5 96t139.5 41q58 0 113.5 -21t101 -59t73.5 -98.5t28 -133.5q0 -110 -51.5 -199.5
t-138.5 -146t-196.5 -87t-229.5 -30.5q-124 0 -246 30.5t-229 91t-189 142t-129.5 191.5t-47.5 232q0 133 56.5 257.5t171.5 228.5t274 163v655q0 36 -21.5 65t-53.5 29h-21v31h432v-31h-21q-32 0 -53.5 -29t-21.5 -65v-596q83 11 168 11q230 0 437 -76.5t342 -199.5v861
q0 36 -21.5 65t-53.5 29h-21v31h432v-31h-21q-32 0 -53.5 -29t-21.5 -65v-1730q0 -36 21.5 -65t53.5 -29h21v-31z" />
    <glyph glyph-name="I" unicode="I" horiz-adv-x="522" 
d="M477 0h-432v31h21q32 0 53.5 29t21.5 65v1562q0 36 -21.5 65t-53.5 29h-21v31h432v-31h-21q-32 0 -53.5 -29t-21.5 -65v-1562q0 -36 21.5 -65t53.5 -29h21v-31z" />
    <glyph glyph-name="J" unicode="J" horiz-adv-x="1845" 
d="M1459 459v1228q0 36 -21.5 65t-53.5 29h-21v31h432v-31h-21q-32 0 -53.5 -29t-21.5 -65v-1383q0 -33 25 -56.5t58 -23.5q-8 -17 -24 -45.5t-70 -111t-113 -157.5t-151 -166.5t-187 -157.5t-218 -111t-247 -45q-210 0 -376 75.5t-261 216.5t-95 323q0 132 58.5 245
t151.5 186t206 114t226 41q69 0 139 -16.5t136.5 -52.5t117.5 -86t82.5 -123.5t31.5 -159.5q0 -173 -116 -278t-281 -105q-130 0 -229.5 79t-99.5 196q0 93 64 153.5t152 60.5q41 0 72 -23t31 -57q0 -23 -15 -38.5t-37 -15.5q-23 0 -35.5 11.5t-15.5 25t-14.5 25t-33.5 11.5
q-52 0 -91.5 -43t-39.5 -110q0 -100 84.5 -169t207.5 -69q158 0 259 102t101 244q0 162 -135 281.5t-335 119.5q-92 0 -176.5 -36.5t-152 -104t-108 -173.5t-40.5 -235q0 -115 35 -212.5t93 -163.5t132.5 -112.5t152.5 -68t154 -21.5q320 0 503.5 265.5t183.5 726.5z" />
    <glyph glyph-name="K" unicode="K" horiz-adv-x="1893" 
d="M1068 0h-432v31h21q32 0 53.5 29t21.5 65v1562q0 36 -21.5 65t-53.5 29h-21v31h432v-31h-21q-32 0 -53.5 -29t-21.5 -65v-750l639 732q28 33 31 59.5t-11.5 39.5t-35.5 13h-21v31h279v-31h-15q-12 0 -23 -2t-18.5 -3.5t-18 -8.5t-15.5 -10t-17 -16t-16.5 -18t-21 -24
t-23.5 -27l-414 -476q75 -146 174.5 -326t251.5 -444t326.5 -530t327.5 -458q110 77 208 133.5t211 105.5t234 74.5t246 25.5q156 0 307.5 -61t253.5 -175t102 -249t-102 -249t-253.5 -175t-307.5 -61q-119 0 -238.5 27.5t-216 71.5t-185.5 97t-154.5 106.5t-114.5 97.5
t-74 71l-25 28l-96 -72q-86 -65 -131 -98t-129.5 -93t-138 -93t-137.5 -82.5t-147.5 -77.5t-148.5 -61t-160.5 -50t-164 -29t-176.5 -12q-212 0 -388 57t-289 152.5t-174.5 217.5t-61.5 256q0 109 39 207.5t108 173.5t159.5 130.5t198 84.5t218.5 29q74 0 149 -17t145 -52.5
t124 -86t86.5 -122.5t32.5 -156q0 -93 -35 -168t-92 -120.5t-126.5 -70t-142.5 -24.5q-134 0 -231.5 74.5t-97.5 200.5q0 93 64 153.5t152 60.5q41 0 72 -23t31 -57q0 -23 -15 -38.5t-37 -15.5q-23 0 -35.5 11.5t-15.5 25t-14.5 25t-33.5 11.5q-52 0 -91.5 -43t-39.5 -110
q0 -97 84.5 -167.5t207.5 -70.5q156 0 257.5 97t101.5 249q0 72 -36 142.5t-99.5 127t-159 92t-205.5 35.5q-143 0 -263 -81.5t-187 -216.5t-67 -290q0 -131 49.5 -248t139 -205.5t224 -140.5t294.5 -52q86 0 171 11t157.5 27.5t153.5 47.5t142.5 58t140 73.5t130.5 79
t131.5 89t124 90t126.5 95.5l123 93q-168 186 -357.5 450.5t-340 510t-255 428.5t-152.5 280l-136 -156v-727q0 -36 21.5 -65t53.5 -29h21v-31zM2378 -595q9 -12 24.5 -32t67.5 -78.5t107 -111.5t137 -117.5t162.5 -111t180 -78.5t193.5 -32q60 0 122 16t122.5 51.5
t107.5 86.5t76 127.5t29 166.5t-29 165.5t-76 125.5t-108 85.5t-122 52t-122 19.5q-115 5 -229 -17.5t-225 -72t-207 -107t-211 -138.5z" />
    <glyph glyph-name="L" unicode="L" horiz-adv-x="520" 
d="M150 0h-105v31h21q32 0 53.5 29t21.5 65v1562q0 36 -21.5 65t-53.5 29h-21v31h432v-31h-21q-32 0 -53.5 -29t-21.5 -65v-1566q0 -29 -18 -52t-31.5 -29.5t-20.5 -8.5q75 -23 153 -79.5t148.5 -132.5t144 -168t147.5 -188t151 -190t161.5 -177t172 -146.5t190.5 -100.5
t209 -37q153 0 283.5 81.5t202.5 209.5t71 268q-1 107 -33 206t-91 178.5t-152 127.5t-205 48q-114 0 -204.5 -35.5t-144 -94t-81 -128t-27.5 -143.5q0 -148 100.5 -257.5t255.5 -109.5q138 0 215 67t77 175q0 67 -39.5 110t-91.5 43q-22 0 -33.5 -11.5t-14.5 -25t-15.5 -25
t-35.5 -11.5q-22 0 -37 15.5t-15 38.5q0 34 31 57t72 23q88 0 150 -60.5t62 -153.5q0 -132 -94 -203.5t-231 -71.5q-50 0 -102.5 14t-104.5 46t-93 77t-66.5 113.5t-25.5 149.5q0 131 68.5 231.5t179.5 151.5t245 51q152 0 277 -50t204 -133t122 -187.5t43 -216.5
t-55.5 -220.5t-149.5 -193t-230 -136.5t-287 -52q-124 0 -241 42t-212.5 113t-186 162.5t-171.5 193.5t-159 203.5t-157 193t-157.5 162.5t-169.5 113t-184 42z" />
    <glyph glyph-name="M" unicode="M" horiz-adv-x="3523" 
d="M2353 383l479 1289q19 51 1 80t-55 29h-21v31h449v-31h-21q-34 0 -57.5 -30t-17.5 -64l268 -1450q96 -18 188 -62.5t168 -110.5t122.5 -159t46.5 -195q0 -143 -66.5 -266.5t-178 -207t-257.5 -131t-303 -47.5q-152 0 -299.5 28.5t-279.5 81t-253.5 116t-246.5 143.5
t-232 153t-235.5 156t-233.5 141q-35 -133 -80 -241t-92 -181t-103 -127.5t-106.5 -85t-109 -48.5t-103.5 -23.5t-97 -5.5q-173 0 -323 61.5t-242 173.5t-92 250t92 250t242 173.5t323 61.5q277 0 645 -191q26 105 48 228l280 1515q6 34 -17.5 64t-57.5 30h-21v31h446v-31
h-21q-37 0 -55 -29t1 -80zM3496 0h-447v31h21q37 0 60 25t15 69l-14 74q-160 -37 -248 -147t-88 -239q0 -148 100.5 -257.5t255.5 -109.5q138 0 215 67t77 175q0 67 -39.5 110t-91.5 43q-22 0 -33.5 -11.5t-14.5 -25t-15.5 -25t-35.5 -11.5q-22 0 -37 15.5t-15 38.5
q0 34 31 57t72 23q88 0 150 -60.5t62 -153.5q0 -132 -94 -203.5t-231 -71.5q-50 0 -102.5 14t-104.5 46t-93 77t-66.5 113.5t-25.5 149.5q0 159 103 269t263 148l-253 1370l-614 -1654l-615 1654l-282 -1527q-17 -88 -34 -159q120 -66 274.5 -166t274.5 -183.5t274 -174
t292.5 -152.5t310.5 -102.5t345 -40.5q64 0 133.5 15t142.5 45t137.5 80.5t115.5 116t81 158t30 200.5q0 99 -29 184t-79 145t-112 100t-133 59l11 -58q10 -55 28.5 -82t50.5 -27h21v-31zM1263 -93q-169 88 -335 139.5t-301 51.5q-90 0 -166 -26t-127.5 -70t-88 -102.5
t-53 -121.5t-16.5 -128t16.5 -128t53 -121.5t88 -102.5t127.5 -70t166 -26q244 0 393.5 169t242.5 536z" />
    <glyph glyph-name="N" unicode="N" horiz-adv-x="1712" 
d="M1508 389v1370q0 225 67 394q-26 20 -88.5 68t-92.5 70.5t-88 65t-94 64t-90 53.5t-96.5 48.5t-94 34t-101.5 25t-100 7.5q-89 0 -162 -30t-120.5 -79.5t-73 -113.5t-25.5 -133q0 -71 21 -133.5t62.5 -113t110.5 -80t157 -29.5q128 0 218 75.5t90 181.5q0 67 -39.5 110
t-91.5 43q-22 0 -33.5 -11.5t-14.5 -25t-15.5 -25t-35.5 -11.5q-22 0 -37 15.5t-15 38.5q0 34 31 57t72 23q88 0 152 -60.5t64 -153.5q0 -129 -102 -211.5t-243 -82.5q-138 0 -254.5 52.5t-184 143t-67.5 197.5q0 106 75 197.5t198.5 143.5t262.5 52q45 0 92 -7.5
t87.5 -17.5t90 -31.5t85 -37.5t88 -48.5t83 -52t85.5 -59t81.5 -59t85 -64t81.5 -61.5q46 105 118.5 186.5t145 127.5t153 75.5t137.5 39t103 9.5q139 0 262.5 -52t198.5 -143.5t75 -197.5q0 -107 -71.5 -197.5t-191.5 -143t-259 -52.5q-158 0 -309 72.5t-328 204.5
q-55 -154 -55 -358v-1856q-47 121 -119 232t-154.5 199t-177 170t-190 154.5t-190 144t-180 146.5t-156 153.5t-123.5 173.5t-77 199v-1350q0 -36 21.5 -65t53.5 -29h21v-31h-252v31h21q32 0 53.5 29t21.5 65v1562q0 36 -21.5 65t-53.5 29h-21v31h239q41 -145 124 -280.5
t184.5 -241t216 -204t226 -185.5t207 -168t167.5 -169.5t99 -174.5zM1636 2153q86 -63 155 -107t150 -85.5t161 -62.5t158 -21q88 0 159.5 29.5t116 80t68 113.5t23.5 133q0 69 -25.5 133t-73 113.5t-120.5 79.5t-162 30q-48 0 -105 -11t-130.5 -41.5t-140 -77t-130.5 -126
t-104 -180.5z" />
    <glyph glyph-name="O" unicode="O" horiz-adv-x="2452" 
d="M2008 1370q15 -39 23 -66t9 -34v-7q-20 -97 -81 -180.5t-144 -138t-178 -85.5t-186 -31q-160 0 -269.5 84t-109.5 218q0 101 57.5 166.5t144.5 65.5q43 0 77 -24.5t34 -60.5q0 -25 -16.5 -41t-40.5 -16t-37.5 12t-16.5 27t-15.5 27t-35.5 12q-53 0 -83 -50.5t-30 -117.5
q0 -108 94.5 -186t246.5 -78q114 0 211 59.5t157 172t60 254.5q0 106 -42 197.5t-112 156.5t-160.5 111.5t-189.5 69t-198 22.5q-155 0 -294.5 -52t-244.5 -144t-182 -213.5t-116.5 -265t-39.5 -294.5q0 -172 51 -338t143.5 -303t214 -241t272 -161t307.5 -55q180 3 342 85
t276 215t180 310t66 366q0 89 -15 178.5t-36 154t-42 116t-36 77.5zM2392 875q0 -146 -42 -284.5t-117 -256t-183 -216t-236 -167.5t-279 -107.5t-309 -38.5q-159 0 -310 38.5t-279 107.5t-235.5 167.5t-182.5 216t-117 256t-42 284.5q0 175 59 338.5t166.5 295t251 230.5
t321.5 153t368 54q154 0 302.5 -37t276.5 -104.5t237 -165t186 -215t120.5 -258.5t43.5 -291z" />
    <glyph glyph-name="P" unicode="P" horiz-adv-x="2318" 
d="M896 0h-432v31h21q32 0 53.5 29t21.5 65v1599q-211 -89 -370 -89q-40 0 -75.5 8t-69.5 26.5t-54.5 54t-20.5 84.5q0 39 24 70.5t59 31.5q28 0 47.5 -18t19.5 -44t-25 -48.5t-25 -47.5q0 -31 38.5 -55.5t89.5 -24.5q94 0 212 38.5t233.5 94t235 111t252.5 94t250 38.5
q196 0 362.5 -57t278 -153.5t174 -225t62.5 -270.5q0 -127 -60.5 -249.5t-166.5 -219.5t-266.5 -156.5t-345.5 -59.5q-155 0 -282 49t-205 147.5t-78 231.5q0 97 58 168t145 71q41 0 72 -23t31 -57q0 -23 -15 -38.5t-37 -15.5q-23 0 -35.5 11.5t-15.5 25t-14.5 25
t-33.5 11.5q-50 0 -82 -57t-32 -121q0 -82 33 -149.5t86 -111.5t123 -74t140.5 -43t141.5 -13q170 0 309 92t214.5 240t75.5 316q0 126 -47 246t-129.5 214t-206 151.5t-265.5 57.5q-69 0 -141 -13.5t-150 -42.5t-135 -54t-144 -67v-1709q0 -36 21.5 -65t53.5 -29h21v-31z
" />
    <glyph glyph-name="Q" unicode="Q" horiz-adv-x="2447" 
d="M1861 -829q-40 -42 -86.5 -86t-124 -109.5t-165.5 -121t-189 -106.5t-217.5 -80.5t-229.5 -29.5q-112 0 -230.5 28t-225.5 81.5t-192 124.5t-135.5 165t-50.5 195t43.5 194.5t119.5 165t173 125t209 81.5t224 28q120 0 229.5 -30.5t196.5 -87t138.5 -146t51.5 -199.5
q0 -73 -28 -133.5t-73.5 -98.5t-101 -59t-113.5 -21q-83 0 -139.5 41t-56.5 96q0 28 17 43.5t39 15.5q24 0 39 -14.5t15 -32.5q0 -14 -7.5 -28t-7.5 -22q0 -27 30 -44.5t71 -17.5q119 0 199 80.5t80 194.5q0 127 -80 225.5t-211 149.5t-288 51q-70 0 -142 -20.5t-142 -65.5
t-124 -108.5t-87.5 -157.5t-33.5 -205t40 -205.5t103.5 -157.5t143.5 -108t158 -65.5t149 -20.5q128 0 264.5 43t241.5 101.5t210 138t163 133.5t108 107q-259 268 -427 621q-93 -14 -184 -14q-159 0 -310 38.5t-279 107.5t-235.5 167.5t-182.5 216t-117 256t-42 284.5
q0 175 59 338.5t166.5 295t251 230.5t321.5 153t368 54q154 0 302.5 -37t276.5 -104.5t237 -165t186 -215t120.5 -258.5t43.5 -291q0 -193 -72.5 -371t-198.5 -315.5t-300.5 -233.5t-374.5 -131q164 -342 416 -600q113 118 170 170q407 376 796 425q56 7 111 7
q112 0 224 -28t209 -81.5t173 -125t119.5 -165t43.5 -194.5t-50.5 -195t-135.5 -165t-192 -124.5t-225.5 -81.5t-230.5 -28q-134 0 -276 44t-249.5 104.5t-214.5 141.5t-165 136t-107 107zM1430 -142q206 41 371.5 182t257.5 346t92 432q0 169 -47 331.5t-135.5 298.5
t-207 240t-270 162.5t-315.5 58.5q-194 0 -360.5 -80.5t-278 -214.5t-175 -309.5t-63.5 -364.5q0 -143 36.5 -283.5t100.5 -262t156.5 -225t200.5 -176.5t235.5 -113t258.5 -38q55 2 107 9q-167 368 -167 682q0 95 39.5 145.5t93.5 50.5q31 0 47 -17t16 -39q0 -24 -14.5 -39
t-32.5 -15q-14 0 -28 7.5t-22 7.5q-27 0 -44.5 -30t-17.5 -71q0 -313 166 -675zM1885 -802q50 -53 108 -107t163 -133.5t210 -138t242 -101.5t265 -43q71 0 149 20.5t158 65.5t143.5 108t103.5 157.5t40 205.5t-33.5 205t-87.5 157.5t-124 108.5t-142 65.5t-142 20.5
q-143 0 -293.5 -50t-286 -137t-252 -187t-221.5 -217z" />
    <glyph glyph-name="R" unicode="R" horiz-adv-x="2337" 
d="M896 0h-432v31h21q32 0 53.5 29t21.5 65v1436q-211 -89 -370 -89q-40 0 -75.5 8t-69.5 26.5t-54.5 54t-20.5 84.5q0 39 24 70.5t59 31.5q28 0 47.5 -18t19.5 -44t-25 -48.5t-25 -47.5q0 -31 38.5 -55.5t89.5 -24.5q94 0 212 38.5t233.5 94t235 111t252.5 94t250 38.5
q196 0 362.5 -57t278 -153.5t174 -225t62.5 -270.5q0 -135 -65.5 -263.5t-193 -231t-295.5 -151.5q400 -696 717 -1095q110 77 208 133.5t211 105.5t234 74.5t246 25.5q156 0 307.5 -61t253.5 -175t102 -249t-102 -249t-253.5 -175t-307.5 -61q-93 0 -187 17t-174 46
t-157.5 66.5t-140.5 78.5t-119 82.5t-97.5 79t-71.5 66.5t-45 46l-16 17l-96 -72q-86 -65 -131 -98t-129.5 -93t-138 -93t-137.5 -82.5t-147.5 -77.5t-148.5 -61t-160.5 -50t-164 -29t-176.5 -12q-212 0 -387.5 55.5t-289 149.5t-175 215.5t-61.5 254.5q0 135 60.5 254.5
t160.5 201.5t231.5 129.5t270.5 47.5q74 0 149 -17t145 -52.5t124 -86t86.5 -122.5t32.5 -156q0 -93 -35 -168t-92 -120.5t-126.5 -70t-142.5 -24.5q-134 0 -231.5 74.5t-97.5 200.5q0 93 64 153.5t152 60.5q41 0 72 -23t31 -57q0 -23 -15 -38.5t-37 -15.5q-23 0 -35.5 11.5
t-15.5 25t-14.5 25t-33.5 11.5q-52 0 -91.5 -43t-39.5 -110q0 -97 84.5 -167.5t207.5 -70.5q156 0 257.5 97t101.5 249q0 72 -36 142.5t-99.5 127t-159 92t-205.5 35.5q-143 0 -263 -83.5t-187 -220t-67 -292.5q0 -119 50 -233t138.5 -204.5t224 -145.5t294.5 -55
q86 0 171 11t157.5 27.5t153.5 47.5t142.5 58t140 73.5t130.5 79t131.5 89t124 90t126.5 95.5l123 93q-368 407 -816 1156q-16 -1 -48 -1q-155 0 -282 49t-205 147.5t-78 231.5q0 97 58 168t145 71q41 0 72 -23t31 -57q0 -23 -15 -38.5t-37 -15.5q-23 0 -35.5 11.5t-15.5 25
t-14.5 25t-33.5 11.5q-50 0 -82 -57t-32 -121q0 -82 33 -149.5t86 -111.5t123 -74t140.5 -43t141.5 -13q170 0 309 92t214.5 240t75.5 316q0 126 -47 246t-129.5 214t-206 151.5t-265.5 57.5q-69 0 -141 -13.5t-150 -42.5t-135 -54t-144 -67v-1546q0 -36 21.5 -65t53.5 -29
h21v-31zM2448 -595q9 -12 25 -32t68.5 -78.5t107.5 -111.5t137 -117.5t163 -111t179.5 -78.5t191.5 -32q60 0 122 16t122.5 51.5t107.5 86.5t76 127.5t29 166.5t-29 165.5t-76 125.5t-108 85.5t-122 52t-122 19.5q-115 5 -229 -17.5t-225 -72t-207 -107t-211 -138.5z" />
    <glyph glyph-name="S" unicode="S" horiz-adv-x="1947" 
d="M1416 1381h-21q0 120 -30.5 211.5t-86 146.5t-127 82.5t-157.5 27.5q-65 0 -127 -21t-114 -61t-83.5 -105t-31.5 -146q0 -178 170 -327q93 -82 309 -208q231 -134 315 -191q250 -170 357 -362q98 -175 98 -393q0 -155 -73 -296t-200.5 -246.5t-311.5 -168t-394 -62.5
q-176 0 -337 54.5t-281.5 149.5t-192.5 233.5t-72 296.5q0 137 63.5 253t166 190t228 115t253.5 41q141 0 259 -56t188 -159.5t70 -231.5q0 -104 -36 -187.5t-95.5 -135t-131.5 -78.5t-149 -27q-140 0 -241 83.5t-101 224.5q0 104 65.5 171.5t157.5 67.5q43 0 75.5 -25.5
t32.5 -64.5q0 -25 -15.5 -42.5t-38.5 -17.5q-24 0 -37.5 13t-16.5 28t-15.5 28t-35.5 13q-54 0 -95.5 -48t-41.5 -123q0 -117 90 -194t217 -77q163 0 269.5 110t107.5 281q0 69 -32.5 141t-91.5 133.5t-153 100.5t-205 39q-62 0 -127.5 -19.5t-131 -64.5t-116.5 -108.5
t-83 -160.5t-32 -212q0 -142 39.5 -260.5t105.5 -198t152.5 -134.5t178.5 -80t186 -25q125 0 234.5 26t202 81t158.5 134.5t103 192t37 248.5q0 123 -41 228.5t-110 183t-159 146.5t-189 128l-198 118t-189 126t-159 143t-110 178t-41 222q0 51 15 105t55 114t99.5 106
t157.5 76.5t220 30.5q79 0 186 -26t140 -26q31 0 50 18t22 36l3 18h21v-525z" />
    <glyph glyph-name="T" unicode="T" horiz-adv-x="2183" 
d="M1749 0h-432v31h21q32 0 53.5 29t21.5 65v1751q-303 92 -523 92q-128 0 -239 -37t-190.5 -101t-137 -149t-85.5 -181.5t-28 -198.5q0 -168 75.5 -316t214.5 -240t309 -92q71 0 141 13t139 44t121 76.5t84.5 116t32.5 157.5q0 63 -28.5 112.5t-79.5 49.5
q-22 0 -33.5 -11.5t-14.5 -25t-15.5 -25t-35.5 -11.5q-22 0 -37 15.5t-15 38.5q0 34 31 57t72 23q87 0 142 -63.5t55 -159.5q0 -139 -76.5 -241.5t-201.5 -152.5t-281 -50q-185 0 -345.5 59.5t-266.5 156.5t-166.5 219.5t-60.5 249.5q0 144 60.5 270.5t174 223.5
t290.5 153.5t395 56.5q147 0 316 -37.5t322.5 -91.5t305 -107.5t311.5 -91t293 -37.5q117 0 165.5 32.5t48.5 79.5q0 16 -16 28.5t-32 28t-16 39.5q0 26 19.5 44t47.5 18q35 0 59 -31.5t24 -70.5q0 -98 -84 -151.5t-216 -53.5q-87 0 -180 14t-190 41.5t-178 54t-190 65.5
q-31 11 -47 17v-1670q0 -36 21.5 -65t53.5 -29h21v-31z" />
    <glyph glyph-name="U" unicode="U" horiz-adv-x="1917" 
d="M1773 1430v-996q0 -30 11.5 -51t23.5 -27l11 -6q-4 -10 -12 -27.5t-38 -68t-64 -96t-91 -101.5t-119 -96.5t-148 -68t-178 -27.5q-107 0 -207.5 26.5t-176 68.5t-141.5 93t-111 102t-78 93t-48 68l-15 27q6 4 15 11t24 31t15 49v998q-205 53 -341 193t-136 329
q0 110 57 211t150 171.5t213.5 112.5t244.5 42q81 0 165 -17.5t173 -55t164 -75.5t172.5 -100.5t162 -106.5t169.5 -118t160 -111q44 108 111 192.5t135.5 133t146.5 79.5t139.5 41.5t118.5 10.5q139 0 262.5 -52t198.5 -143.5t75 -197.5q0 -107 -71.5 -197.5t-191.5 -143
t-259 -52.5q-140 0 -295 68.5t-341 192.5q-56 -178 -56 -409zM1713 419v982q0 270 72 468q-61 41 -161 112t-168 118t-161.5 108t-169.5 101t-161.5 77t-168.5 55t-161 18q-70 0 -139.5 -19.5t-135 -61t-115.5 -99.5t-80 -142t-30 -182q0 -336 312 -472v205q0 36 -21.5 65
t-53.5 29h-21v31h432v-31h-21q-32 0 -53.5 -29t-21.5 -65v-244q82 7 152.5 35t119 69.5t83.5 93.5t51.5 107t16.5 110q0 114 -54 211.5t-152.5 157t-220.5 59.5q-134 0 -217.5 -72.5t-83.5 -167.5q0 -73 38 -113t91 -40q22 0 33.5 11.5t14.5 25t15.5 25t35.5 11.5
q22 0 37 -15.5t15 -38.5q0 -34 -31 -57t-72 -23q-88 0 -150 60.5t-62 153.5q0 117 98.5 195t237.5 78q196 0 330 -132.5t134 -328.5q0 -122 -64.5 -222t-168.5 -157.5t-227 -68.5v-976q0 -143 62 -264.5t173.5 -194.5t247.5 -73q103 0 202.5 41t174.5 109.5t121 165
t46 201.5zM1842 1879q189 -127 340 -195.5t283 -68.5q88 0 159.5 29.5t116 80t68 113.5t23.5 133q0 144 -107.5 250t-283.5 106q-57 0 -116 -11t-131 -42t-134 -79.5t-121 -130t-97 -185.5z" />
    <glyph glyph-name="V" unicode="V" horiz-adv-x="1366" 
d="M683 -82l-742 1769q-24 57 -49 75.5t-62 18.5h-30v31h498v-31h-21q-40 0 -64.5 -30.5t-6.5 -74.5l578 -1381l578 1381q18 44 -6.5 74.5t-64.5 30.5h-21v31h296v-31h-30q-37 0 -62 -18.5t-49 -75.5z" />
    <glyph glyph-name="W" unicode="W" horiz-adv-x="1889" 
d="M1277 -82l-333 876l-332 -876l-671 1769q-22 57 -47.5 75.5t-63.5 18.5h-30v31h493v-31h-21q-39 0 -63.5 -30.5t-7.5 -74.5l510 -1346l205 539l-310 818q-22 57 -47.5 75.5t-63.5 18.5h-30v31h493v-31h-21q-39 0 -63.5 -30.5t-7.5 -74.5l178 -469l178 469
q17 44 -7.5 74.5t-63.5 30.5h-21v31h294v-31h-30q-38 0 -63.5 -18.5t-47.5 -75.5l-211 -555l304 -802l511 1346q17 44 -7.5 74.5t-63.5 30.5h-21v31h294v-31h-30q-38 0 -63.5 -18.5t-47.5 -75.5z" />
    <glyph glyph-name="X" unicode="X" horiz-adv-x="1629" 
d="M1559 0h-521v30h28q21 0 35 8.5t18 29.5t-18 56l-414 709q-73 -71 -123.5 -125.5t-108.5 -130.5t-93.5 -146.5t-61 -161t-29.5 -185.5q-5 -123 16 -241.5t79.5 -235t148.5 -204t235 -141.5t328 -54q214 0 396.5 97t290 267.5t107.5 374.5q0 103 -34.5 195.5t-101.5 153
t-151 60.5q-36 0 -69.5 -19t-33.5 -54q0 -15 18 -36.5t18 -41.5q0 -21 -15 -36t-38 -15q-31 0 -47.5 23t-16.5 58q0 65 57 111.5t127 46.5q130 0 227 -119.5t97 -326.5q0 -172 -70 -320t-186 -246.5t-265.5 -154t-309.5 -55.5q-195 0 -379.5 63t-325 170.5t-226 262.5
t-85.5 328q0 61 11 121.5t28.5 112.5t48.5 108t60.5 100t75.5 97t82 91.5t92.5 90.5t95 85.5t99.5 86.5l-467 800q-54 94 -139 94h-24v30h521v-30h-28q-21 0 -35 -8.5t-18 -29.5t18 -56l367 -630q543 491 543 776q0 49 -29.5 86.5t-59.5 38.5q-23 0 -43.5 -22t-45.5 -21
q-23 1 -38.5 18t-15.5 41q0 31 27.5 53t66.5 22q87 0 131 -64.5t44 -151.5q0 -61 -19.5 -126t-60.5 -134.5t-86 -132t-115.5 -140.5t-128.5 -138t-145 -146l521 -893q54 -94 139 -94h24v-30z" />
    <glyph glyph-name="Y" unicode="Y" horiz-adv-x="1162" 
d="M797 0h-432v31h21q32 0 53.5 29t21.5 65v670l-472 888q-15 29 -22 40.5t-20 28.5t-27.5 23t-33.5 6h-46v31h507v-31h-53q-39 0 -57.5 -34t-4.5 -61l442 -833l443 833q14 27 -4.5 61t-57.5 34h-53v31h320v-31h-46q-19 0 -33.5 -6t-27.5 -23t-20 -28.5t-22 -40.5l-472 -888
v-670q0 -36 21.5 -65t53.5 -29h21v-31z" />
    <glyph glyph-name="Z" unicode="Z" horiz-adv-x="1167" 
d="M127 0h-82l889 1775h-354q-180 0 -285 -111.5t-105 -347.5h-21v597h21q0 -4 1 -11t5.5 -24.5t11.5 -30.5t22 -24t35 -11h953l-862 -1721q-12 -24 -29 -39t-28 -18l-11 -3q75 -23 153 -79.5t148.5 -132.5t144 -168t147.5 -188t151 -190t161.5 -177t172 -146.5
t190.5 -100.5t209 -37q153 0 283.5 81.5t202.5 209.5t71 268q-1 107 -33 206t-91 178.5t-152 127.5t-205 48q-114 0 -204.5 -35.5t-144 -94t-81 -128t-27.5 -143.5q0 -148 100.5 -257.5t255.5 -109.5q138 0 215 67t77 175q0 67 -39.5 110t-91.5 43q-22 0 -33.5 -11.5
t-14.5 -25t-15.5 -25t-35.5 -11.5q-22 0 -37 15.5t-15 38.5q0 34 31 57t72 23q88 0 150 -60.5t62 -153.5q0 -132 -94 -203.5t-231 -71.5q-50 0 -102.5 14t-104.5 46t-93 77t-66.5 113.5t-25.5 149.5q0 131 68.5 231.5t179.5 151.5t245 51q152 0 277 -50t204 -133t122 -187.5
t43 -216.5t-55.5 -220.5t-149.5 -193t-230 -136.5t-287 -52q-124 0 -241 42t-212.5 113t-186 162.5t-171.5 193.5t-159 203.5t-157 193t-157.5 162.5t-169.5 113t-184 42z" />
    <glyph glyph-name="bracketleft" unicode="[" horiz-adv-x="483" 
d="M423 -127h-254q-44 0 -76.5 25t-32.5 59v1536q0 34 32.5 59t76.5 25h254v-37h-77q-42 0 -73.5 -24t-31.5 -57v-1468q0 -33 31.5 -57t73.5 -24h77v-37z" />
    <glyph glyph-name="backslash" unicode="\" horiz-adv-x="883" 
d="M823 -148h-70l-693 1746h70z" />
    <glyph glyph-name="bracketright" unicode="]" horiz-adv-x="483" 
d="M314 -127h-254v37h77q42 0 73.5 24t31.5 57v1468q0 33 -31.5 57t-73.5 24h-77v37h254q44 0 76.5 -25t32.5 -59v-1536q0 -34 -32.5 -59t-76.5 -25z" />
    <glyph glyph-name="asciicircum" unicode="^" horiz-adv-x="802" 
d="M777 1937l-51 -27l-272 160q-30 18 -53 18t-53 -18l-272 -160l-51 27l345 312q31 27 61 0z" />
    <glyph glyph-name="grave" unicode="`" horiz-adv-x="463" 
d="M382 1926l-242 65l-82 42q-22 12 -29.5 35t0 46.5t22 44.5t36.5 27.5t44 -2.5l81 -40l202 -156q33 -25 21 -48.5t-53 -13.5z" />
    <glyph glyph-name="a" unicode="a" horiz-adv-x="1377" 
d="M1352 0h-399v31h17q31 0 50 24.5t5 59.5l-140 345h-591l-139 -345q-14 -35 5 -59.5t50 -24.5h17v-31h-227v31h14q61 0 95 84l567 1401l567 -1401q34 -84 95 -84h14v-31zM866 508l-276 681l-276 -681h552z" />
    <glyph glyph-name="b" unicode="b" horiz-adv-x="1097" 
d="M644 0h-544v31h17q26 0 43 23t17 52v1238q0 29 -17 52t-43 23h-17v31h487q180 0 300 -89t120 -241q0 -106 -60.5 -182.5t-163.5 -114.5q140 -40 222 -152t82 -250q0 -111 -52.5 -206t-155 -155t-235.5 -60zM369 48h244q122 0 202 100.5t80 272.5t-80 271.5t-202 99.5
h-244v-744zM369 840h174q50 0 96 15t86.5 46t65 87.5t24.5 131.5t-24.5 131.5t-65 88t-86.5 47t-96 15.5h-174v-562z" />
    <glyph glyph-name="c" unicode="c" horiz-adv-x="1293" 
d="M1228 303l15 -65q-6 -11 -18.5 -28t-57 -62t-95.5 -79t-134 -62t-173 -28q-137 0 -254 41t-200.5 111.5t-143 165.5t-88.5 203.5t-29 224.5t29 224.5t88.5 203.5t143 165.5t200.5 111.5t254 41q77 0 156 -16.5t132.5 -32.5t67.5 -16q54 0 54 53h31v-456h-31
q0 189 -112.5 304.5t-297.5 115.5q-102 0 -188 -36.5t-147 -101.5t-104 -153t-63.5 -191t-20.5 -216q0 -142 33.5 -267t97 -222t164.5 -153t228 -56q65 0 126 15t106 39.5t84 54t65.5 59t45.5 54t28 39.5z" />
    <glyph glyph-name="d" unicode="d" horiz-adv-x="1338" 
d="M604 0h-504v31h17q26 0 43 23t17 52v1238q0 29 -17 52t-43 23h-17v31h504q136 0 250 -40t193.5 -108t134.5 -161t80.5 -197.5t25.5 -218.5t-25.5 -218.5t-80.5 -197.5t-134.5 -161t-193.5 -108t-250 -40zM369 48h205q105 0 194.5 41.5t150 110t103 157.5t62 182t19.5 186
t-19.5 186t-62 182t-103 157.5t-150 110t-194.5 41.5h-205v-1354z" />
    <glyph glyph-name="e" unicode="e" horiz-adv-x="1104" 
d="M1014 -27h-31q0 27 -41 27h-842v31h17q26 0 43 23t17 52v1238q0 29 -17 52t-43 23h-17v31h800q41 0 41 27h31v-463h-31v17q0 13 -1 32t-7 56.5t-16 73t-30 74.5t-46.5 68t-68 48t-92.5 19h-311v-610h311q35 0 60.5 16t36 39t16 46.5t5.5 39.5v16h31v-362h-31q-1 0 0 8.5
t-1.5 22.5t-5.5 30.5t-12 33.5t-20.5 31t-32 22.5t-46.5 8.5h-311v-696h353q51 0 92.5 19t68 48t46.5 68t30 74.5t16 73t7 56.5t1 32v17h31v-463z" />
    <glyph glyph-name="f" unicode="f" horiz-adv-x="988" 
d="M446 0h-346v31h17q26 0 43 23t17 52v1238q0 29 -17 52t-43 23h-17v31h761q41 0 41 27h31v-463h-31v17q0 13 -1 32t-7 56.5t-16 73t-30 74.5t-46.5 68t-68 48t-92.5 19h-272v-610h261q35 0 60.5 16t36 39t16 46.5t5.5 39.5v16h31v-362h-31q-1 0 0 8.5t-1.5 22.5t-5.5 30.5
t-12 33.5t-20.5 31t-32 22.5t-46.5 8.5h-261v-638q0 -29 17 -52t43 -23h17v-31z" />
    <glyph glyph-name="g" unicode="g" horiz-adv-x="1409" 
d="M1267 -20h-31q0 78 -77 78q-21 0 -57 -12.5t-73 -27t-99 -27t-129 -12.5q-126 0 -233 27.5t-182.5 73.5t-135 109t-96.5 130.5t-61 141.5t-33.5 138.5t-9.5 125.5q0 116 29 224.5t88.5 203.5t143 165.5t200.5 111.5t254 41q77 0 156 -16.5t132.5 -32.5t67.5 -16
q54 0 54 53h31v-456h-31q0 189 -112.5 304.5t-297.5 115.5q-102 0 -188 -36.5t-147 -101.5t-104 -153t-63.5 -191t-20.5 -216q0 -68 7.5 -133t25.5 -135.5t46 -132t72.5 -117t101 -95t135 -62.5t171.5 -23q41 0 84.5 7t88 21.5t73 43t28.5 65.5v365q0 46 -20.5 77t-61 46.5
t-86 21.5t-108.5 6h-72v31h617v-31h-17q-26 0 -43 -23t-17 -52v-625z" />
    <glyph glyph-name="h" unicode="h" horiz-adv-x="1396" 
d="M1296 0h-346v31h17q26 0 43 23t17 52v638h-658v-638q0 -29 17 -52t43 -23h17v-31h-346v31h17q26 0 43 23t17 52v1238q0 29 -17 52t-43 23h-17v31h346v-31h-17q-26 0 -43 -23t-17 -52v-552h658v552q0 29 -17 52t-43 23h-17v31h346v-31h-17q-26 0 -43 -23t-17 -52v-1238
q0 -29 17 -52t43 -23h17v-31z" />
    <glyph glyph-name="i" unicode="i" horiz-adv-x="546" 
d="M446 0h-346v31h17q26 0 43 23t17 52v1238q0 29 -17 52t-43 23h-17v31h346v-31h-17q-26 0 -43 -23t-17 -52v-1238q0 -29 17 -52t43 -23h17v-31z" />
    <glyph glyph-name="j" unicode="j" horiz-adv-x="1017" 
d="M683 352v992q0 29 -17 52t-43 23h-17v31h346v-31h-17q-26 0 -43 -23t-17 -52v-910q0 -212 -126.5 -333.5t-324.5 -121.5q-67 0 -153.5 19t-119.5 19q-29 0 -47 -11.5t-18 -25.5v-7h-31v469h31q0 -219 79.5 -317t258.5 -98q124 0 191.5 86.5t67.5 238.5z" />
    <glyph glyph-name="k" unicode="k" horiz-adv-x="1237" 
d="M1217 0h-354v31h16q51 0 17 75l-315 705l-212 -270v-435q0 -29 17 -52t43 -23h17v-31h-346v31h17q26 0 43 23t17 52v1238q0 29 -17 52t-43 23h-17v31h346v-31h-17q-26 0 -43 -23t-17 -52v-731l563 716q24 30 27 51.5t-8 30t-28 8.5h-17v31h217v-31h-12q-39 0 -55 -12.5
t-65 -74.5l-281 -357l389 -869q16 -36 45.5 -55.5t58.5 -19.5h14v-31z" />
    <glyph glyph-name="l" unicode="l" horiz-adv-x="1059" 
d="M984 -27h-31q0 27 -41 27h-812v31h17q26 0 43 23t17 52v1238q0 29 -17 52t-43 23h-17v31h346v-31h-17q-26 0 -43 -23t-17 -52v-1296h323q51 0 92.5 19t68 48t46.5 68t30 74.5t16 73t7 56.5t1 32v17h31v-463z" />
    <glyph glyph-name="m" unicode="m" horiz-adv-x="1605" 
d="M1505 0h-346v31h17q26 0 43 23t17 52v1169l-506 -949l-506 949v-1169q0 -29 17 -52t43 -23h17v-31h-201v31h16q26 0 43 23t17 52v1238q0 29 -17 52t-43 23h-16v31h253l462 -867l462 867h228v-31h-17q-26 0 -43 -23t-17 -52v-1238q0 -29 17 -52t43 -23h17v-31z" />
    <glyph glyph-name="n" unicode="n" horiz-adv-x="1376" 
d="M1199 -44l-974 1269v-1119q0 -29 17 -52t43 -23h17v-31h-202v31h17q26 0 43 23t17 52v1238q0 29 -17 52t-43 23h-17v31h218l833 -1086v980q0 29 -17 52t-43 23h-16v31h201v-31h-17q-26 0 -43 -23t-17 -52v-1388z" />
    <glyph glyph-name="o" unicode="o" 
d="M765 -21q-137 0 -254 41t-200.5 111.5t-143 165.5t-88.5 203.5t-29 224.5t29 224.5t88.5 203.5t143 165.5t200.5 111.5t254 41t254 -41t200.5 -111.5t143 -165.5t88.5 -203.5t29 -224.5t-29 -224.5t-88.5 -203.5t-143 -165.5t-200.5 -111.5t-254 -41zM791 27
q122 0 219.5 52t158.5 140.5t93.5 201t32.5 237.5q0 146 -36 281t-103 244t-174 174.5t-239 65.5q-122 0 -219.5 -52t-158.5 -140.5t-93.5 -201t-32.5 -237.5q0 -146 36 -281t103 -244t174 -174.5t239 -65.5z" />
    <glyph glyph-name="p" unicode="p" horiz-adv-x="1117" 
d="M446 0h-346v31h17q26 0 43 23t17 52v1238q0 29 -17 52t-43 23h-17v31h504q133 0 245.5 -70.5t175 -180t62.5 -227.5t-62.5 -227.5t-175 -180t-245.5 -70.5h-235v-388q0 -29 17 -52t43 -23h17v-31zM369 542h181q147 0 246 116t99 314t-99 314t-246 116h-181v-860z" />
    <glyph glyph-name="q" unicode="q" 
d="M1342 -34h17q-3 -5 -8.5 -14t-26 -32t-44.5 -40.5t-63 -32t-82 -14.5q-64 0 -180.5 42t-170.5 42q-34 0 -65.5 -11.5t-46.5 -23.5l-15 -11h-17q5 9 16 22.5t48 43t80 43.5q-139 -4 -259 35t-206 109.5t-147.5 166.5t-91.5 206.5t-30 227.5q0 116 29 224.5t88.5 203.5
t143 165.5t200.5 111.5t254 41t254 -41t200.5 -111.5t143 -165.5t88.5 -203.5t29 -224.5q0 -104 -23.5 -202t-71 -186.5t-115.5 -158.5t-162 -119.5t-205 -67.5q56 -6 160.5 -40t154.5 -34q31 0 62 12.5t46 24.5zM791 27q122 0 219.5 52t158.5 140.5t93.5 201t32.5 237.5
q0 146 -36 281t-103 244t-174 174.5t-239 65.5q-122 0 -219.5 -52t-158.5 -140.5t-93.5 -201t-32.5 -237.5q0 -146 36 -281t103 -244t174 -174.5t239 -65.5z" />
    <glyph glyph-name="r" unicode="r" horiz-adv-x="1273" 
d="M1303 0h-192q-82 0 -137 100q-24 42 -48.5 112t-42.5 131.5t-48.5 128.5t-65.5 115t-93 79.5t-133 31.5h-174v-592q0 -29 17 -52t43 -23h17v-31h-346v31h17q26 0 43 23t17 52v1238q0 29 -17 52t-43 23h-17v31h544q209 0 346 -103.5t137 -272.5q0 -134 -88.5 -228.5
t-235.5 -129.5q65 -11 113.5 -56.5t81 -115.5t57 -141.5t55.5 -157t62 -139.5q17 -29 46 -52t55 -23h30v-31zM369 746h244q62 0 117 18t102 55.5t75 103t28 151.5t-28 151.5t-75 103t-102 55.5t-117 18h-244v-656z" />
    <glyph glyph-name="s" unicode="s" horiz-adv-x="997" 
d="M106 -20h-31v456h31q1 -95 26.5 -169.5t65 -118.5t92 -73t101.5 -39.5t99 -10.5q121 0 204.5 88t83.5 223q0 80 -38 144.5t-98.5 108.5t-134 83t-146.5 79.5t-133.5 86.5t-98.5 115t-38 155q0 148 120.5 255.5t306.5 107.5q60 0 109.5 -13.5t81.5 -27t51 -13.5t29.5 13
t11.5 26l1 13h31v-328h-31q0 122 -84 203t-200 81q-102 0 -184.5 -72t-82.5 -186q0 -56 25.5 -104t68 -84t97.5 -68.5t116 -63.5t121 -63.5t114 -73t95 -88t63.5 -113t19.5 -143.5q-3 -71 -33.5 -134t-78.5 -108.5t-109.5 -78.5t-128 -49.5t-130.5 -16.5q-76 0 -146 20
t-116 40t-62 20q-26 0 -43.5 -20.5t-17.5 -58.5z" />
    <glyph glyph-name="t" unicode="t" horiz-adv-x="1182" 
d="M764 0h-346v31h17q26 0 43 23t17 52v1296h-143q-51 0 -92.5 -19t-68 -48t-46.5 -68t-30 -74.5t-16 -73t-7 -56.5t-1 -32v-17h-31v463h31q0 -27 41 -27h918q41 0 41 27h31v-463h-31v17q0 13 -1 32t-7 56.5t-16 73t-30 74.5t-46.5 68t-68 48t-92.5 19h-143v-1296
q0 -29 17 -52t43 -23h17v-31z" />
    <glyph glyph-name="u" unicode="u" horiz-adv-x="1273" 
d="M1083 453v891q0 29 -17 52t-43 23h-17v31h202v-31h-17q-26 0 -43 -23t-17 -52v-901q0 -122 -46 -226t-141.5 -171t-223.5 -67q-134 0 -239.5 35t-170.5 96.5t-99 139.5t-34 169v925q0 29 -17 52t-43 23h-17v31h346v-31h-17q-26 0 -43 -23t-17 -52v-925q0 -177 96 -284.5
t255 -107.5q170 0 266.5 121t96.5 305z" />
    <glyph glyph-name="v" unicode="v" horiz-adv-x="1442" 
d="M726 -66l-571 1410q-18 45 -39.5 60t-51.5 15h-24v31h409v-31h-17q-31 0 -50 -24.5t-5 -59.5l435 -1074l435 1074q14 35 -5 59.5t-50 24.5h-17v31h237v-31h-24q-30 0 -51.5 -15t-39.5 -60z" />
    <glyph glyph-name="w" unicode="w" horiz-adv-x="1906" 
d="M1217 -66l-265 699l-264 -699l-533 1410q-17 45 -38.5 60t-52.5 15h-24v31h408v-31h-16q-32 0 -50 -24t-5 -60l395 -1043l154 409l-242 643q-17 45 -38.5 60t-52.5 15h-24v31h408v-31h-16q-32 0 -50 -24t-5 -60l130 -344l130 344q14 36 -3.5 60t-48.5 24h-17v31h240v-31
h-24q-31 0 -53 -15t-39 -60l-159 -421l239 -631l394 1043q14 36 -3.5 60t-48.5 24h-17v31h240v-31h-24q-31 0 -53 -15t-39 -60z" />
    <glyph glyph-name="x" unicode="x" horiz-adv-x="1185" 
d="M1130 0h-390v31h25q69 0 31 76l-282 568l-281 -568q-38 -76 31 -76h25v-31h-224v31h10q22 0 36.5 3.5t34.5 21t37 51.5l306 618l-306 618q-17 34 -37 51.5t-34.5 21t-36.5 3.5h-10v31h390v-31h-25q-69 0 -31 -76l249 -503l250 503q38 76 -31 76h-25v31h222v-31h-10
q-22 0 -36.5 -3.5t-34.5 -21t-37 -51.5l-274 -551l340 -685q17 -34 37 -51.5t34.5 -21t36.5 -3.5h10v-31z" />
    <glyph glyph-name="y" unicode="y" horiz-adv-x="1276" 
d="M811 0h-346v31h17q26 0 43 23t17 52v528l-375 706q-16 29 -24.5 42.5t-24.5 25t-36 11.5h-37v31h422v-31h-42q-31 0 -44.5 -27.5t-2.5 -48.5l337 -635l339 635q11 21 -2.5 48.5t-44.5 27.5h-42v31h266v-31h-37q-28 0 -45 -18t-40 -61l-375 -706v-528q0 -29 17 -52t43 -23
h17v-31z" />
    <glyph glyph-name="z" unicode="z" horiz-adv-x="1068" 
d="M980 0h-905l683 1402h-378q-51 0 -92.5 -27.5t-68 -69t-46.5 -97.5t-30 -106t-16 -102.5t-7 -78t-1 -40.5v-17h-31v586h905l-683 -1402h378q51 0 92.5 27.5t68 69t46.5 97.5t30 106t16 102.5t7 78t1 40.5v17h31v-586z" />
    <glyph glyph-name="braceleft" unicode="{" horiz-adv-x="651" 
d="M591 -127h-254q-44 0 -76.5 25t-32.5 59v356q0 81 -22 158.5t-61.5 128t-84.5 50.5v150q45 0 84.5 50.5t61.5 128t22 158.5v356q0 34 32.5 59t76.5 25h254v-37h-77q-42 0 -73.5 -24t-31.5 -57v-345q0 -75 -17.5 -143t-38 -108t-50 -75.5t-40.5 -45t-21 -17.5
q10 -8 21 -17.5t40.5 -45t50 -75.5t38 -108t17.5 -143v-345q0 -33 31.5 -57t73.5 -24h77v-37z" />
    <glyph glyph-name="bar" unicode="|" horiz-adv-x="2261" 
d="M1131 -128q-164 0 -317 50.5t-277 143t-217 216t-143.5 277t-50.5 318.5q0 203 80 388t215 319.5t323.5 214.5t395.5 80t392 -79t317 -213.5t209.5 -319.5t77.5 -390q0 -206 -79 -392t-213.5 -320.5t-320.5 -213.5t-392 -79zM1032 346v45h-96q5 -30 11 -45h85zM1252 346
l8 45h-93v-45h85zM1299 73l-18 36q-40 0 -63 16.5t-39 55.5q-30 75 -30 207v384h312q13 -16 34 -16q18 0 30.5 12t12.5 30t-12.5 30.5t-30.5 12.5q-20 0 -32 -15h-314v384q0 46 2 79t10.5 71t23 61.5t41 39.5t64.5 16h87q31 0 58.5 -21t40.5 -51q30 -71 30 -207
q0 -11 -0.5 -40t-0.5 -46.5t1.5 -46t5.5 -47t12 -40.5t20 -34.5t30.5 -21.5t42.5 -9q38 0 65.5 25t27.5 62q0 34 -19.5 56t-49.5 22q-44 0 -57 -48q10 5 19 5q11 0 19 -7.5t8 -20.5t-9 -22t-22 -9q-24 0 -36 33t-12 75q0 115 38 223t112 170h36q40 0 68 15.5t28 50.5
q0 24 -15.5 42t-40.5 18q-18 0 -34 -7.5t-23 -15.5l-7 -7q16 10 32 3t16 -27q0 -11 -7.5 -19t-16.5 -8h-585q-33 0 -51 -27q-18 27 -51 27h-147l18 -36q40 2 67.5 -20.5t41 -65t18.5 -87t5 -103.5v-825q0 -129 -30 -204q-16 -37 -39.5 -54.5t-62.5 -17.5l-15 -36h144
q34 0 48 27q27 -27 54 -27h147zM1797 391h-33q8 5 16 14t12.5 16t12.5 21.5t12 20.5q31 54 73 60l-2 1q-3 2 -9 5.5t-13.5 8t-16.5 12.5t-18 17t-18 22t-16 27q-27 54 -77 87t-115 33q-74 0 -128.5 -46.5t-54.5 -121.5q0 -60 33 -87t78 -27q35 0 58 22t23 53t-14.5 50
t-42.5 19q-24 0 -37.5 -15t-13.5 -36q0 -13 6 -22t12 -11l6 -3q-5 7 -1 17t15 10q19 0 19 -22q0 -33 -40 -33q-27 0 -46 25t-19 57q0 39 27.5 72t77.5 33q69 0 102 -36t33 -96q0 -42 -18 -72t-48.5 -45.5t-62 -22.5t-66.5 -7h-93q6 -39 9 -45h369q33 0 33 -27
q0 -18 -14.5 -24.5t-30.5 3.5q1 -4 3 -10t16.5 -15.5t37.5 -9.5q27 0 43.5 19t16.5 43t-21.5 45t-74.5 21zM792 391h-15q-17 0 -31.5 6.5t-24 20.5t-17 28.5t-11.5 38t-7 40.5t-4 44t-1 41v39v480q0 137 27.5 199t98.5 62l15 45h-138q-31 0 -51 -30q-7 13 -22.5 21.5
t-31.5 8.5h-100q-9 0 -16.5 8t-7.5 19q0 20 16 27t32 -3q-24 30 -64 30q-25 0 -40.5 -18t-15.5 -42q0 -35 28 -50.5t68 -15.5q22 0 39.5 -9.5t28.5 -23t18.5 -37t11.5 -42t6 -49t2 -47v-45.5v-8v-477q0 -41 -1 -66t-6.5 -66.5t-16 -66t-32 -43.5t-52.5 -19q-53 0 -74.5 -21
t-21.5 -45t16.5 -43t43.5 -19q23 0 37 8.5t17 17.5l3 9q-16 -10 -30.5 -3.5t-14.5 24.5q0 27 33 27h93q32 0 54 27q18 -27 51 -27h96q8 19 12 45zM999 199l12 27q-51 29 -73.5 91.5t-22.5 187.5v267h118v54h-118v153q0 125 22.5 187.5t73.5 91.5l-12 27h-84q-33 0 -48 -30
q-20 30 -51 30h-81l-15 -27q54 -31 75 -91t21 -188v-153h-33q-13 15 -33 15q-18 0 -30 -12.5t-12 -30.5t12 -30t30 -12q21 0 34 16h32v-267q0 -128 -21 -188t-75 -91l15 -27h81q31 0 51 30q15 -30 48 -30h84zM1383 846v133q0 125 22.5 187.5t73.5 91.5l-12 27h-84
q-33 0 -48 -30q-20 30 -51 30h-81l-15 -27q54 -31 75 -91t21 -188v-133h99zM1467 199l12 27q-51 29 -73.5 91.5t-22.5 187.5v247h-99v-247q0 -128 -21 -188t-75 -91l15 -27h81q31 0 51 30q15 -30 48 -30h84zM1131 -200q220 0 419.5 85t343 229t228.5 343.5t85 419.5
q0 219 -83 417.5t-224.5 342.5t-340 228.5t-419.5 84.5q-222 0 -423.5 -85.5t-346.5 -230t-230.5 -342.5t-85.5 -415q0 -147 38.5 -287t108 -258t169 -217.5t217.5 -168.5t257.5 -107.5t286.5 -38.5zM1131 -229q-180 0 -349 55.5t-305 157.5t-238 238t-158 305t-56 350
q0 223 88 426.5t236.5 351.5t355.5 236t435 88q182 0 350.5 -55.5t302.5 -157t234.5 -237.5t154.5 -304t54 -348q0 -226 -87 -431t-235 -353t-352.5 -235t-430.5 -87z" />
    <glyph glyph-name="braceright" unicode="}" horiz-adv-x="651" 
d="M314 -127h-254v37h77q42 0 73.5 24t31.5 57v345q0 75 17.5 143t38 108t50 75.5t40.5 45t21 17.5q-10 8 -21 17.5t-40.5 45t-50 75.5t-38 108t-17.5 143v345q0 33 -31.5 57t-73.5 24h-77v37h254q44 0 76.5 -25t32.5 -59v-356q0 -81 22 -158.5t61.5 -128t84.5 -50.5v-150
q-45 0 -84.5 -50.5t-61.5 -128t-22 -158.5v-356q0 -34 -32.5 -59t-76.5 -25z" />
    <glyph glyph-name="asciitilde" unicode="~" horiz-adv-x="706" 
d="M654 2057h27q-2 -6 -7 -16t-23 -35t-39.5 -44.5t-59.5 -35.5t-81 -16q-55 0 -146 41t-150 41q-37 0 -67 -10.5t-42 -21.5l-12 -10h-29q2 5 7 14.5t24 32.5t42 40.5t62.5 32t84.5 14.5q53 0 146 -35.5t152 -35.5q29 0 57 11t41 22z" />
    <glyph glyph-name="exclamdown" unicode="&#xa1;" horiz-adv-x="546" 
d="M273 1267q-38 0 -64 28.5t-26 69.5q0 40 26 68.5t64 28.5q37 0 63 -28t26 -69t-26 -69.5t-63 -28.5zM446 0h-346v31h17q26 0 43 23t17 52v458l71 666h51l70 -666v-458q0 -29 17 -52t43 -23h17v-31z" />
    <glyph glyph-name="cent" unicode="&#xa2;" horiz-adv-x="805" 
d="M780 954h-20q0 24 -10 37t-24 13q-4 0 -83 -25t-145 -25q-90 0 -163 26l-32 -118h-48l37 136q-121 57 -186.5 174.5t-65.5 258.5q0 93 30 178t86 152t144.5 107t197.5 40q15 0 41 -2l26 94h48l-28 -102q29 -6 61 -16t52 -17t28 -7q14 0 24 13t10 37h20v-299h-20
q-1 112 -55 173t-129 83l-230 -843q65 -38 152 -38q24 0 52.5 5.5t67 23.5t69 46t52 79t21.5 116h20v-300zM306 1051l225 824q-19 3 -33 3q-108 0 -185.5 -63t-113.5 -162t-36 -222q0 -121 36.5 -221t106.5 -159z" />
    <glyph glyph-name="sterling" unicode="&#xa3;" horiz-adv-x="1648" 
d="M1573 -37h-31q0 19 -9 28t-32 9h-1270v54h34q42 0 78 39t57.5 96.5t33.5 117.5t12 108q0 169 -54 338h-292l30 72h237q-14 37 -47.5 118t-49 124t-30.5 111.5t-15 131.5q0 101 31 201t94.5 190.5t151 159.5t209 110t260.5 41q136 0 251.5 -40.5t191 -107.5t117.5 -152
t42 -175q0 -100 -41.5 -182.5t-109 -133.5t-149.5 -79t-167 -28q-144 0 -236 86.5t-92 209.5q0 96 55 159.5t142 63.5q41 0 72 -23t31 -57q0 -23 -15 -38.5t-37 -15.5q-23 0 -35.5 11.5t-15.5 25t-14.5 25t-33.5 11.5q-51 0 -81.5 -50t-30.5 -112q0 -46 18 -91t52.5 -83
t92 -61.5t128.5 -23.5q41 0 84 13.5t86.5 44.5t77.5 75.5t55 111.5t21 147q0 199 -125 317.5t-334 118.5q-109 0 -199.5 -33t-153.5 -91t-106.5 -138.5t-64 -174t-20.5 -199.5q0 -69 12 -146.5t23 -120.5t38 -134.5t34 -116.5h502l-30 -72h-453q27 -115 27 -212
q0 -124 -41.5 -254t-120.5 -233h812q60 0 108.5 16t80.5 41t55.5 63.5t36.5 75t20 84t9 83t2 79.5v17h31v-550z" />
    <glyph glyph-name="yen" unicode="&#xa5;" horiz-adv-x="1162" 
d="M797 0h-432v31h21q32 0 53.5 29t21.5 65v454h-348v72h348v88h-348v72h339l-463 872q-15 29 -22 40.5t-20 28.5t-27.5 23t-33.5 6h-46v31h507v-31h-53q-39 0 -57.5 -34t-4.5 -61l442 -833l443 833q14 27 -4.5 61t-57.5 34h-53v31h320v-31h-46q-19 0 -33.5 -6t-27.5 -23
t-20 -28.5t-22 -40.5l-464 -872h340v-72h-348v-88h348v-72h-348v-454q0 -36 21.5 -65t53.5 -29h21v-31z" />
    <glyph glyph-name="dieresis" unicode="&#xa8;" horiz-adv-x="493" 
d="M130 1927q-38 0 -64 28.5t-26 68.5q0 41 26 69.5t64 28.5q37 0 63 -28.5t26 -69.5t-26 -69t-63 -28zM364 1927q-38 0 -64 28.5t-26 68.5q0 41 26 69.5t64 28.5q37 0 63 -28.5t26 -69.5t-26 -69t-63 -28z" />
    <glyph glyph-name="degree" unicode="&#xb0;" horiz-adv-x="300" 
d="M224 1857q0 30 -22.5 52t-53.5 22q-30 0 -50.5 -22t-20.5 -52q0 -31 20.5 -52t50.5 -21q32 0 54 21t22 52zM275 1857q0 -52 -36.5 -88.5t-90.5 -36.5q-50 0 -86.5 36.5t-36.5 88.5t36 88.5t87 36.5q54 0 90.5 -36t36.5 -89z" />
    <glyph glyph-name="acute" unicode="&#xb4;" horiz-adv-x="463" 
d="M405 2033l-82 -42l-242 -65q-41 -10 -53 13.5t21 48.5l202 156l81 40q22 10 44 3t36.5 -28t22 -44t0 -46.5t-29.5 -35.5z" />
    <glyph glyph-name="periodcentered" unicode="&#xb7;" horiz-adv-x="229" 
d="M115 609q-38 0 -64 28.5t-26 68.5q0 41 26 69.5t64 28.5q37 0 63 -28.5t26 -69.5t-26 -69t-63 -28z" />
    <glyph glyph-name="cedilla" unicode="&#xb8;" horiz-adv-x="731" 
d="M207 -204h-95l30 104h87l-22 -82q54 19 124 19q92 0 166.5 -27.5t118.5 -72t67 -95.5t23 -103q0 -118 -106 -203.5t-251 -85.5q-81 0 -154.5 30t-121.5 89t-48 134q0 105 85 170t204 65q58 0 99 -31.5t41 -86.5q0 -40 -26.5 -66t-64.5 -26q-18 0 -31 10t-13 25
q0 10 6.5 16.5t15.5 6.5q15 0 22 -16t20 -16q23 0 40.5 18.5t17.5 47.5q0 45 -37 75t-90 30q-85 0 -135 -67t-50 -155q0 -117 64.5 -177t155.5 -60q112 0 182.5 79t70.5 194t-77.5 198.5t-193.5 83.5q-32 0 -63 -6.5t-46 -12.5z" />
    <glyph glyph-name="questiondown" unicode="&#xbf;" horiz-adv-x="927" 
d="M902 305q0 -55 -27.5 -110.5t-76.5 -102t-125.5 -75.5t-166.5 -29q-109 0 -202 35.5t-152.5 93t-93 129.5t-33.5 147q0 78 29 149.5t75 126t101.5 104.5t111 94t101.5 85t75 86.5t29 90.5q0 44 -24.5 62.5t-57.5 18.5q-22 0 -40 -7t-25 -15l-8 -7v11t4 25.5t12 32t26 25
t43 11.5q48 0 80 -40t32 -102q0 -54 -29 -108.5t-72 -98.5t-94 -101.5t-94 -115.5t-72 -143.5t-29 -181.5q0 -73 18.5 -139.5t54.5 -121.5t96.5 -87.5t137.5 -32.5q110 0 193 80t83 208q0 114 -58 185.5t-136 71.5q-89 0 -133 -48.5t-44 -111.5q0 -38 18.5 -68.5t48.5 -30.5
q14 0 21 7t9 15.5t9.5 15.5t21.5 7q13 0 22 -9.5t9 -23.5q0 -20 -19 -34.5t-43 -14.5q-53 0 -87 38.5t-34 97.5q0 78 53 132.5t148 54.5q52 0 106.5 -20.5t101 -56t76.5 -89.5t30 -115zM486 1312q-37 0 -63 28.5t-26 69.5t26 69t63 28q38 0 64 -28.5t26 -68.5
q0 -41 -26 -69.5t-64 -28.5z" />
    <glyph glyph-name="Agrave" unicode="&#xc0;" horiz-adv-x="2175" 
d="M2155 0h-511v31h21q40 0 64.5 30.5t6.5 74.5q-48 114 -127.5 209.5t-186.5 168.5t-248 114t-301 41q-43 0 -83 -3l-224 -530q-18 -44 6.5 -74.5t64.5 -30.5h21v-31h-309v31h30q37 0 62 18.5t49 75.5l225 532q-177 -27 -299.5 -118t-181 -228t-58.5 -312q0 -90 25.5 -182
t78.5 -177.5t127 -151.5t179 -106t225 -40q157 0 288 51t211 149.5t80 225.5q0 114 -80 194.5t-199 80.5q-41 0 -71 -17.5t-30 -44.5q0 -8 7.5 -22t7.5 -28q0 -18 -15 -32.5t-39 -14.5q-22 0 -39 15.5t-17 43.5q0 55 56.5 96t139.5 41q58 0 113.5 -21t101 -59t73.5 -98.5
t28 -133.5q0 -110 -51.5 -199.5t-138.5 -146t-196.5 -87t-229.5 -30.5q-124 0 -246 31.5t-228.5 92.5t-189 144t-130 194t-47.5 233t54 238.5t150.5 210.5t241 160t315.5 86l521 1234l762 -1804q24 -57 49 -75.5t62 -18.5h30v-31zM1598 461l-447 1060l-346 -819q44 2 68 2
q212 0 400 -64.5t325 -178.5zM1340 1962l-242 65l-82 42q-22 12 -29.5 35t0 46.5t22 44.5t36.5 27.5t44 -2.5l81 -40l202 -156q33 -25 21 -48.5t-53 -13.5z" />
    <glyph glyph-name="Aacute" unicode="&#xc1;" horiz-adv-x="2175" 
d="M2155 0h-511v31h21q40 0 64.5 30.5t6.5 74.5q-48 114 -127.5 209.5t-186.5 168.5t-248 114t-301 41q-43 0 -83 -3l-224 -530q-18 -44 6.5 -74.5t64.5 -30.5h21v-31h-309v31h30q37 0 62 18.5t49 75.5l225 532q-177 -27 -299.5 -118t-181 -228t-58.5 -312q0 -90 25.5 -182
t78.5 -177.5t127 -151.5t179 -106t225 -40q157 0 288 51t211 149.5t80 225.5q0 114 -80 194.5t-199 80.5q-41 0 -71 -17.5t-30 -44.5q0 -8 7.5 -22t7.5 -28q0 -18 -15 -32.5t-39 -14.5q-22 0 -39 15.5t-17 43.5q0 55 56.5 96t139.5 41q58 0 113.5 -21t101 -59t73.5 -98.5
t28 -133.5q0 -110 -51.5 -199.5t-138.5 -146t-196.5 -87t-229.5 -30.5q-124 0 -246 31.5t-228.5 92.5t-189 144t-130 194t-47.5 233t54 238.5t150.5 210.5t241 160t315.5 86l521 1234l762 -1804q24 -57 49 -75.5t62 -18.5h30v-31zM1598 461l-447 1060l-346 -819q44 2 68 2
q212 0 400 -64.5t325 -178.5zM1458 2068l-82 -42l-242 -65q-41 -10 -53 13.5t21 48.5l202 156l81 40q22 10 44 3t36.5 -28t22 -44t0 -46.5t-29.5 -35.5z" />
    <glyph glyph-name="Acircumflex" unicode="&#xc2;" horiz-adv-x="2175" 
d="M2155 0h-511v31h21q40 0 64.5 30.5t6.5 74.5q-48 114 -127.5 209.5t-186.5 168.5t-248 114t-301 41q-43 0 -83 -3l-224 -530q-18 -44 6.5 -74.5t64.5 -30.5h21v-31h-309v31h30q37 0 62 18.5t49 75.5l225 532q-177 -27 -299.5 -118t-181 -228t-58.5 -312q0 -90 25.5 -182
t78.5 -177.5t127 -151.5t179 -106t225 -40q157 0 288 51t211 149.5t80 225.5q0 114 -80 194.5t-199 80.5q-41 0 -71 -17.5t-30 -44.5q0 -8 7.5 -22t7.5 -28q0 -18 -15 -32.5t-39 -14.5q-22 0 -39 15.5t-17 43.5q0 55 56.5 96t139.5 41q58 0 113.5 -21t101 -59t73.5 -98.5
t28 -133.5q0 -110 -51.5 -199.5t-138.5 -146t-196.5 -87t-229.5 -30.5q-124 0 -246 31.5t-228.5 92.5t-189 144t-130 194t-47.5 233t54 238.5t150.5 210.5t241 160t315.5 86l521 1234l762 -1804q24 -57 49 -75.5t62 -18.5h30v-31zM1598 461l-447 1060l-346 -819q44 2 68 2
q212 0 400 -64.5t325 -178.5zM1585 1964l-45 -24l-241 142q-26 16 -46.5 16t-47.5 -16l-241 -142l-45 24l306 276q27 24 54 0z" />
    <glyph glyph-name="Atilde" unicode="&#xc3;" horiz-adv-x="2175" 
d="M2155 0h-511v31h21q40 0 64.5 30.5t6.5 74.5q-48 114 -127.5 209.5t-186.5 168.5t-248 114t-301 41q-43 0 -83 -3l-224 -530q-18 -44 6.5 -74.5t64.5 -30.5h21v-31h-309v31h30q37 0 62 18.5t49 75.5l225 532q-177 -27 -299.5 -118t-181 -228t-58.5 -312q0 -90 25.5 -182
t78.5 -177.5t127 -151.5t179 -106t225 -40q157 0 288 51t211 149.5t80 225.5q0 114 -80 194.5t-199 80.5q-41 0 -71 -17.5t-30 -44.5q0 -8 7.5 -22t7.5 -28q0 -18 -15 -32.5t-39 -14.5q-22 0 -39 15.5t-17 43.5q0 55 56.5 96t139.5 41q58 0 113.5 -21t101 -59t73.5 -98.5
t28 -133.5q0 -110 -51.5 -199.5t-138.5 -146t-196.5 -87t-229.5 -30.5q-124 0 -246 31.5t-228.5 92.5t-189 144t-130 194t-47.5 233t54 238.5t150.5 210.5t241 160t315.5 86l521 1234l762 -1804q24 -57 49 -75.5t62 -18.5h30v-31zM1598 461l-447 1060l-346 -819q44 2 68 2
q212 0 400 -64.5t325 -178.5zM1553 2087h27q-2 -6 -7 -16t-23 -35t-39.5 -44.5t-59.5 -35.5t-81 -16q-55 0 -146 41t-150 41q-37 0 -67 -10.5t-42 -21.5l-12 -10h-29q2 5 7 14.5t24 32.5t42 40.5t62.5 32t84.5 14.5q54 0 146 -35.5t152 -35.5q29 0 57 11t41 22z" />
    <glyph glyph-name="Adieresis" unicode="&#xc4;" horiz-adv-x="2175" 
d="M2155 0h-511v31h21q40 0 64.5 30.5t6.5 74.5q-48 114 -127.5 209.5t-186.5 168.5t-248 114t-301 41q-43 0 -83 -3l-224 -530q-18 -44 6.5 -74.5t64.5 -30.5h21v-31h-309v31h30q37 0 62 18.5t49 75.5l225 532q-177 -27 -299.5 -118t-181 -228t-58.5 -312q0 -90 25.5 -182
t78.5 -177.5t127 -151.5t179 -106t225 -40q157 0 288 51t211 149.5t80 225.5q0 114 -80 194.5t-199 80.5q-41 0 -71 -17.5t-30 -44.5q0 -8 7.5 -22t7.5 -28q0 -18 -15 -32.5t-39 -14.5q-22 0 -39 15.5t-17 43.5q0 55 56.5 96t139.5 41q58 0 113.5 -21t101 -59t73.5 -98.5
t28 -133.5q0 -110 -51.5 -199.5t-138.5 -146t-196.5 -87t-229.5 -30.5q-124 0 -246 31.5t-228.5 92.5t-189 144t-130 194t-47.5 233t54 238.5t150.5 210.5t241 160t315.5 86l521 1234l762 -1804q24 -57 49 -75.5t62 -18.5h30v-31zM1598 461l-447 1060l-346 -819q44 2 68 2
q212 0 400 -64.5t325 -178.5zM1136 1947q-38 0 -64 28.5t-26 68.5q0 41 26 69.5t64 28.5q37 0 63 -28.5t26 -69.5t-26 -69t-63 -28zM1370 1947q-38 0 -64 28.5t-26 68.5q0 41 26 69.5t64 28.5q37 0 63 -28.5t26 -69.5t-26 -69t-63 -28z" />
    <glyph glyph-name="Aring" unicode="&#xc5;" horiz-adv-x="2175" 
d="M2155 0h-511v31h21q40 0 64.5 30.5t6.5 74.5q-48 114 -127.5 209.5t-186.5 168.5t-248 114t-301 41q-43 0 -83 -3l-224 -530q-18 -44 6.5 -74.5t64.5 -30.5h21v-31h-309v31h30q37 0 62 18.5t49 75.5l225 532q-177 -27 -299.5 -118t-181 -228t-58.5 -312q0 -90 25.5 -182
t78.5 -177.5t127 -151.5t179 -106t225 -40q157 0 288 51t211 149.5t80 225.5q0 114 -80 194.5t-199 80.5q-41 0 -71 -17.5t-30 -44.5q0 -8 7.5 -22t7.5 -28q0 -18 -15 -32.5t-39 -14.5q-22 0 -39 15.5t-17 43.5q0 55 56.5 96t139.5 41q58 0 113.5 -21t101 -59t73.5 -98.5
t28 -133.5q0 -110 -51.5 -199.5t-138.5 -146t-196.5 -87t-229.5 -30.5q-124 0 -246 31.5t-228.5 92.5t-189 144t-130 194t-47.5 233t54 238.5t150.5 210.5t241 160t315.5 86l521 1234l762 -1804q24 -57 49 -75.5t62 -18.5h30v-31zM1598 461l-447 1060l-346 -819q44 2 68 2
q212 0 400 -64.5t325 -178.5zM1348 2104q0 39 -29 67.5t-69 28.5q-39 0 -65.5 -28.5t-26.5 -67.5q0 -40 26.5 -67t65.5 -27q41 0 69.5 27t28.5 67zM1399 2104q0 -60 -43 -103t-106 -43q-59 0 -101.5 43t-42.5 103q0 61 42.5 104t101.5 43q63 0 106 -42.5t43 -104.5z" />
    <glyph glyph-name="AE" unicode="&#xc6;" horiz-adv-x="3329" 
d="M2008 0h-432v31h21q32 0 53.5 29t21.5 65v261q0 79 -84 168.5t-219.5 163t-284.5 109.5l-579 -691q-35 -46 -24 -75.5t51 -29.5h8v-31h-276v31h10q37 0 70 18.5t81 75.5l600 714q-76 15 -152 15q-317 0 -507 -185.5t-190 -491.5q0 -92 22 -185t72 -183.5t122 -160
t180.5 -112.5t239.5 -43q157 0 288 51t211 149.5t80 225.5q0 114 -80 194.5t-199 80.5q-41 0 -71 -17.5t-30 -44.5q0 -8 7.5 -22t7.5 -28q0 -18 -15 -32.5t-39 -14.5q-22 0 -39 15.5t-17 43.5q0 55 56.5 96t139.5 41q58 0 113.5 -21t101 -59t73.5 -98.5t28 -133.5
q0 -110 -51.5 -199.5t-138.5 -146t-196.5 -87t-229.5 -30.5q-155 0 -306 53.5t-270 145.5t-192.5 227.5t-73.5 287.5q0 135 65 263.5t179.5 230t287 163.5t371.5 62q90 0 183 -14l856 1019v-748q46 38 97 68t79 42l28 11q-5 3 -13.5 9.5t-29.5 30t-37 49.5t-29.5 68
t-13.5 87q0 68 29.5 134.5t82.5 120.5t136 87t181 33q60 0 133 -16t102 -16q78 0 78 81h21v-570h-21q-1 231 -84.5 357.5t-232.5 126.5q-34 0 -67.5 -8t-71.5 -30t-66.5 -56t-47.5 -92.5t-19 -133.5q0 -65 16 -120.5t32 -78.5l17 -24q12 6 33.5 14.5t88 22.5t132.5 14
q89 0 148 -25t58 -63q-1 -39 -72 -69t-180 -30q-73 0 -134.5 14t-86.5 28l-25 14q-5 -3 -14.5 -9t-36.5 -28.5t-52 -50.5t-55 -76t-51.5 -103t-36.5 -134.5t-15 -167.5q0 -92 25.5 -188t78 -185.5t124 -159.5t171 -112.5t211.5 -42.5q105 0 192 37t144 97t96.5 138.5t57 159
t17.5 161.5q0 64 -14 130.5t-45 130t-74.5 113t-107.5 80t-139 30.5q-135 0 -217.5 -84.5t-82.5 -212.5q0 -122 69.5 -194.5t157.5 -72.5q94 0 152.5 57t58.5 149q0 61 -31.5 103t-78.5 42q-22 0 -33.5 -12t-14.5 -27t-15.5 -27t-35.5 -12q-22 0 -37 15.5t-15 38.5
q0 34 32.5 57t77.5 23q80 0 133.5 -57.5t53.5 -143.5q0 -106 -68.5 -174t-178.5 -68q-153 0 -247 90.5t-94 212.5q0 62 29 121.5t81 106.5t131.5 76t172.5 29q119 0 230.5 -37.5t198 -103t139 -165t52.5 -214.5q0 -192 -103 -337.5t-271 -219t-373 -73.5q-180 0 -336.5 57
t-273.5 159v-23q0 -36 21.5 -65t53.5 -29h21v-31zM1672 568v960l-556 -663q102 -24 196.5 -63t157 -78.5t110.5 -75t70 -58.5zM2586 1269q0 26 -37.5 40.5t-93.5 14.5q-57 0 -109.5 -14t-76.5 -28l-24 -13q7 -7 21.5 -17t64 -27t105.5 -17q59 0 104.5 17t45.5 44z" />
    <glyph glyph-name="Ccedilla" unicode="&#xc7;" horiz-adv-x="2233" 
d="M2185 329l13 -28q-5 -10 -15 -28t-49 -69.5t-86.5 -98.5t-130 -104t-176.5 -98.5t-229.5 -69.5t-285.5 -28q-9 0 -25 0.5t-24 0.5l-16 -60q54 19 124 19q92 0 166.5 -27.5t118.5 -72t67 -95.5t23 -103q0 -118 -106 -203.5t-251 -85.5q-81 0 -154.5 30t-121.5 89t-48 134
q0 105 85 170t204 65q58 0 99 -31.5t41 -86.5q0 -40 -26.5 -66t-64.5 -26q-18 0 -31 10t-13 25q0 10 6.5 16.5t15.5 6.5q15 0 22 -16t20 -16q23 0 40.5 18.5t17.5 47.5q0 45 -37 75t-90 30q-85 0 -135 -67t-50 -155q0 -117 64.5 -177t155.5 -60q112 0 182.5 79t70.5 194
t-77.5 198.5t-193.5 83.5q-32 0 -63 -6.5t-46 -12.5l-15 -6h-95l25 88q-215 23 -405.5 115.5t-328 232.5t-217.5 326t-80 389q0 175 59 338.5t166.5 295t251 230.5t321.5 153t368 54q231 0 417 -74t295.5 -216t109.5 -328q0 -106 -40.5 -198.5t-108 -157.5t-154 -112.5
t-179.5 -70t-183 -22.5q-69 0 -139 16.5t-136.5 52.5t-117.5 86t-82.5 123.5t-31.5 159.5q0 173 116 278t281 105q130 0 229.5 -79t99.5 -196q0 -93 -64 -153.5t-152 -60.5q-41 0 -72 23t-31 57q0 23 15 38.5t37 15.5q23 0 35.5 -11.5t15.5 -25t14.5 -25t33.5 -11.5
q52 0 91.5 43t39.5 110q0 100 -84.5 169t-207.5 69q-158 0 -259 -102t-101 -244q0 -162 135 -281.5t335 -119.5q93 0 177 32.5t151.5 95t108 165t40.5 231.5q0 170 -82.5 303t-227 205.5t-324.5 72.5q-152 0 -291.5 -45t-254.5 -133.5t-200.5 -212t-132.5 -288.5t-47 -355
q0 -159 33.5 -300.5t93.5 -254.5t145 -203.5t187.5 -150.5t221 -92t245.5 -32q451 0 755 251q129 107 198 226z" />
    <glyph glyph-name="Egrave" unicode="&#xc8;" horiz-adv-x="1931" 
d="M1304 1355h-23q-1 239 -93.5 370.5t-256.5 131.5q-53 0 -107.5 -20t-102.5 -58.5t-78.5 -104t-30.5 -146.5q0 -44 9 -84t21 -65.5t24.5 -45t21.5 -28.5l9 -9q14 6 38 14.5t91 22.5t127 14q108 0 182.5 -26.5t73.5 -65.5q-1 -40 -71.5 -69t-190.5 -29q-80 0 -152 13.5
t-104 27.5l-32 13q-8 -4 -20.5 -12.5t-50 -40t-71.5 -68.5t-75.5 -100t-71 -133t-50 -168.5t-20.5 -206.5q0 -230 90 -409.5t258 -281t388 -101.5q120 0 218.5 32.5t168 90.5t116.5 138t69.5 173.5t22.5 199.5q0 64 -12 128t-36.5 128t-65.5 118.5t-94.5 97t-128.5 66.5
t-163 24q-172 0 -289 -120.5t-117 -321.5q0 -184 100.5 -302.5t257.5 -118.5q121 0 206.5 69t85.5 173q0 67 -39.5 110t-91.5 43q-22 0 -33.5 -11.5t-14.5 -25t-15.5 -25t-35.5 -11.5q-22 0 -37 15.5t-15 38.5q0 34 31 57t72 23q88 0 150 -60.5t62 -153.5q0 -126 -96 -200.5
t-229 -74.5q-93 0 -182 29.5t-163 84.5t-119.5 143.5t-45.5 196.5q0 97 37 178t96 134.5t134 91.5t148.5 54.5t142.5 16.5q148 0 283.5 -44.5t236 -122t160.5 -189.5t60 -239q0 -135 -58.5 -256.5t-164 -213.5t-264.5 -146.5t-348 -54.5q-199 0 -378.5 62t-311 170
t-209 263.5t-77.5 333.5q0 113 29 216.5t75.5 179.5t102.5 141.5t112 108.5t102.5 74t75.5 44l29 14q-5 3 -13.5 10t-30.5 31.5t-38.5 53t-30 75.5t-13.5 98q0 148 136.5 257t334.5 109q66 0 148.5 -17t114.5 -17q87 0 87 84h23v-589zM1113 1256q0 26 -48 40t-112 14
q-60 0 -114 -14t-79 -28l-24 -14q8 -7 24 -17t70.5 -26.5t116.5 -16.5q65 0 115.5 17.5t50.5 44.5zM1064 1962l-242 65l-82 42q-22 12 -29.5 35t0 46.5t22 44.5t36.5 27.5t44 -2.5l81 -40l202 -156q33 -25 21 -48.5t-53 -13.5z" />
    <glyph glyph-name="Eacute" unicode="&#xc9;" horiz-adv-x="1931" 
d="M1304 1355h-23q-1 239 -93.5 370.5t-256.5 131.5q-53 0 -107.5 -20t-102.5 -58.5t-78.5 -104t-30.5 -146.5q0 -44 9 -84t21 -65.5t24.5 -45t21.5 -28.5l9 -9q14 6 38 14.5t91 22.5t127 14q108 0 182.5 -26.5t73.5 -65.5q-1 -40 -71.5 -69t-190.5 -29q-80 0 -152 13.5
t-104 27.5l-32 13q-8 -4 -20.5 -12.5t-50 -40t-71.5 -68.5t-75.5 -100t-71 -133t-50 -168.5t-20.5 -206.5q0 -230 90 -409.5t258 -281t388 -101.5q120 0 218.5 32.5t168 90.5t116.5 138t69.5 173.5t22.5 199.5q0 64 -12 128t-36.5 128t-65.5 118.5t-94.5 97t-128.5 66.5
t-163 24q-172 0 -289 -120.5t-117 -321.5q0 -184 100.5 -302.5t257.5 -118.5q121 0 206.5 69t85.5 173q0 67 -39.5 110t-91.5 43q-22 0 -33.5 -11.5t-14.5 -25t-15.5 -25t-35.5 -11.5q-22 0 -37 15.5t-15 38.5q0 34 31 57t72 23q88 0 150 -60.5t62 -153.5q0 -126 -96 -200.5
t-229 -74.5q-93 0 -182 29.5t-163 84.5t-119.5 143.5t-45.5 196.5q0 97 37 178t96 134.5t134 91.5t148.5 54.5t142.5 16.5q148 0 283.5 -44.5t236 -122t160.5 -189.5t60 -239q0 -135 -58.5 -256.5t-164 -213.5t-264.5 -146.5t-348 -54.5q-199 0 -378.5 62t-311 170
t-209 263.5t-77.5 333.5q0 113 29 216.5t75.5 179.5t102.5 141.5t112 108.5t102.5 74t75.5 44l29 14q-5 3 -13.5 10t-30.5 31.5t-38.5 53t-30 75.5t-13.5 98q0 148 136.5 257t334.5 109q66 0 148.5 -17t114.5 -17q87 0 87 84h23v-589zM1113 1256q0 26 -48 40t-112 14
q-60 0 -114 -14t-79 -28l-24 -14q8 -7 24 -17t70.5 -26.5t116.5 -16.5q65 0 115.5 17.5t50.5 44.5zM1155 2069l-82 -42l-242 -65q-41 -10 -53 13.5t21 48.5l202 156l81 40q22 10 44 3t36.5 -28t22 -44t0 -46.5t-29.5 -35.5z" />
    <glyph glyph-name="Ecircumflex" unicode="&#xca;" horiz-adv-x="1931" 
d="M1304 1355h-23q-1 239 -93.5 370.5t-256.5 131.5q-53 0 -107.5 -20t-102.5 -58.5t-78.5 -104t-30.5 -146.5q0 -44 9 -84t21 -65.5t24.5 -45t21.5 -28.5l9 -9q14 6 38 14.5t91 22.5t127 14q108 0 182.5 -26.5t73.5 -65.5q-1 -40 -71.5 -69t-190.5 -29q-80 0 -152 13.5
t-104 27.5l-32 13q-8 -4 -20.5 -12.5t-50 -40t-71.5 -68.5t-75.5 -100t-71 -133t-50 -168.5t-20.5 -206.5q0 -230 90 -409.5t258 -281t388 -101.5q120 0 218.5 32.5t168 90.5t116.5 138t69.5 173.5t22.5 199.5q0 64 -12 128t-36.5 128t-65.5 118.5t-94.5 97t-128.5 66.5
t-163 24q-172 0 -289 -120.5t-117 -321.5q0 -184 100.5 -302.5t257.5 -118.5q121 0 206.5 69t85.5 173q0 67 -39.5 110t-91.5 43q-22 0 -33.5 -11.5t-14.5 -25t-15.5 -25t-35.5 -11.5q-22 0 -37 15.5t-15 38.5q0 34 31 57t72 23q88 0 150 -60.5t62 -153.5q0 -126 -96 -200.5
t-229 -74.5q-93 0 -182 29.5t-163 84.5t-119.5 143.5t-45.5 196.5q0 97 37 178t96 134.5t134 91.5t148.5 54.5t142.5 16.5q148 0 283.5 -44.5t236 -122t160.5 -189.5t60 -239q0 -135 -58.5 -256.5t-164 -213.5t-264.5 -146.5t-348 -54.5q-199 0 -378.5 62t-311 170
t-209 263.5t-77.5 333.5q0 113 29 216.5t75.5 179.5t102.5 141.5t112 108.5t102.5 74t75.5 44l29 14q-5 3 -13.5 10t-30.5 31.5t-38.5 53t-30 75.5t-13.5 98q0 148 136.5 257t334.5 109q66 0 148.5 -17t114.5 -17q87 0 87 84h23v-589zM1113 1256q0 26 -48 40t-112 14
q-60 0 -114 -14t-79 -28l-24 -14q8 -7 24 -17t70.5 -26.5t116.5 -16.5q65 0 115.5 17.5t50.5 44.5zM1276 1969l-45 -24l-241 142q-26 16 -46.5 16t-47.5 -16l-241 -142l-45 24l306 276q27 24 54 0z" />
    <glyph glyph-name="Edieresis" unicode="&#xcb;" horiz-adv-x="1931" 
d="M1304 1355h-23q-1 239 -93.5 370.5t-256.5 131.5q-53 0 -107.5 -20t-102.5 -58.5t-78.5 -104t-30.5 -146.5q0 -44 9 -84t21 -65.5t24.5 -45t21.5 -28.5l9 -9q14 6 38 14.5t91 22.5t127 14q108 0 182.5 -26.5t73.5 -65.5q-1 -40 -71.5 -69t-190.5 -29q-80 0 -152 13.5
t-104 27.5l-32 13q-8 -4 -20.5 -12.5t-50 -40t-71.5 -68.5t-75.5 -100t-71 -133t-50 -168.5t-20.5 -206.5q0 -230 90 -409.5t258 -281t388 -101.5q120 0 218.5 32.5t168 90.5t116.5 138t69.5 173.5t22.5 199.5q0 64 -12 128t-36.5 128t-65.5 118.5t-94.5 97t-128.5 66.5
t-163 24q-172 0 -289 -120.5t-117 -321.5q0 -184 100.5 -302.5t257.5 -118.5q121 0 206.5 69t85.5 173q0 67 -39.5 110t-91.5 43q-22 0 -33.5 -11.5t-14.5 -25t-15.5 -25t-35.5 -11.5q-22 0 -37 15.5t-15 38.5q0 34 31 57t72 23q88 0 150 -60.5t62 -153.5q0 -126 -96 -200.5
t-229 -74.5q-93 0 -182 29.5t-163 84.5t-119.5 143.5t-45.5 196.5q0 97 37 178t96 134.5t134 91.5t148.5 54.5t142.5 16.5q148 0 283.5 -44.5t236 -122t160.5 -189.5t60 -239q0 -135 -58.5 -256.5t-164 -213.5t-264.5 -146.5t-348 -54.5q-199 0 -378.5 62t-311 170
t-209 263.5t-77.5 333.5q0 113 29 216.5t75.5 179.5t102.5 141.5t112 108.5t102.5 74t75.5 44l29 14q-5 3 -13.5 10t-30.5 31.5t-38.5 53t-30 75.5t-13.5 98q0 148 136.5 257t334.5 109q66 0 148.5 -17t114.5 -17q87 0 87 84h23v-589zM1113 1256q0 26 -48 40t-112 14
q-60 0 -114 -14t-79 -28l-24 -14q8 -7 24 -17t70.5 -26.5t116.5 -16.5q65 0 115.5 17.5t50.5 44.5zM836 1947q-38 0 -64 28.5t-26 68.5q0 41 26 69.5t64 28.5q37 0 63 -28.5t26 -69.5t-26 -69t-63 -28zM1070 1947q-38 0 -64 28.5t-26 68.5q0 41 26 69.5t64 28.5
q37 0 63 -28.5t26 -69.5t-26 -69t-63 -28z" />
    <glyph glyph-name="Igrave" unicode="&#xcc;" horiz-adv-x="531" 
d="M486 0h-432v31h21q32 0 53.5 29t21.5 65v1562q0 36 -21.5 65t-53.5 29h-21v31h432v-31h-21q-32 0 -53.5 -29t-21.5 -65v-1562q0 -36 21.5 -65t53.5 -29h21v-31zM402 1926l-242 65l-82 42q-22 12 -29.5 35t0 46.5t22 44.5t36.5 27.5t44 -2.5l81 -40l202 -156
q33 -25 21 -48.5t-53 -13.5z" />
    <glyph glyph-name="Iacute" unicode="&#xcd;" horiz-adv-x="531" 
d="M477 0h-432v31h21q32 0 53.5 29t21.5 65v1562q0 36 -21.5 65t-53.5 29h-21v31h432v-31h-21q-32 0 -53.5 -29t-21.5 -65v-1562q0 -36 21.5 -65t53.5 -29h21v-31zM453 2033l-82 -42l-242 -65q-41 -10 -53 13.5t21 48.5l202 156l81 40q22 10 44 3t36.5 -28t22 -44t0 -46.5
t-29.5 -35.5z" />
    <glyph glyph-name="Icircumflex" unicode="&#xce;" horiz-adv-x="756" 
d="M594 0h-432v31h21q32 0 53.5 29t21.5 65v1562q0 36 -21.5 65t-53.5 29h-21v31h432v-31h-21q-32 0 -53.5 -29t-21.5 -65v-1562q0 -36 21.5 -65t53.5 -29h21v-31zM711 1920l-45 -24l-241 142q-26 16 -46.5 16t-47.5 -16l-241 -142l-45 24l306 276q27 24 54 0z" />
    <glyph glyph-name="Idieresis" unicode="&#xcf;" horiz-adv-x="522" 
d="M477 0h-432v31h21q32 0 53.5 29t21.5 65v1562q0 36 -21.5 65t-53.5 29h-21v31h432v-31h-21q-32 0 -53.5 -29t-21.5 -65v-1562q0 -36 21.5 -65t53.5 -29h21v-31zM145 1947q-38 0 -64 28.5t-26 68.5q0 41 26 69.5t64 28.5q37 0 63 -28.5t26 -69.5t-26 -69t-63 -28z
M379 1947q-38 0 -64 28.5t-26 68.5q0 41 26 69.5t64 28.5q37 0 63 -28.5t26 -69.5t-26 -69t-63 -28z" />
    <glyph glyph-name="Eth" unicode="&#xd0;" horiz-adv-x="2908" 
d="M1486 0h-432v31h21q32 0 53.5 29t21.5 65v877h-180l30 72h150v645q-52 -17 -185.5 -63t-201.5 -67.5t-171 -51t-183 -42t-149 -12.5q-132 0 -216 53.5t-84 151.5q0 39 24 70.5t59 31.5q28 0 47.5 -18t19.5 -44q0 -24 -16 -39.5t-32 -28t-16 -28.5q0 -47 48.5 -79.5
t165.5 -32.5q115 0 267 37.5t304 91t307.5 107.5t321 91.5t300.5 37.5q136 0 269 -28.5t254.5 -82t224.5 -136.5t178.5 -186.5t118.5 -238t43 -285.5q0 -138 -48.5 -277t-141 -260t-214.5 -215.5t-280.5 -149t-328.5 -54.5q-72 0 -140.5 13.5t-131.5 41t-109.5 76.5
t-63.5 113v-98q0 -34 22 -60.5t53 -26.5h21v-31zM1825 1002h-435v-639q20 64 72.5 102.5t114.5 38.5q41 0 72 -23t31 -57q0 -23 -15 -38.5t-37 -15.5q-23 0 -35.5 11.5t-15.5 25t-14.5 25t-33.5 11.5q-50 0 -81 -48t-31 -100q0 -124 116.5 -205t301.5 -81q144 0 269.5 51
t216.5 139.5t156.5 205.5t98 250.5t32.5 272.5q0 193 -62 361.5t-173.5 292t-277 195t-362.5 71.5q-139 0 -343 -56v-718h465z" />
    <glyph glyph-name="Ntilde" unicode="&#xd1;" horiz-adv-x="1709" 
d="M1508 389v1298q0 36 -21.5 65t-53.5 29h-21v31h252v-31h-21q-32 0 -53.5 -29t-21.5 -65v-1784q-47 121 -119 232t-154.5 199t-177 170t-190 154.5t-190 144t-180 146.5t-156 153.5t-123.5 173.5t-77 199v-1350q0 -36 21.5 -65t53.5 -29h21v-31h-252v31h21q32 0 53.5 29
t21.5 65v1562q0 36 -21.5 65t-53.5 29h-21v31h239q41 -145 124 -280.5t184.5 -241t216 -204t226 -185.5t207 -168t167.5 -169.5t99 -174.5zM1155 2070h27q-2 -6 -7 -16t-23 -35t-39.5 -44.5t-59.5 -35.5t-81 -16q-55 0 -146 41t-150 41q-37 0 -67 -10.5t-42 -20.5l-12 -11
h-29q2 5 7 14.5t24 32.5t42 40.5t62.5 32t84.5 14.5q54 0 146 -35.5t152 -35.5q29 0 57 11t41 22z" />
    <glyph glyph-name="Ograve" unicode="&#xd2;" horiz-adv-x="2452" 
d="M2008 1370q15 -39 23 -66t9 -34v-7q-20 -97 -81 -180.5t-144 -138t-178 -85.5t-186 -31q-160 0 -269.5 84t-109.5 218q0 101 57.5 166.5t144.5 65.5q43 0 77 -24.5t34 -60.5q0 -25 -16.5 -41t-40.5 -16t-37.5 12t-16.5 27t-15.5 27t-35.5 12q-53 0 -83 -50.5t-30 -117.5
q0 -108 94.5 -186t246.5 -78q114 0 211 59.5t157 172t60 254.5q0 106 -42 197.5t-112 156.5t-160.5 111.5t-189.5 69t-198 22.5q-155 0 -294.5 -52t-244.5 -144t-182 -213.5t-116.5 -265t-39.5 -294.5q0 -172 51 -338t143.5 -303t214 -241t272 -161t307.5 -55q180 3 342 85
t276 215t180 310t66 366q0 89 -15 178.5t-36 154t-42 116t-36 77.5zM2392 875q0 -146 -42 -284.5t-117 -256t-183 -216t-236 -167.5t-279 -107.5t-309 -38.5q-159 0 -310 38.5t-279 107.5t-235.5 167.5t-182.5 216t-117 256t-42 284.5q0 175 59 338.5t166.5 295t251 230.5
t321.5 153t368 54q154 0 302.5 -37t276.5 -104.5t237 -165t186 -215t120.5 -258.5t43.5 -291zM1395 2030l-242 65l-82 42q-22 12 -29.5 35t0 46.5t22 44.5t36.5 27.5t44 -2.5l81 -40l202 -156q33 -25 21 -48.5t-53 -13.5z" />
    <glyph glyph-name="Oacute" unicode="&#xd3;" horiz-adv-x="2452" 
d="M2008 1370q15 -39 23 -66t9 -34v-7q-20 -97 -81 -180.5t-144 -138t-178 -85.5t-186 -31q-160 0 -269.5 84t-109.5 218q0 101 57.5 166.5t144.5 65.5q43 0 77 -24.5t34 -60.5q0 -25 -16.5 -41t-40.5 -16t-37.5 12t-16.5 27t-15.5 27t-35.5 12q-53 0 -83 -50.5t-30 -117.5
q0 -108 94.5 -186t246.5 -78q114 0 211 59.5t157 172t60 254.5q0 106 -42 197.5t-112 156.5t-160.5 111.5t-189.5 69t-198 22.5q-155 0 -294.5 -52t-244.5 -144t-182 -213.5t-116.5 -265t-39.5 -294.5q0 -172 51 -338t143.5 -303t214 -241t272 -161t307.5 -55q180 3 342 85
t276 215t180 310t66 366q0 89 -15 178.5t-36 154t-42 116t-36 77.5zM2392 875q0 -146 -42 -284.5t-117 -256t-183 -216t-236 -167.5t-279 -107.5t-309 -38.5q-159 0 -310 38.5t-279 107.5t-235.5 167.5t-182.5 216t-117 256t-42 284.5q0 175 59 338.5t166.5 295t251 230.5
t321.5 153t368 54q154 0 302.5 -37t276.5 -104.5t237 -165t186 -215t120.5 -258.5t43.5 -291zM1393 2137l-82 -42l-242 -65q-41 -10 -53 13.5t21 48.5l202 156l81 40q22 10 44 3t36.5 -28t22 -44t0 -46.5t-29.5 -35.5z" />
    <glyph glyph-name="Ocircumflex" unicode="&#xd4;" horiz-adv-x="2452" 
d="M2008 1370q15 -39 23 -66t9 -34v-7q-20 -97 -81 -180.5t-144 -138t-178 -85.5t-186 -31q-160 0 -269.5 84t-109.5 218q0 101 57.5 166.5t144.5 65.5q43 0 77 -24.5t34 -60.5q0 -25 -16.5 -41t-40.5 -16t-37.5 12t-16.5 27t-15.5 27t-35.5 12q-53 0 -83 -50.5t-30 -117.5
q0 -108 94.5 -186t246.5 -78q114 0 211 59.5t157 172t60 254.5q0 106 -42 197.5t-112 156.5t-160.5 111.5t-189.5 69t-198 22.5q-155 0 -294.5 -52t-244.5 -144t-182 -213.5t-116.5 -265t-39.5 -294.5q0 -172 51 -338t143.5 -303t214 -241t272 -161t307.5 -55q180 3 342 85
t276 215t180 310t66 366q0 89 -15 178.5t-36 154t-42 116t-36 77.5zM2392 875q0 -146 -42 -284.5t-117 -256t-183 -216t-236 -167.5t-279 -107.5t-309 -38.5q-159 0 -310 38.5t-279 107.5t-235.5 167.5t-182.5 216t-117 256t-42 284.5q0 175 59 338.5t166.5 295t251 230.5
t321.5 153t368 54q154 0 302.5 -37t276.5 -104.5t237 -165t186 -215t120.5 -258.5t43.5 -291zM1559 2032l-45 -24l-241 142q-26 16 -46.5 16t-47.5 -16l-241 -142l-45 24l306 276q27 24 54 0z" />
    <glyph glyph-name="Otilde" unicode="&#xd5;" horiz-adv-x="2452" 
d="M2008 1370q15 -39 23 -66t9 -34v-7q-20 -97 -81 -180.5t-144 -138t-178 -85.5t-186 -31q-160 0 -269.5 84t-109.5 218q0 101 57.5 166.5t144.5 65.5q43 0 77 -24.5t34 -60.5q0 -25 -16.5 -41t-40.5 -16t-37.5 12t-16.5 27t-15.5 27t-35.5 12q-53 0 -83 -50.5t-30 -117.5
q0 -108 94.5 -186t246.5 -78q114 0 211 59.5t157 172t60 254.5q0 106 -42 197.5t-112 156.5t-160.5 111.5t-189.5 69t-198 22.5q-155 0 -294.5 -52t-244.5 -144t-182 -213.5t-116.5 -265t-39.5 -294.5q0 -172 51 -338t143.5 -303t214 -241t272 -161t307.5 -55q180 3 342 85
t276 215t180 310t66 366q0 89 -15 178.5t-36 154t-42 116t-36 77.5zM2392 875q0 -146 -42 -284.5t-117 -256t-183 -216t-236 -167.5t-279 -107.5t-309 -38.5q-159 0 -310 38.5t-279 107.5t-235.5 167.5t-182.5 216t-117 256t-42 284.5q0 175 59 338.5t166.5 295t251 230.5
t321.5 153t368 54q154 0 302.5 -37t276.5 -104.5t237 -165t186 -215t120.5 -258.5t43.5 -291zM1527 2174h27q-2 -6 -7 -16t-23 -35t-39.5 -44.5t-59.5 -35.5t-81 -16q-55 0 -146 41t-150 41q-37 0 -67 -10.5t-42 -20.5l-12 -11h-29q2 5 7 14.5t24 32.5t42 40.5t62.5 32
t84.5 14.5q54 0 146.5 -35.5t151.5 -35.5q29 0 57 11t41 22z" />
    <glyph glyph-name="Odieresis" unicode="&#xd6;" horiz-adv-x="2452" 
d="M2008 1370q15 -39 23 -66t9 -34v-7q-20 -97 -81 -180.5t-144 -138t-178 -85.5t-186 -31q-160 0 -269.5 84t-109.5 218q0 101 57.5 166.5t144.5 65.5q43 0 77 -24.5t34 -60.5q0 -25 -16.5 -41t-40.5 -16t-37.5 12t-16.5 27t-15.5 27t-35.5 12q-53 0 -83 -50.5t-30 -117.5
q0 -108 94.5 -186t246.5 -78q114 0 211 59.5t157 172t60 254.5q0 106 -42 197.5t-112 156.5t-160.5 111.5t-189.5 69t-198 22.5q-155 0 -294.5 -52t-244.5 -144t-182 -213.5t-116.5 -265t-39.5 -294.5q0 -172 51 -338t143.5 -303t214 -241t272 -161t307.5 -55q180 3 342 85
t276 215t180 310t66 366q0 89 -15 178.5t-36 154t-42 116t-36 77.5zM2392 875q0 -146 -42 -284.5t-117 -256t-183 -216t-236 -167.5t-279 -107.5t-309 -38.5q-159 0 -310 38.5t-279 107.5t-235.5 167.5t-182.5 216t-117 256t-42 284.5q0 175 59 338.5t166.5 295t251 230.5
t321.5 153t368 54q154 0 302.5 -37t276.5 -104.5t237 -165t186 -215t120.5 -258.5t43.5 -291zM1110 2027q-38 0 -64 28.5t-26 68.5q0 41 26 69.5t64 28.5q37 0 63 -28.5t26 -69.5t-26 -69t-63 -28zM1344 2027q-38 0 -64 28.5t-26 68.5q0 41 26 69.5t64 28.5q37 0 63 -28.5
t26 -69.5t-26 -69t-63 -28z" />
    <glyph glyph-name="Oslash" unicode="&#xd8;" horiz-adv-x="2452" 
d="M735 -350h-70l87 247q-311 126 -501.5 390.5t-190.5 587.5q0 175 59 338.5t166.5 295t251 230.5t321.5 153t368 54q120 0 238 -23l63 177h70l-68 -192q182 -45 340 -141.5t274 -229t182.5 -304.5t66.5 -358q0 -146 -42 -284.5t-117 -256t-183 -216t-236 -167.5
t-279 -107.5t-309 -38.5q-211 0 -413 69zM1507 1844l-663 -1882q213 -123 444 -120q145 2 279 55t239 145.5t183.5 213.5t120.5 266t42 296q0 223 -80.5 429.5t-227.5 363t-337 233.5zM787 -2l658 1869q-132 42 -268 42q-194 0 -360.5 -80.5t-278 -214.5t-175 -309.5
t-63.5 -364.5q0 -285 133.5 -538.5t353.5 -403.5z" />
    <glyph glyph-name="Ugrave" unicode="&#xd9;" horiz-adv-x="1614" 
d="M1408 419v1237q0 36 -21.5 65t-53.5 29h-21v31h252v-31h-21q-32 0 -53.5 -29t-21.5 -65v-1222q0 -30 11.5 -51t22.5 -27l12 -6q-4 -10 -12 -27.5t-38 -68t-64 -96t-91 -101.5t-119 -96.5t-148 -68t-178 -27.5q-107 0 -207.5 26.5t-176 68.5t-141.5 93t-111 102t-78 93
t-48 68l-15 27q6 4 15 11t24 31t15 49v1222q0 36 -21.5 65t-53.5 29h-21v31h432v-31h-21q-32 0 -53.5 -29t-21.5 -65v-1222q0 -143 62 -264.5t173.5 -194.5t247.5 -73q103 0 202.5 41t174.5 109.5t121 165t46 201.5zM954 1926l-242 65l-82 42q-22 12 -29.5 35t0 46.5
t22 44.5t36.5 27.5t44 -2.5l81 -40l202 -156q33 -25 21 -48.5t-53 -13.5z" />
    <glyph glyph-name="Uacute" unicode="&#xda;" horiz-adv-x="1614" 
d="M1408 419v1237q0 36 -21.5 65t-53.5 29h-21v31h252v-31h-21q-32 0 -53.5 -29t-21.5 -65v-1222q0 -30 11.5 -51t22.5 -27l12 -6q-4 -10 -12 -27.5t-38 -68t-64 -96t-91 -101.5t-119 -96.5t-148 -68t-178 -27.5q-107 0 -207.5 26.5t-176 68.5t-141.5 93t-111 102t-78 93
t-48 68l-15 27q6 4 15 11t24 31t15 49v1222q0 36 -21.5 65t-53.5 29h-21v31h432v-31h-21q-32 0 -53.5 -29t-21.5 -65v-1222q0 -143 62 -264.5t173.5 -194.5t247.5 -73q103 0 202.5 41t174.5 109.5t121 165t46 201.5zM1062 2033l-82 -42l-242 -65q-41 -10 -53 13.5t21 48.5
l202 156l81 40q22 10 44 3t36.5 -28t22 -44t0 -46.5t-29.5 -35.5z" />
    <glyph glyph-name="Ucircumflex" unicode="&#xdb;" horiz-adv-x="1614" 
d="M1408 419v1237q0 36 -21.5 65t-53.5 29h-21v31h252v-31h-21q-32 0 -53.5 -29t-21.5 -65v-1222q0 -30 11.5 -51t22.5 -27l12 -6q-4 -10 -12 -27.5t-38 -68t-64 -96t-91 -101.5t-119 -96.5t-148 -68t-178 -27.5q-107 0 -207.5 26.5t-176 68.5t-141.5 93t-111 102t-78 93
t-48 68l-15 27q6 4 15 11t24 31t15 49v1222q0 36 -21.5 65t-53.5 29h-21v31h432v-31h-21q-32 0 -53.5 -29t-21.5 -65v-1222q0 -143 62 -264.5t173.5 -194.5t247.5 -73q103 0 202.5 41t174.5 109.5t121 165t46 201.5zM1191 1920l-45 -24l-241 142q-26 16 -46.5 16t-47.5 -16
l-241 -142l-45 24l306 276q27 24 54 0z" />
    <glyph glyph-name="Udieresis" unicode="&#xdc;" horiz-adv-x="1614" 
d="M1408 419v1237q0 36 -21.5 65t-53.5 29h-21v31h252v-31h-21q-32 0 -53.5 -29t-21.5 -65v-1222q0 -30 11.5 -51t22.5 -27l12 -6q-4 -10 -12 -27.5t-38 -68t-64 -96t-91 -101.5t-119 -96.5t-148 -68t-178 -27.5q-107 0 -207.5 26.5t-176 68.5t-141.5 93t-111 102t-78 93
t-48 68l-15 27q6 4 15 11t24 31t15 49v1222q0 36 -21.5 65t-53.5 29h-21v31h432v-31h-21q-32 0 -53.5 -29t-21.5 -65v-1222q0 -143 62 -264.5t173.5 -194.5t247.5 -73q103 0 202.5 41t174.5 109.5t121 165t46 201.5zM764 1896q-38 0 -64 28.5t-26 68.5q0 41 26 69.5t64 28.5
q37 0 63 -28.5t26 -69.5t-26 -69t-63 -28zM998 1896q-38 0 -64 28.5t-26 68.5q0 41 26 69.5t64 28.5q37 0 63 -28.5t26 -69.5t-26 -69t-63 -28z" />
    <glyph glyph-name="Yacute" unicode="&#xdd;" horiz-adv-x="1162" 
d="M797 0h-432v31h21q32 0 53.5 29t21.5 65v670l-472 888q-15 29 -22 40.5t-20 28.5t-27.5 23t-33.5 6h-46v31h507v-31h-53q-39 0 -57.5 -34t-4.5 -61l442 -833l443 833q14 27 -4.5 61t-57.5 34h-53v31h320v-31h-46q-19 0 -33.5 -6t-27.5 -23t-20 -28.5t-22 -40.5l-472 -888
v-670q0 -36 21.5 -65t53.5 -29h21v-31zM852 2033l-82 -42l-242 -65q-41 -10 -53 13.5t21 48.5l202 156l81 40q22 10 44 3t36.5 -28t22 -44t0 -46.5t-29.5 -35.5z" />
    <glyph glyph-name="agrave" unicode="&#xe0;" horiz-adv-x="1377" 
d="M1352 0h-399v31h17q31 0 50 24.5t5 59.5l-140 345h-591l-139 -345q-14 -35 5 -59.5t50 -24.5h17v-31h-227v31h14q61 0 95 84l567 1401l567 -1401q34 -84 95 -84h14v-31zM866 508l-276 681l-276 -681h552zM809 1604l-242 65l-82 42q-22 12 -29.5 35t0 46.5t22 44.5
t36.5 27.5t44 -2.5l81 -40l202 -156q33 -25 21 -48.5t-53 -13.5z" />
    <glyph glyph-name="aacute" unicode="&#xe1;" horiz-adv-x="1377" 
d="M1352 0h-399v31h17q31 0 50 24.5t5 59.5l-140 345h-591l-139 -345q-14 -35 5 -59.5t50 -24.5h17v-31h-227v31h14q61 0 95 84l567 1401l567 -1401q34 -84 95 -84h14v-31zM866 508l-276 681l-276 -681h552zM911 1711l-82 -42l-242 -65q-41 -10 -53 13.5t21 48.5l202 156
l81 40q22 10 44 3t36.5 -28t22 -44t0 -46.5t-29.5 -35.5z" />
    <glyph glyph-name="acircumflex" unicode="&#xe2;" horiz-adv-x="1377" 
d="M1352 0h-399v31h17q31 0 50 24.5t5 59.5l-140 345h-591l-139 -345q-14 -35 5 -59.5t50 -24.5h17v-31h-227v31h14q61 0 95 84l567 1401l567 -1401q34 -84 95 -84h14v-31zM866 508l-276 681l-276 -681h552zM1009 1545l-45 -24l-241 142q-26 16 -46.5 16t-47.5 -16
l-241 -142l-45 24l306 276q27 24 54 0z" />
    <glyph glyph-name="atilde" unicode="&#xe3;" horiz-adv-x="1377" 
d="M1352 0h-399v31h17q31 0 50 24.5t5 59.5l-140 345h-591l-139 -345q-14 -35 5 -59.5t50 -24.5h17v-31h-227v31h14q61 0 95 84l567 1401l567 -1401q34 -84 95 -84h14v-31zM866 508l-276 681l-276 -681h552zM977 1748h27q-2 -6 -7 -16t-23 -35t-39.5 -44.5t-59.5 -35.5
t-81 -16q-55 0 -146 41t-150 41q-37 0 -67 -10.5t-42 -20.5l-12 -11h-29q2 5 7 14.5t24 32.5t42 40.5t62.5 32t84.5 14.5q54 0 146 -35.5t152 -35.5q29 0 57 11t41 22z" />
    <glyph glyph-name="adieresis" unicode="&#xe4;" horiz-adv-x="1377" 
d="M1352 0h-399v31h17q31 0 50 24.5t5 59.5l-140 345h-591l-139 -345q-14 -35 5 -59.5t50 -24.5h17v-31h-227v31h14q61 0 95 84l567 1401l567 -1401q34 -84 95 -84h14v-31zM866 508l-276 681l-276 -681h552zM560 1601q-38 0 -64 28.5t-26 68.5q0 41 26 69.5t64 28.5
q37 0 63 -28.5t26 -69.5t-26 -69t-63 -28zM794 1601q-38 0 -64 28.5t-26 68.5q0 41 26 69.5t64 28.5q37 0 63 -28.5t26 -69.5t-26 -69t-63 -28z" />
    <glyph glyph-name="aring" unicode="&#xe5;" horiz-adv-x="1377" 
d="M1352 0h-399v31h17q31 0 50 24.5t5 59.5l-140 345h-591l-139 -345q-14 -35 5 -59.5t50 -24.5h17v-31h-227v31h14q61 0 95 84l567 1401l567 -1401q34 -84 95 -84h14v-31zM866 508l-276 681l-276 -681h552zM772 1734q0 39 -29 67.5t-69 28.5q-39 0 -65.5 -28.5t-26.5 -67.5
q0 -40 26.5 -67t65.5 -27q41 0 69.5 27t28.5 67zM823 1734q0 -60 -43 -103t-106 -43q-59 0 -101.5 43t-42.5 103q0 61 42.5 104t101.5 43q63 0 106 -42.5t43 -104.5z" />
    <glyph glyph-name="ae" unicode="&#xe6;" horiz-adv-x="1931" 
d="M1841 -27h-31q0 27 -41 27h-842v25h17q26 0 43 23t17 52v360h-570l-246 -351q-25 -40 -17 -62t39 -22h17l-1 -25h-226v25h24q25 0 46 17t50 58l252 360h-123l36 52h124l583 831q21 36 3 59t-51 23h-17v25h800q41 0 41 27h31v-463h-31v17q0 13 -1 32t-7 56.5t-16 73
t-30 74.5t-46.5 68t-68 48t-92.5 19h-311v-610h311q35 0 60.5 16t36 39t16 46.5t5.5 39.5v16h31v-362h-31q-1 0 0 8.5t-1.5 22.5t-5.5 30.5t-12 33.5t-20.5 31t-32 22.5t-46.5 8.5h-311v-696h353q51 0 92.5 19t68 48t46.5 68t30 74.5t16 73t7 56.5t1 32v17h31v-463z
M1004 512v760l-533 -760h533z" />
    <glyph glyph-name="ccedilla" unicode="&#xe7;" horiz-adv-x="1293" 
d="M1228 303l15 -65q-6 -11 -18.5 -28t-57 -62t-95.5 -79t-134 -62t-173 -28q-35 0 -69 3l-11 -46q43 15 99 15q142 0 221 -74t79 -164q0 -95 -84.5 -163t-201.5 -68q-101 0 -180 56.5t-79 145.5q0 83 68.5 135.5t162.5 52.5q47 0 79.5 -25.5t32.5 -68.5q0 -32 -21 -53
t-52 -21q-14 0 -24.5 8t-10.5 20q0 8 5 13t13 5q12 0 17.5 -12.5t15.5 -12.5q19 0 33 15t14 38q0 36 -30 60t-72 24q-68 0 -108 -54t-40 -124q0 -94 52 -142t124 -48q90 0 146.5 63.5t56.5 155.5t-62.5 158.5t-154.5 66.5q-26 0 -50.5 -5t-36.5 -10l-12 -5h-76l20 72
q-111 18 -205.5 67.5t-162.5 119.5t-116 158.5t-71.5 187t-23.5 202.5q0 116 29 224.5t88.5 203.5t143 165.5t200.5 111.5t254 41q77 0 156 -19.5t132.5 -39.5t67.5 -20q23 0 38.5 20t15.5 58h31v-467h-31q0 74 -18 136t-46 104.5t-66 75.5t-76 52t-78.5 31.5t-70.5 16.5
t-55 4q-102 0 -188 -36.5t-147 -101.5t-104 -153t-63.5 -191t-20.5 -216q0 -142 33.5 -267t97 -222t164.5 -153t228 -56q65 0 126 15t106 39.5t84 54t65.5 59t45.5 54t28 39.5z" />
    <glyph glyph-name="egrave" unicode="&#xe8;" horiz-adv-x="1104" 
d="M1014 -27h-31q0 27 -41 27h-842v31h17q26 0 43 23t17 52v1238q0 29 -17 52t-43 23h-17v31h800q41 0 41 27h31v-463h-31v17q0 13 -1 32t-7 56.5t-16 73t-30 74.5t-46.5 68t-68 48t-92.5 19h-311v-610h311q35 0 60.5 16t36 39t16 46.5t5.5 39.5v16h31v-362h-31q-1 0 0 8.5
t-1.5 22.5t-5.5 30.5t-12 33.5t-20.5 31t-32 22.5t-46.5 8.5h-311v-696h353q51 0 92.5 19t68 48t46.5 68t30 74.5t16 73t7 56.5t1 32v17h31v-463zM669 1554l-242 65l-82 42q-22 12 -29.5 35t0 46.5t22 44.5t36.5 27.5t44 -2.5l81 -40l202 -156q33 -25 21 -48.5t-53 -13.5z
" />
    <glyph glyph-name="eacute" unicode="&#xe9;" horiz-adv-x="1104" 
d="M1014 -27h-31q0 27 -41 27h-842v31h17q26 0 43 23t17 52v1238q0 29 -17 52t-43 23h-17v31h800q41 0 41 27h31v-463h-31v17q0 13 -1 32t-7 56.5t-16 73t-30 74.5t-46.5 68t-68 48t-92.5 19h-311v-610h311q35 0 60.5 16t36 39t16 46.5t5.5 39.5v16h31v-362h-31q-1 0 0 8.5
t-1.5 22.5t-5.5 30.5t-12 33.5t-20.5 31t-32 22.5t-46.5 8.5h-311v-696h353q51 0 92.5 19t68 48t46.5 68t30 74.5t16 73t7 56.5t1 32v17h31v-463zM746 1661l-82 -42l-242 -65q-41 -10 -53 13.5t21 48.5l202 156l81 40q22 10 44 3t36.5 -28t22 -44t0 -46.5t-29.5 -35.5z" />
    <glyph glyph-name="ecircumflex" unicode="&#xea;" horiz-adv-x="1104" 
d="M1014 -27h-31q0 27 -41 27h-842v31h17q26 0 43 23t17 52v1238q0 29 -17 52t-43 23h-17v31h800q41 0 41 27h31v-463h-31v17q0 13 -1 32t-7 56.5t-16 73t-30 74.5t-46.5 68t-68 48t-92.5 19h-311v-610h311q35 0 60.5 16t36 39t16 46.5t5.5 39.5v16h31v-362h-31q-1 0 0 8.5
t-1.5 22.5t-5.5 30.5t-12 33.5t-20.5 31t-32 22.5t-46.5 8.5h-311v-696h353q51 0 92.5 19t68 48t46.5 68t30 74.5t16 73t7 56.5t1 32v17h31v-463zM887 1575l-45 -24l-241 142q-26 16 -46.5 16t-47.5 -16l-241 -142l-45 24l306 276q27 24 54 0z" />
    <glyph glyph-name="edieresis" unicode="&#xeb;" horiz-adv-x="1104" 
d="M1014 -27h-31q0 27 -41 27h-842v31h17q26 0 43 23t17 52v1238q0 29 -17 52t-43 23h-17v31h800q41 0 41 27h31v-463h-31v17q0 13 -1 32t-7 56.5t-16 73t-30 74.5t-46.5 68t-68 48t-92.5 19h-311v-610h311q35 0 60.5 16t36 39t16 46.5t5.5 39.5v16h31v-362h-31q-1 0 0 8.5
t-1.5 22.5t-5.5 30.5t-12 33.5t-20.5 31t-32 22.5t-46.5 8.5h-311v-696h353q51 0 92.5 19t68 48t46.5 68t30 74.5t16 73t7 56.5t1 32v17h31v-463zM441 1551q-38 0 -64 28.5t-26 68.5q0 41 26 69.5t64 28.5q37 0 63 -28.5t26 -69.5t-26 -69t-63 -28zM675 1551q-38 0 -64 28.5
t-26 68.5q0 41 26 69.5t64 28.5q37 0 63 -28.5t26 -69.5t-26 -69t-63 -28z" />
    <glyph glyph-name="igrave" unicode="&#xec;" horiz-adv-x="619" 
d="M519 0h-346v31h17q26 0 43 23t17 52v1238q0 29 -17 52t-43 23h-17v31h346v-31h-17q-26 0 -43 -23t-17 -52v-1238q0 -29 17 -52t43 -23h17v-31zM457 1554l-242 65l-82 42q-22 12 -29.5 35t0 46.5t22 44.5t36.5 27.5t44 -2.5l81 -40l202 -156q33 -25 21 -48.5t-53 -13.5z
" />
    <glyph glyph-name="iacute" unicode="&#xed;" horiz-adv-x="546" 
d="M446 0h-346v31h17q26 0 43 23t17 52v1238q0 29 -17 52t-43 23h-17v31h346v-31h-17q-26 0 -43 -23t-17 -52v-1238q0 -29 17 -52t43 -23h17v-31zM486 1661l-82 -42l-242 -65q-41 -10 -53 13.5t21 48.5l202 156l81 40q22 10 44 3t36.5 -28t22 -44t0 -46.5t-29.5 -35.5z" />
    <glyph glyph-name="icircumflex" unicode="&#xee;" horiz-adv-x="706" 
d="M606 0h-346v31h17q26 0 43 23t17 52v1238q0 29 -17 52t-43 23h-17v31h346v-31h-17q-26 0 -43 -23t-17 -52v-1238q0 -29 17 -52t43 -23h17v-31zM766 1575l-45 -24l-241 142q-26 16 -46.5 16t-47.5 -16l-241 -142l-45 24l306 276q27 24 54 0z" />
    <glyph glyph-name="idieresis" unicode="&#xef;" horiz-adv-x="579" 
d="M479 0h-346v31h17q26 0 43 23t17 52v1238q0 29 -17 52t-43 23h-17v31h346v-31h-17q-26 0 -43 -23t-17 -52v-1238q0 -29 17 -52t43 -23h17v-31zM190 1551q-38 0 -64 28.5t-26 68.5q0 41 26 69.5t64 28.5q37 0 63 -28.5t26 -69.5t-26 -69t-63 -28zM424 1551q-38 0 -64 28.5
t-26 68.5q0 41 26 69.5t64 28.5q37 0 63 -28.5t26 -69.5t-26 -69t-63 -28z" />
    <glyph glyph-name="eth" unicode="&#xf0;" horiz-adv-x="1417" 
d="M653 0h-454v31h17q25 0 42.5 21.5t17.5 48.5v697h-176l30 72h146v479q0 27 -17.5 48.5t-42.5 21.5h-17v31h454q137 0 253.5 -39.5t200.5 -108.5t143 -161t88 -197.5t29 -218.5t-29 -218.5t-88 -197.5t-143 -161t-200.5 -108.5t-253.5 -39.5zM468 52h155q106 0 198 41
t157 109t112 156t69.5 181.5t22.5 185.5t-22.5 185.5t-69.5 181.5t-112 156t-157 109t-198 41h-155v-528h390l-30 -72h-360v-746z" />
    <glyph glyph-name="ntilde" unicode="&#xf1;" horiz-adv-x="1376" 
d="M1199 -44l-974 1269v-1119q0 -29 17 -52t43 -23h17v-31h-202v31h17q26 0 43 23t17 52v1238q0 29 -17 52t-43 23h-17v31h218l833 -1086v980q0 29 -17 52t-43 23h-16v31h201v-31h-17q-26 0 -43 -23t-17 -52v-1388zM989 1668h27q-2 -6 -7 -16t-23 -35t-39.5 -44.5
t-59.5 -35.5t-81 -16q-55 0 -146 41t-150 41q-37 0 -67 -10.5t-42 -20.5l-12 -11h-29q2 5 7 14.5t24 32.5t42 40.5t62.5 32t84.5 14.5q54 0 146 -35.5t152 -35.5q29 0 57 11t41 22z" />
    <glyph glyph-name="ograve" unicode="&#xf2;" 
d="M765 -21q-137 0 -254 41t-200.5 111.5t-143 165.5t-88.5 203.5t-29 224.5t29 224.5t88.5 203.5t143 165.5t200.5 111.5t254 41t254 -41t200.5 -111.5t143 -165.5t88.5 -203.5t29 -224.5t-29 -224.5t-88.5 -203.5t-143 -165.5t-200.5 -111.5t-254 -41zM791 27
q122 0 219.5 52t158.5 140.5t93.5 201t32.5 237.5q0 146 -36 281t-103 244t-174 174.5t-239 65.5q-122 0 -219.5 -52t-158.5 -140.5t-93.5 -201t-32.5 -237.5q0 -146 36 -281t103 -244t174 -174.5t239 -65.5zM899 1564l-242 65l-82 42q-22 12 -29.5 35t0 46.5t22 44.5
t36.5 27.5t44 -2.5l81 -40l202 -156q33 -25 21 -48.5t-53 -13.5z" />
    <glyph glyph-name="oacute" unicode="&#xf3;" 
d="M765 -21q-137 0 -254 41t-200.5 111.5t-143 165.5t-88.5 203.5t-29 224.5t29 224.5t88.5 203.5t143 165.5t200.5 111.5t254 41t254 -41t200.5 -111.5t143 -165.5t88.5 -203.5t29 -224.5t-29 -224.5t-88.5 -203.5t-143 -165.5t-200.5 -111.5t-254 -41zM791 27
q122 0 219.5 52t158.5 140.5t93.5 201t32.5 237.5q0 146 -36 281t-103 244t-174 174.5t-239 65.5q-122 0 -219.5 -52t-158.5 -140.5t-93.5 -201t-32.5 -237.5q0 -146 36 -281t103 -244t174 -174.5t239 -65.5zM976 1671l-82 -42l-242 -65q-41 -10 -53 13.5t21 48.5l202 156
l81 40q22 10 44 3t36.5 -28t22 -44t0 -46.5t-29.5 -35.5z" />
    <glyph glyph-name="ocircumflex" unicode="&#xf4;" 
d="M765 -21q-137 0 -254 41t-200.5 111.5t-143 165.5t-88.5 203.5t-29 224.5t29 224.5t88.5 203.5t143 165.5t200.5 111.5t254 41t254 -41t200.5 -111.5t143 -165.5t88.5 -203.5t29 -224.5t-29 -224.5t-88.5 -203.5t-143 -165.5t-200.5 -111.5t-254 -41zM791 27
q122 0 219.5 52t158.5 140.5t93.5 201t32.5 237.5q0 146 -36 281t-103 244t-174 174.5t-239 65.5q-122 0 -219.5 -52t-158.5 -140.5t-93.5 -201t-32.5 -237.5q0 -146 36 -281t103 -244t174 -174.5t239 -65.5zM1098 1545l-45 -24l-241 142q-26 16 -46.5 16t-47.5 -16
l-241 -142l-45 24l306 276q27 24 54 0z" />
    <glyph glyph-name="otilde" unicode="&#xf5;" 
d="M765 -21q-137 0 -254 41t-200.5 111.5t-143 165.5t-88.5 203.5t-29 224.5t29 224.5t88.5 203.5t143 165.5t200.5 111.5t254 41t254 -41t200.5 -111.5t143 -165.5t88.5 -203.5t29 -224.5t-29 -224.5t-88.5 -203.5t-143 -165.5t-200.5 -111.5t-254 -41zM791 27
q122 0 219.5 52t158.5 140.5t93.5 201t32.5 237.5q0 146 -36 281t-103 244t-174 174.5t-239 65.5q-122 0 -219.5 -52t-158.5 -140.5t-93.5 -201t-32.5 -237.5q0 -146 36 -281t103 -244t174 -174.5t239 -65.5zM1066 1708h27q-2 -6 -7 -16t-23 -35t-39.5 -44.5t-59.5 -35.5
t-81 -16q-55 0 -146 41t-150 41q-37 0 -67 -10.5t-42 -20.5l-12 -11h-29q2 5 7 14.5t24 32.5t42 40.5t62.5 32t84.5 14.5q53 0 146 -35.5t152 -35.5q29 0 57 11t41 22z" />
    <glyph glyph-name="odieresis" unicode="&#xf6;" 
d="M765 -21q-137 0 -254 41t-200.5 111.5t-143 165.5t-88.5 203.5t-29 224.5t29 224.5t88.5 203.5t143 165.5t200.5 111.5t254 41t254 -41t200.5 -111.5t143 -165.5t88.5 -203.5t29 -224.5t-29 -224.5t-88.5 -203.5t-143 -165.5t-200.5 -111.5t-254 -41zM791 27
q122 0 219.5 52t158.5 140.5t93.5 201t32.5 237.5q0 146 -36 281t-103 244t-174 174.5t-239 65.5q-122 0 -219.5 -52t-158.5 -140.5t-93.5 -201t-32.5 -237.5q0 -146 36 -281t103 -244t174 -174.5t239 -65.5zM649 1561q-38 0 -64 28.5t-26 68.5q0 41 26 69.5t64 28.5
q37 0 63 -28.5t26 -69.5t-26 -69t-63 -28zM883 1561q-38 0 -64 28.5t-26 68.5q0 41 26 69.5t64 28.5q37 0 63 -28.5t26 -69.5t-26 -69t-63 -28z" />
    <glyph glyph-name="oslash" unicode="&#xf8;" 
d="M545 -110h-50l36 124q-153 48 -264 158t-164 252t-53 301q0 145 46.5 277.5t134 237.5t226 167.5t308.5 62.5q97 0 188 -22l33 112h50l-37 -125q116 -36 208 -108.5t151.5 -167t90.5 -205.5t31 -229q0 -145 -46.5 -277.5t-134 -237.5t-226 -167.5t-308.5 -62.5
q-93 0 -187 21zM977 1360l-380 -1292q91 -41 194 -41q122 0 219.5 52t158.5 140.5t93.5 201t32.5 237.5q0 226 -83 419t-235 283zM554 91l380 1292q-88 40 -191 40q-122 0 -219.5 -52t-158.5 -140.5t-93.5 -201t-32.5 -237.5q0 -226 82 -418.5t233 -282.5z" />
    <glyph glyph-name="ugrave" unicode="&#xf9;" horiz-adv-x="1273" 
d="M1083 453v891q0 29 -17 52t-43 23h-17v31h202v-31h-17q-26 0 -43 -23t-17 -52v-901q0 -122 -46 -226t-141.5 -171t-223.5 -67q-134 0 -239.5 35t-170.5 96.5t-99 139.5t-34 169v925q0 29 -17 52t-43 23h-17v31h346v-31h-17q-26 0 -43 -23t-17 -52v-925q0 -177 96 -284.5
t255 -107.5q170 0 266.5 121t96.5 305zM809 1564l-242 65l-82 42q-22 12 -29.5 35t0 46.5t22 44.5t36.5 27.5t44 -2.5l81 -40l202 -156q33 -25 21 -48.5t-53 -13.5z" />
    <glyph glyph-name="uacute" unicode="&#xfa;" horiz-adv-x="1273" 
d="M1083 453v891q0 29 -17 52t-43 23h-17v31h202v-31h-17q-26 0 -43 -23t-17 -52v-901q0 -122 -46 -226t-141.5 -171t-223.5 -67q-134 0 -239.5 35t-170.5 96.5t-99 139.5t-34 169v925q0 29 -17 52t-43 23h-17v31h346v-31h-17q-26 0 -43 -23t-17 -52v-925q0 -177 96 -284.5
t255 -107.5q170 0 266.5 121t96.5 305zM954 1671l-82 -42l-242 -65q-41 -10 -53 13.5t21 48.5l202 156l81 40q22 10 44 3t36.5 -28t22 -44t0 -46.5t-29.5 -35.5z" />
    <glyph glyph-name="ucircumflex" unicode="&#xfb;" horiz-adv-x="1273" 
d="M1083 453v891q0 29 -17 52t-43 23h-17v31h202v-31h-17q-26 0 -43 -23t-17 -52v-901q0 -122 -46 -226t-141.5 -171t-223.5 -67q-134 0 -239.5 35t-170.5 96.5t-99 139.5t-34 169v925q0 29 -17 52t-43 23h-17v31h346v-31h-17q-26 0 -43 -23t-17 -52v-925q0 -177 96 -284.5
t255 -107.5q170 0 266.5 121t96.5 305zM1033 1585l-45 -24l-241 142q-26 16 -46.5 16t-47.5 -16l-241 -142l-45 24l306 276q27 24 54 0z" />
    <glyph glyph-name="udieresis" unicode="&#xfc;" horiz-adv-x="1273" 
d="M1083 453v891q0 29 -17 52t-43 23h-17v31h202v-31h-17q-26 0 -43 -23t-17 -52v-901q0 -122 -46 -226t-141.5 -171t-223.5 -67q-134 0 -239.5 35t-170.5 96.5t-99 139.5t-34 169v925q0 29 -17 52t-43 23h-17v31h346v-31h-17q-26 0 -43 -23t-17 -52v-925q0 -177 96 -284.5
t255 -107.5q170 0 266.5 121t96.5 305zM612 1561q-38 0 -64 28.5t-26 68.5q0 41 26 69.5t64 28.5q37 0 63 -28.5t26 -69.5t-26 -69t-63 -28zM846 1561q-38 0 -64 28.5t-26 68.5q0 41 26 69.5t64 28.5q37 0 63 -28.5t26 -69.5t-26 -69t-63 -28z" />
    <glyph glyph-name="yacute" unicode="&#xfd;" horiz-adv-x="1276" 
d="M811 0h-346v31h17q26 0 43 23t17 52v528l-375 706q-16 29 -24.5 42.5t-24.5 25t-36 11.5h-37v31h422v-31h-42q-31 0 -44.5 -27.5t-2.5 -48.5l337 -635l339 635q11 21 -2.5 48.5t-44.5 27.5h-42v31h266v-31h-37q-28 0 -45 -18t-40 -61l-375 -706v-528q0 -29 17 -52t43 -23
h17v-31zM904 1671l-82 -42l-242 -65q-41 -10 -53 13.5t21 48.5l202 156l81 40q22 10 44 3t36.5 -28t22 -44t0 -46.5t-29.5 -35.5z" />
    <glyph glyph-name="ydieresis" unicode="&#xff;" horiz-adv-x="1276" 
d="M811 0h-346v31h17q26 0 43 23t17 52v528l-375 706q-16 29 -24.5 42.5t-24.5 25t-36 11.5h-37v31h422v-31h-42q-31 0 -44.5 -27.5t-2.5 -48.5l337 -635l339 635q11 21 -2.5 48.5t-44.5 27.5h-42v31h266v-31h-37q-28 0 -45 -18t-40 -61l-375 -706v-528q0 -29 17 -52t43 -23
h17v-31zM561 1561q-38 0 -64 28.5t-26 68.5q0 41 26 69.5t64 28.5q37 0 63 -28.5t26 -69.5t-26 -69t-63 -28zM795 1561q-38 0 -64 28.5t-26 68.5q0 41 26 69.5t64 28.5q37 0 63 -28.5t26 -69.5t-26 -69t-63 -28z" />
    <glyph glyph-name="OE" unicode="&#x152;" horiz-adv-x="4002" 
d="M3375 1407h-23q-1 239 -93.5 370.5t-256.5 131.5q-53 0 -107.5 -20t-102.5 -58.5t-78.5 -104t-30.5 -146.5q0 -69 21.5 -127t42.5 -81l21 -24q14 6 38 14.5t91 22.5t127 14q108 0 182.5 -26.5t73.5 -65.5q-1 -40 -71.5 -69t-190.5 -29q-80 0 -152 13.5t-104 27.5l-32 13
q-8 -4 -20.5 -12.5t-50 -40t-71.5 -68.5t-75.5 -100t-71 -133t-50 -168.5t-20.5 -206.5q0 -230 90 -409.5t258 -281t388 -101.5q120 0 218.5 32.5t168 90.5t116.5 138t69.5 173.5t22.5 199.5q0 64 -12 128t-36.5 128t-65.5 118.5t-94.5 97t-128.5 66.5t-163 24
q-172 0 -289 -120.5t-117 -321.5q0 -184 100.5 -302.5t257.5 -118.5q121 0 206.5 69t85.5 173q0 67 -39.5 110t-91.5 43q-22 0 -33.5 -11.5t-14.5 -25t-15.5 -25t-35.5 -11.5q-22 0 -37 15.5t-15 38.5q0 34 31 57t72 23q88 0 150 -60.5t62 -153.5q0 -126 -96 -200.5
t-229 -74.5q-93 0 -182 29.5t-163 84.5t-119.5 143.5t-45.5 196.5q0 97 37 178t96 134.5t134 91.5t148.5 54.5t142.5 16.5q148 0 283.5 -44.5t236 -122t160.5 -189.5t60 -239q0 -135 -58.5 -256.5t-164 -213.5t-264.5 -146.5t-348 -54.5q-323 0 -576 152t-350 404
q-161 -210 -413 -333t-542 -123q-159 0 -310 38.5t-279 107.5t-235.5 167.5t-182.5 216t-117 256t-42 284.5q0 175 59 338.5t166.5 295t251 230.5t321.5 153t368 54q201 0 390.5 -63t340 -173.5t259 -268t150.5 -339.5q62 64 135 116.5t115 73.5l41 20q-5 3 -13.5 10
t-30.5 31.5t-38.5 53t-30 75.5t-13.5 98q0 148 136.5 257t334.5 109q66 0 148.5 -17t114.5 -17q87 0 87 84h23v-589zM2040 1263q-20 -97 -81 -180.5t-144 -138t-178 -85.5t-186 -31q-160 0 -269.5 84t-109.5 218q0 101 57.5 166.5t144.5 65.5q43 0 77 -24.5t34 -60.5
q0 -25 -16.5 -41t-40.5 -16t-37.5 12t-16.5 27t-15.5 27t-35.5 12q-53 0 -83 -50.5t-30 -117.5q0 -108 94.5 -186t246.5 -78q114 0 211 59.5t157 172t60 254.5q0 106 -42 197.5t-112 156.5t-160.5 111.5t-189.5 69t-198 22.5q-155 0 -294.5 -52t-244.5 -144t-182 -213.5
t-116.5 -265t-39.5 -294.5q0 -143 36.5 -283.5t100.5 -262t156.5 -225t200.5 -176.5t235.5 -113t258.5 -38q121 2 235 40t208.5 103.5t173.5 157t133 198t84 229t30 248.5q0 89 -15 178.5t-36 154t-42 116t-36 77.5l-15 26q15 -39 23 -66t9 -34v-7zM3184 1308q0 26 -48 40
t-112 14q-60 0 -114 -14t-78 -28l-25 -14q8 -7 24 -17t70.5 -26.5t116.5 -16.5q65 0 115.5 17.5t50.5 44.5z" />
    <glyph glyph-name="oe" unicode="&#x153;" horiz-adv-x="2217" 
d="M2127 -27h-31q0 27 -41 27h-837v25h17q26 0 43 23t17 52v105q-199 -225 -530 -225q-170 0 -308.5 62.5t-226 167.5t-134 237.5t-46.5 277.5t46.5 277.5t134 237.5t226 167.5t308.5 62.5q331 0 530 -225v105q0 29 -17 52t-43 23h-17v25h795q41 0 41 27h31v-463h-31v17
q0 13 -1 32t-7 56.5t-16 73t-30 74.5t-46.5 68t-68 48t-92.5 19h-306v-610h305q35 0 60.5 16t36 39t16 46.5t5.5 39.5v16h31v-362h-31q-1 0 0 8.5t-1.5 22.5t-5.5 30.5t-12 33.5t-20.5 31t-32 22.5t-46.5 8.5h-305v-696h348q51 0 92.5 19t68 48t46.5 68t30 74.5t16 73
t7 56.5t1 32v17h31v-463zM791 27q122 0 219.5 52t158.5 140.5t93.5 201t32.5 237.5q0 146 -36 281t-103 244t-174 174.5t-239 65.5q-122 0 -219.5 -52t-158.5 -140.5t-93.5 -201t-32.5 -237.5q0 -146 36 -281t103 -244t174 -174.5t239 -65.5z" />
    <glyph glyph-name="Ydieresis" unicode="&#x178;" horiz-adv-x="1162" 
d="M797 0h-432v31h21q32 0 53.5 29t21.5 65v670l-472 888q-15 29 -22 40.5t-20 28.5t-27.5 23t-33.5 6h-46v31h507v-31h-53q-39 0 -57.5 -34t-4.5 -61l442 -833l443 833q14 27 -4.5 61t-57.5 34h-53v31h320v-31h-46q-19 0 -33.5 -6t-27.5 -23t-20 -28.5t-22 -40.5l-472 -888
v-670q0 -36 21.5 -65t53.5 -29h21v-31zM493 1896q-38 0 -64 28.5t-26 68.5q0 41 26 69.5t64 28.5q37 0 63 -28.5t26 -69.5t-26 -69t-63 -28zM727 1896q-38 0 -64 28.5t-26 68.5q0 41 26 69.5t64 28.5q37 0 63 -28.5t26 -69.5t-26 -69t-63 -28z" />
    <glyph glyph-name="circumflex" unicode="&#x2c6;" horiz-adv-x="716" 
d="M691 1920l-45 -24l-241 142q-26 16 -46.5 16t-47.5 -16l-241 -142l-45 24l306 276q27 24 54 0z" />
    <glyph glyph-name="ring" unicode="&#x2da;" horiz-adv-x="343" 
d="M267 2087q0 39 -29 67.5t-69 28.5q-39 0 -65.5 -28.5t-26.5 -67.5q0 -40 26.5 -67t65.5 -27q41 0 69.5 27t28.5 67zM318 2087q0 -60 -43 -103t-106 -43q-59 0 -101.5 43t-42.5 103q0 61 42.5 104t101.5 43q63 0 106 -42.5t43 -104.5z" />
    <glyph glyph-name="tilde" unicode="&#x2dc;" horiz-adv-x="644" 
d="M595 2054h24q-2 -6 -6.5 -15.5t-20.5 -34.5t-36 -44t-54 -34.5t-73 -15.5q-50 0 -132.5 40t-135.5 40q-33 0 -60.5 -10t-38.5 -20l-11 -11h-26q2 5 6.5 14t22 31.5t38 40t56 31.5t76.5 14q49 0 132.5 -34.5t137.5 -34.5q27 0 52 10.5t37 21.5z" />
    <glyph glyph-name="quoteleft" unicode="&#x2018;" horiz-adv-x="312" 
d="M223 1471l24 -12q-9 -7 -22.5 -19t-39 -46.5t-31.5 -66.5q38 0 64 -28.5t26 -68.5q0 -41 -26 -69.5t-64 -28.5q-39 0 -64 28.5t-25 76.5q0 36 16.5 73.5t39.5 65t46 50t39 34.5z" />
    <glyph glyph-name="quoteright" unicode="&#x2019;" horiz-adv-x="312" 
d="M89 1132l-24 12q9 7 22.5 19t39 46.5t31.5 66.5q-38 0 -64 28.5t-26 68.5q0 41 26 69.5t64 28.5q39 0 64 -28.5t25 -76.5q0 -36 -16.5 -73.5t-39.5 -65t-46 -50t-39 -33.5z" />
    <glyph glyph-name="quotesinglbase" unicode="&#x201a;" horiz-adv-x="207" 
d="M49 -156l-24 12q9 7 22.5 19t39 46.5t31.5 66.5q-38 0 -64 28.5t-26 68.5q0 41 26 69.5t64 28.5q39 0 64 -28.5t25 -76.5q0 -36 -16.5 -73.5t-39.5 -65t-46 -50t-39 -33.5z" />
    <glyph glyph-name="quotedblleft" unicode="&#x201c;" horiz-adv-x="522" 
d="M433 1471l24 -12q-9 -7 -22.5 -19t-39 -46.5t-31.5 -66.5q38 0 64 -28.5t26 -68.5q0 -41 -26 -69.5t-64 -28.5q-39 0 -64 28.5t-25 76.5q0 36 16.5 73.5t39.5 65t46 50t39 34.5zM223 1471l24 -12q-9 -7 -22.5 -19t-39 -46.5t-31.5 -66.5q38 0 64 -28.5t26 -68.5
q0 -41 -26 -69.5t-64 -28.5q-39 0 -64 28.5t-25 76.5q0 36 16.5 73.5t39.5 65t46 50t39 34.5z" />
    <glyph glyph-name="quotedblright" unicode="&#x201d;" horiz-adv-x="522" 
d="M89 1132l-24 12q9 7 22.5 19t39 46.5t31.5 66.5q-38 0 -64 28.5t-26 68.5q0 41 26 69.5t64 28.5q39 0 64 -28.5t25 -76.5q0 -36 -16.5 -73.5t-39.5 -65t-46 -50t-39 -33.5zM299 1132l-24 12q9 7 22.5 19t39 46.5t31.5 66.5q-38 0 -64 28.5t-26 68.5q0 41 26 69.5t64 28.5
q39 0 64 -28.5t25 -76.5q0 -36 -16.5 -73.5t-39.5 -65t-46 -50t-39 -33.5z" />
    <glyph glyph-name="quotedblbase" unicode="&#x201e;" horiz-adv-x="417" 
d="M259 -156l-24 12q9 7 22.5 19t39 46.5t31.5 66.5q-38 0 -64 28.5t-26 68.5q0 41 26 69.5t64 28.5q39 0 64 -28.5t25 -76.5q0 -36 -16.5 -73.5t-39.5 -65t-46 -50t-39 -33.5zM49 -156l-24 12q9 7 22.5 19t39 46.5t31.5 66.5q-38 0 -64 28.5t-26 68.5q0 41 26 69.5t64 28.5
q39 0 64 -28.5t25 -76.5q0 -36 -16.5 -73.5t-39.5 -65t-46 -50t-39 -33.5z" />
    <glyph glyph-name="bullet" unicode="&#x2022;" horiz-adv-x="307" 
d="M154 567q-54 0 -91.5 40.5t-37.5 98.5q0 59 37.5 100t91.5 41t91 -41t37 -100q0 -58 -37 -98.5t-91 -40.5z" />
    <glyph glyph-name="Euro" unicode="&#x20ac;" horiz-adv-x="2484" 
d="M2436 329l13 -28q-5 -10 -15 -28t-49 -69.5t-86.5 -98.5t-130 -104t-176.5 -98.5t-229.5 -69.5t-285.5 -28q-279 0 -523.5 113t-407.5 310.5t-214 442.5h-272l30 72h229q-5 39 -7 88h-252l30 72h221q4 143 48 278.5t120 249.5t183.5 210t234 163t275.5 104.5t305 37.5
q231 0 417 -74t295.5 -216t109.5 -328q0 -106 -40.5 -198.5t-108 -157.5t-154 -112.5t-179.5 -70t-183 -22.5q-69 0 -139 16.5t-136.5 52.5t-117.5 86t-82.5 123.5t-31.5 159.5q0 173 116 278t281 105q130 0 229.5 -79t99.5 -196q0 -93 -64 -153.5t-152 -60.5q-41 0 -72 23
t-31 57q0 23 15 38.5t37 15.5q23 0 35.5 -11.5t15.5 -25t14.5 -25t33.5 -11.5q52 0 91.5 43t39.5 110q0 100 -84.5 169t-207.5 69q-158 0 -259 -102t-101 -244q0 -162 135 -281.5t335 -119.5q93 0 177 32.5t151.5 95t108 165t40.5 231.5q0 170 -82.5 303t-227 205.5
t-324.5 72.5q-188 0 -354.5 -69.5t-292 -196.5t-200.5 -318.5t-79 -421.5h445l-30 -72h-414q2 -60 5 -88h439l-30 -72h-400q29 -192 111.5 -349.5t203.5 -262t273.5 -161t322.5 -56.5q451 0 755 251q129 107 198 226z" />
    <glyph glyph-name="ampalt" horiz-adv-x="3119" 
d="M1144 1350h-21q-1 238 -84.5 368t-232.5 130q-33 0 -67 -8.5t-72 -31.5t-66.5 -58.5t-47.5 -96.5t-19 -138q0 -67 15.5 -123.5t30.5 -79.5l16 -24q12 6 34 14t82.5 22t114.5 14q98 0 165.5 -26t66.5 -65q-1 -41 -64.5 -70t-172.5 -29q-73 0 -138 13.5t-94 26.5l-29 14
q-5 -3 -14.5 -9t-36.5 -29.5t-52 -52t-55 -78.5t-51.5 -107t-36.5 -139t-15 -173q0 -95 25.5 -194.5t78 -192t124 -165t171 -116.5t211.5 -44q105 0 192 38.5t144 100.5t96.5 143.5t57 164.5t17.5 167q0 67 -14 135t-45 134t-74.5 117t-107.5 82.5t-139 31.5
q-135 0 -217.5 -87t-82.5 -220q0 -128 68.5 -202t169.5 -74q97 0 157.5 57t60.5 144q0 63 -31.5 106.5t-78.5 43.5q-22 0 -33.5 -12.5t-14.5 -27.5t-15.5 -27.5t-35.5 -12.5q-22 0 -37 15.5t-15 39.5q0 36 32.5 59.5t77.5 23.5q80 0 133.5 -59.5t53.5 -148.5
q0 -102 -70.5 -170t-183.5 -68q-158 0 -255 93.5t-97 219.5q0 84 37.5 150t100.5 108.5t145 76.5t173 58.5t181.5 48.5t172.5 53.5t145 66.5t100.5 93.5t37.5 129.5q0 98 -53 158.5t-143 60.5q-82 0 -138.5 -51.5t-56.5 -129.5q0 -54 30 -95.5t72 -41.5q16 0 25 8.5
t11.5 18.5t11.5 18.5t26 8.5t28 -11t11 -28q0 -25 -23.5 -42.5t-52.5 -17.5q-74 0 -122 53.5t-48 128.5q0 91 66.5 150.5t159.5 59.5q58 0 105.5 -16t78.5 -42t52.5 -59t30.5 -66t9 -65q0 -51 -23 -96.5t-59 -80t-91.5 -66.5t-109.5 -54t-124 -45t-124.5 -37.5t-121.5 -32.5
t-105 -30q105 0 217 -35t212.5 -90.5t204 -122.5t209 -134.5t209.5 -123t222.5 -90t232.5 -34.5q54 0 106.5 11t105.5 38t93 66.5t65 101.5t25 139q0 131 -76.5 223.5t-205.5 92.5q-112 0 -190 -66t-78 -165q0 -83 59.5 -145t151.5 -62q72 0 122 42t50 102q0 42 -22 70
t-55 28q-15 0 -23 -8t-10.5 -17.5t-11 -17.5t-24.5 -8q-15 0 -26 12t-11 29q0 27 20.5 45t59.5 18q61 0 101 -43.5t40 -107.5q0 -82 -64.5 -130t-145.5 -48q-97 0 -173 69.5t-76 171.5q0 77 46 140t115.5 95.5t144.5 32.5q103 0 195.5 -47t149 -128.5t56.5 -177.5
q0 -71 -38.5 -141.5t-104.5 -126.5t-163.5 -90.5t-207.5 -34.5q-88 0 -182.5 23t-173 55t-178 87t-167 98t-172 111.5t-163.5 104.5q148 -150 148 -348q0 -150 -59.5 -274t-162 -206t-238 -126.5t-287.5 -44.5q-179 0 -337.5 60t-270.5 161t-177 239.5t-65 290.5
q0 95 24 181.5t62.5 148.5t84.5 115t92.5 87.5t85 58.5t62.5 35l24 10q-5 3 -12.5 9.5t-27 29t-34.5 48.5t-27.5 68.5t-12.5 89.5q0 71 29.5 139.5t82.5 124t136 90t181 34.5q60 0 133 -17t102 -17q27 0 44 12.5t23.5 36t8.5 41.5t2 46h21v-637zM972 1248q0 26 -43.5 39.5
t-101.5 13.5q-54 0 -103 -13.5t-71 -27.5l-22 -14q7 -7 21.5 -17t64 -27t105.5 -17q58 0 104 18t46 45z" />
    <glyph glyph-name="jalt" horiz-adv-x="608" 
d="M62 -200l-7 25q63 27 108.5 73.5t68 102.5t32.5 109t10 108v1126q0 29 -17 52t-43 23h-17v31h346v-31h-17q-26 0 -43 -23t-17 -52v-929q0 -467 -404 -615z" />
    <glyph glyph-name="nalt.001" horiz-adv-x="1376" 
d="M1199 -48h-40q-1 100 -46.5 197.5t-119.5 180.5t-164.5 165t-186 166.5t-179 169t-148.5 187t-90 206.5v-1118q0 -29 17 -52t43 -23h17v-31h-202v31h17q26 0 43 23t17 52v1243q0 27 -17.5 48.5t-42.5 21.5h-17v31h191q25 -105 78 -197.5t120 -163.5t144 -137t155.5 -132
t148 -134t127 -157.5t87.5 -189.5v1005q0 29 -17 52t-43 23h-16v31h201v-31h-17q-26 0 -43 -23t-17 -52v-1392z" />
    <glyph glyph-name="nalt.002" horiz-adv-x="1376" 
d="M1276 0h-191q-38 123 -100 231t-131.5 188t-146.5 154t-151.5 144t-139 143t-115.5 166t-76 198v-1118q0 -29 17 -52t43 -23h17v-31h-202v31h17q26 0 43 23t17 52v1243q0 27 -17.5 48.5t-42.5 21.5h-17v31h191q25 -105 76 -198t115.5 -166t139 -143t151.5 -144
t146.5 -154t131.5 -188t100 -231v1118q0 29 -17 52t-43 23h-16v31h201v-31h-17q-26 0 -43 -23t-17 -52v-1238q0 -29 17 -52t43 -23h17v-31z" />
    <glyph glyph-name="Aalt" horiz-adv-x="2227" 
d="M1851 0h-511v31h21q40 0 64.5 30.5t6.5 74.5l-291 688q-142 -14 -275 -71t-225 -128t-168 -154t-115.5 -143t-57.5 -102l-38 -90q-18 -44 6.5 -74.5t64.5 -30.5h21v-31h-309v31h30q37 0 62 18.5t49 75.5l762 1804l450 -1067q115 -19 228 -65t213 -118t176.5 -160.5
t121.5 -200.5t45 -230q0 -122 -47.5 -233t-130 -194t-189 -144t-228.5 -92.5t-246 -31.5q-120 0 -229.5 30.5t-196.5 87t-138.5 146t-51.5 199.5q0 72 29.5 133t76.5 99t102 59t108 21q83 0 139.5 -41t56.5 -96q0 -28 -17 -43.5t-39 -15.5q-24 0 -39 14.5t-15 32.5
q0 14 7.5 28t7.5 22q0 27 -30 44.5t-71 17.5q-119 0 -199 -80.5t-80 -194.5q0 -127 80 -225.5t211 -149.5t288 -51q120 0 225 40t179 106t127 151.5t78.5 177.5t25.5 182q0 268 -152 466t-403 256l289 -684q24 -57 49 -75.5t62 -18.5h30v-31zM1124 865l-277 656l-430 -1017
q40 40 93 83.5t145 104.5t215.5 108.5t253.5 64.5z" />
    <glyph glyph-name="Ualt.001" horiz-adv-x="1614" 
d="M1408 419v1237q0 36 -21.5 65t-53.5 29h-21v31h252v-31h-21q-32 0 -53.5 -29t-21.5 -65v-1222q0 -30 11.5 -51t22.5 -27l12 -6q-4 -10 -12 -27.5t-38 -68t-64 -96t-91 -101.5t-119 -96.5t-148 -68t-178 -27.5q-107 0 -207.5 26.5t-176 68.5t-141.5 93t-111 102t-78 93
t-48 68l-15 27q6 4 15 11t24 31t15 49v1222q0 36 -21.5 65t-53.5 29h-21v31h432v-31h-21q-32 0 -53.5 -29t-21.5 -65v-1222q0 -143 62 -264.5t173.5 -194.5t247.5 -73q103 0 202.5 41t174.5 109.5t121 165t46 201.5z" />
    <glyph glyph-name="Halt" horiz-adv-x="2115" 
d="M1664 0h-432v31h21q32 0 53.5 29t21.5 65v930q-76 12 -168 12q-149 0 -295 -41.5t-250.5 -105t-169 -141t-64.5 -148.5v-506q0 -36 21.5 -65t53.5 -29h21v-31h-432v31h21q32 0 53.5 29t21.5 65v1562q0 36 -21.5 65t-53.5 29h-21v31h432v-31h-21q-32 0 -53.5 -29
t-21.5 -65v-861q135 123 342 199.5t437 76.5q85 0 168 -11v596q0 36 -21.5 65t-53.5 29h-21v31h432v-31h-21q-32 0 -53.5 -29t-21.5 -65v-655q159 -59 274 -163t171.5 -228.5t56.5 -257.5q0 -122 -47.5 -232t-129.5 -191.5t-189 -142t-229 -91t-246 -30.5
q-120 0 -229.5 30.5t-196.5 87t-138.5 146t-51.5 199.5q0 73 28 133.5t73.5 98.5t101 59t113.5 21q83 0 139.5 -41t56.5 -96q0 -28 -17 -43.5t-39 -15.5q-24 0 -39 14.5t-15 32.5q0 14 7.5 28t7.5 22q0 27 -30 44.5t-71 17.5q-119 0 -199 -80.5t-80 -194.5q0 -127 80 -225.5
t211 -149.5t288 -51q120 0 225 40t179 106t127 151.5t78.5 177.5t25.5 182q0 433 -296 591v-856q0 -36 21.5 -65t53.5 -29h21v-31z" />
    <glyph glyph-name="Jalt" horiz-adv-x="966" 
d="M54 -424l-9 31q85 38 163.5 102.5t147 156t119.5 200.5t80.5 244t29.5 279v1098q0 36 -21.5 65t-53.5 29h-21v31h432v-31h-21q-32 0 -53.5 -29t-21.5 -65v-1253q0 -33 25 -56.5t58 -23.5q-7 -12 -20.5 -33.5t-59.5 -85.5t-96 -126t-128 -143.5t-158 -149.5t-184 -134
t-208 -106z" />
    <glyph glyph-name="Kalt" horiz-adv-x="1582" 
d="M1562 -30h-276q-24 0 -45.5 9t-35 17.5t-32.5 31t-24.5 30.5t-24.5 36l-610 911l-133 -153v-727q0 -36 21.5 -65t53.5 -29h21v-31h-432v31h21q32 0 53.5 29t21.5 65v1562q0 36 -21.5 65t-53.5 29h-21v31h432v-31h-21q-32 0 -53.5 -29t-21.5 -65v-750l639 732
q28 33 31 59.5t-11.5 39.5t-35.5 13h-21v31h279v-31h-15q-12 0 -23 -2t-18.5 -3.5t-18 -8.5t-15.5 -10t-17 -16t-16.5 -18t-21 -24t-23.5 -27l-424 -488l729 -1090q63 -94 139 -94h24v-30z" />
    <glyph glyph-name="Lalt.001" horiz-adv-x="855" 
d="M2836 -202l9 -11q-3 -8 -10.5 -22t-34.5 -55t-60 -78t-90.5 -82t-122.5 -77.5t-159 -55t-198 -22.5q-164 0 -388.5 62.5t-446.5 151.5t-442.5 177.5t-436.5 151t-368 62.5h-43v31h21q32 0 53.5 29t21.5 65v1562q0 36 -21.5 65t-53.5 29h-21v31h432v-31h-21
q-32 0 -53.5 -29t-21.5 -65v-1582q0 -27 -17 -45.5t-34 -23.5l-17 -5q152 -38 341.5 -104t349.5 -124t343 -114t393.5 -89t429.5 -33q97 0 186.5 12.5t154.5 33t121 45t92.5 49.5t62.5 45.5t37 33.5z" />
    <glyph glyph-name="Lalt.002" horiz-adv-x="445" 
d="M83 0h-38v31h21q32 0 53.5 29t21.5 65v1562q0 36 -21.5 65t-53.5 29h-21v31h432v-31h-21q-32 0 -53.5 -29t-21.5 -65v-1566q0 -29 -18 -52t-31.5 -29.5t-20.5 -8.5q95 -29 192.5 -87t180.5 -126.5t169.5 -145t174.5 -146.5t179.5 -127.5t200.5 -91.5t222 -34
q91 0 178.5 20.5t172 68t148 116.5t102.5 175t39 235q0 119 -42 217.5t-110 159.5t-150 94t-166 33q-114 0 -207.5 -35.5t-150 -94t-87 -128.5t-30.5 -143q0 -148 100.5 -257.5t255.5 -109.5q138 0 215 67t77 175q0 67 -39.5 110t-91.5 43q-22 0 -33.5 -11.5t-14.5 -25
t-15.5 -25t-35.5 -11.5q-22 0 -37 15.5t-15 38.5q0 34 31 57t72 23q88 0 150 -60.5t62 -153.5q0 -132 -94 -203.5t-231 -71.5q-50 0 -102.5 14t-104.5 46t-93 77t-66.5 113.5t-25.5 149.5q0 131 73 231.5t188.5 151.5t249.5 51q91 0 182 -24t172 -71.5t143.5 -111.5
t99 -149.5t36.5 -180.5q0 -143 -66.5 -266.5t-178 -207t-257.5 -131t-303 -47.5q-140 0 -267.5 42t-228.5 109.5t-197.5 149t-191.5 163t-192 149t-218 109.5t-252 42z" />
    <glyph glyph-name="Malt" horiz-adv-x="2372" 
d="M2327 0h-447v31h21q37 0 60 25t15 69l-273 1475l-614 -1654l-615 1654l-273 -1475q-8 -44 15 -69t60 -25h21v-31h-252v31h21q32 0 50.5 27t28.5 82l286 1547q6 34 -17.5 64t-57.5 30h-21v31h446v-31h-21q-37 0 -55 -29t1 -80l478 -1289l479 1289q19 51 1 80t-55 29h-21
v31h449v-31h-21q-34 0 -57.5 -30t-17.5 -64l286 -1547q10 -55 28.5 -82t50.5 -27h21v-31z" />
    <glyph glyph-name="Nalt.001" horiz-adv-x="1712" 
d="M1664 0h-239q-37 121 -98 229.5t-133.5 192.5t-156 161.5t-169 144.5t-170.5 133t-163.5 136t-144 144.5t-115.5 167.5t-74 196v-1380q0 -36 21.5 -65t53.5 -29h21v-31h-252v31h21q32 0 53.5 29t21.5 65v1562q0 36 -21.5 65t-53.5 29h-21v31h239q33 -114 90 -218
t127.5 -186t153 -158.5t169 -145t172 -136.5t166 -140.5t147.5 -149t119.5 -172t79.5 -199.5v1423q0 239 71 420q-27 20 -89 68t-92.5 71t-88.5 65.5t-94.5 64.5t-90.5 54t-97 49t-94.5 34.5t-101.5 25t-101 7.5q-89 0 -162 -30t-120.5 -79.5t-73 -113.5t-25.5 -133
q0 -70 22 -133t64 -113.5t112 -80t158 -29.5q128 0 215.5 75t87.5 182q0 67 -39.5 110t-91.5 43q-22 0 -33.5 -11.5t-14.5 -25t-15.5 -25t-35.5 -11.5q-22 0 -37 15.5t-15 38.5q0 34 31 57t72 23q88 0 152 -60.5t64 -153.5q0 -129 -99.5 -211.5t-240.5 -82.5
q-138 0 -256 52.5t-186.5 143t-68.5 197.5q0 106 75 197.5t198.5 143.5t262.5 52q50 0 100 -7.5t102.5 -25.5t95 -34.5t99 -49.5t92.5 -54.5t97 -65t90.5 -65t95.5 -71.5t91 -69q47 106 119 188.5t144 128.5t151.5 76t136 39.5t102.5 9.5q139 0 262.5 -52t198.5 -143.5
t75 -197.5q0 -107 -71.5 -197.5t-191.5 -143t-259 -52.5q-158 0 -309 72.5t-328 204.5q-55 -154 -55 -358v-1634q0 -36 21.5 -65t53.5 -29h21v-31zM1636 2153q86 -63 155 -107t150 -85.5t161 -62.5t158 -21q88 0 159.5 29.5t116 80t68 113.5t23.5 133q0 69 -25.5 133
t-73 113.5t-120.5 79.5t-162 30q-48 0 -105 -11t-130.5 -41.5t-140 -77t-130.5 -126t-104 -180.5z" />
    <glyph glyph-name="Nalt.002" horiz-adv-x="2752" 
d="M2551 389v1298q0 36 -21.5 65t-53.5 29h-21v31h252v-31h-21q-32 0 -53.5 -29t-21.5 -65v-1784q-47 121 -119 232t-154.5 199t-177 170t-190 154.5t-190 144t-180 146.5t-156 153.5t-123.5 173.5t-77 199v-1422q0 -221 -67 -394q27 -20 89 -68t92 -70.5t88 -64.5t94 -64
t90 -54t96.5 -48.5t93.5 -34t101 -25t101 -7.5q89 0 162 30t120.5 79.5t73 113.5t25.5 133q0 71 -21 133.5t-62.5 113t-110.5 80t-157 29.5q-128 0 -218 -75.5t-90 -181.5q0 -67 39.5 -110t91.5 -43q22 0 33.5 11.5t14.5 25t15.5 25t35.5 11.5q22 0 37 -15.5t15 -38.5
q0 -34 -31 -57t-72 -23q-88 0 -152 60.5t-64 153.5q0 129 102 211.5t243 82.5q138 0 254.5 -52.5t184 -143t67.5 -197.5q0 -106 -75 -197.5t-198.5 -143.5t-262.5 -52q-45 0 -92 7.5t-88 17.5t-90 31t-85 38t-87.5 48.5t-83 51.5t-86 59t-81.5 59.5t-85 64l-82 61.5
q-46 -105 -118.5 -186.5t-145 -127.5t-152.5 -75.5t-137 -39t-103 -9.5q-139 0 -262.5 52t-198.5 143.5t-75 197.5q0 107 71.5 197.5t191.5 143t259 52.5q158 0 308 -72t329 -205q55 159 55 358v1634q0 36 -21.5 65t-53.5 29h-21v31h239q41 -145 124 -280.5t184.5 -241
t216 -204t226 -185.5t207 -168t167.5 -169.5t99 -174.5zM1115 -341q-180 132 -327.5 204t-295.5 72q-88 0 -159.5 -29.5t-116 -80t-68 -113.5t-23.5 -133q0 -69 25.5 -133t73 -113.5t120.5 -79.5t162 -30q48 0 105 11t130.5 41.5t139.5 77t130 126t104 180.5z" />
    <glyph glyph-name="Nalt" horiz-adv-x="2752" 
d="M2707 0h-239q-33 114 -90 218t-127.5 186t-153 158.5t-169 145t-172 136.5t-166 140.5t-147.5 149t-119.5 172t-79.5 199.5v-1423q0 -237 -72 -420q25 -19 100 -76.5t105.5 -80.5t99 -71t107.5 -70t102.5 -55t111.5 -47.5t107.5 -26.5t116.5 -12q89 0 162 30t120.5 79.5
t73 113.5t25.5 133q0 71 -21 133.5t-62.5 113t-110.5 80t-157 29.5q-128 0 -218 -75.5t-90 -181.5q0 -67 39.5 -110t91.5 -43q22 0 33.5 11.5t14.5 25t15.5 25t35.5 11.5q22 0 37 -15.5t15 -38.5q0 -34 -31 -57t-72 -23q-88 0 -152 60.5t-64 153.5q0 129 102 211.5t243 82.5
q138 0 254.5 -52.5t184 -143t67.5 -197.5q0 -106 -75 -197.5t-198.5 -143.5t-262.5 -52q-50 0 -100.5 7.5t-103 25.5t-95 34.5t-99 49.5t-92.5 54.5t-97 65t-90.5 65t-95.5 72t-91 68.5q-39 -89 -95.5 -161.5t-118 -119t-124 -80t-124 -50t-107.5 -24t-83 -7.5
q-139 0 -262.5 52t-198.5 143.5t-75 197.5q0 107 71.5 197.5t191.5 143t259 52.5q158 0 308 -72t329 -205q55 159 55 358v1634q0 36 -21.5 65t-53.5 29h-21v31h239q37 -121 98 -229.5t133.5 -192.5t156 -161.5t169 -144.5t170.5 -133t163.5 -136t144 -144.5t115.5 -167.5
t74 -196v1380q0 36 -21.5 65t-53.5 29h-21v31h252v-31h-21q-32 0 -53.5 -29t-21.5 -65v-1562q0 -36 21.5 -65t53.5 -29h21v-31zM1115 -341q-180 132 -327.5 204t-295.5 72q-88 0 -159.5 -29.5t-116 -80t-68 -113.5t-23.5 -133q0 -69 25.5 -133t73 -113.5t120.5 -79.5
t162 -30q48 0 105 11t130.5 41.5t139.5 77t130 126t104 180.5z" />
    <glyph glyph-name="Ralt" horiz-adv-x="3243" 
d="M3174 -435l9 -14q-5 -7 -16 -19t-50 -42t-85 -53t-121.5 -42t-158.5 -19q-112 0 -225.5 43t-210 112t-192.5 167.5t-172.5 198t-150.5 215.5t-124.5 208t-97.5 186q-77 -12 -160 -12q-155 0 -282 49t-205 147.5t-78 231.5q0 97 58 168t145 71q41 0 72 -23t31 -57
q0 -23 -15 -38.5t-37 -15.5q-23 0 -35.5 11.5t-15.5 25t-14.5 25t-33.5 11.5q-50 0 -82 -57t-32 -121q0 -82 33 -149.5t86 -111.5t123 -74t140.5 -43t141.5 -13t139 17q-25 51 -46.5 99t-30.5 70l-9 22l36 -10q38 -65 107 -163q181 67 292 238t111 375q0 126 -47 246
t-129.5 214t-206 151.5t-265.5 57.5q-69 0 -141 -13.5t-150 -42.5t-135 -54t-144 -67v-1546q0 -36 21.5 -65t53.5 -29h21v-31h-432v31h21q32 0 53.5 29t21.5 65v1436q-211 -89 -370 -89q-40 0 -75.5 8t-69.5 26.5t-54.5 54t-20.5 84.5q0 39 24 70.5t59 31.5q28 0 47.5 -18
t19.5 -44t-25 -48.5t-25 -47.5q0 -31 38.5 -55.5t89.5 -24.5q94 0 212 38.5t233.5 94t235 111t252.5 94t250 38.5q196 0 362.5 -57t278 -153.5t174 -225t62.5 -270.5q0 -143 -72.5 -277.5t-213 -238t-324.5 -144.5q59 -83 122 -163.5t152 -182.5t178 -189t198 -173
t214.5 -146.5t225 -98t231.5 -37.5q57 0 108.5 9t74.5 18z" />
    <glyph glyph-name="Salt" horiz-adv-x="1947" 
d="M1416 1381h-21q0 120 -30.5 211.5t-86 146.5t-127 82.5t-157.5 27.5q-65 0 -127 -21t-114 -61t-83.5 -105t-31.5 -146q0 -178 170 -327q93 -82 309 -208q231 -134 315 -191q250 -170 357 -362q98 -175 98 -393q0 -155 -73 -296t-200.5 -246.5t-311.5 -168t-394 -62.5
q-176 0 -337 54.5t-281.5 149.5t-192.5 233.5t-72 296.5q0 111 38 208t103.5 167.5t152 121.5t185 76.5t201.5 25.5q132 0 244.5 -40.5t187 -107.5t116.5 -152t42 -175q0 -100 -40.5 -182.5t-107 -133.5t-148 -79t-166.5 -28q-144 0 -238.5 86.5t-94.5 209.5q0 96 55 159.5
t142 63.5q41 0 72 -23t31 -57q0 -23 -15 -38.5t-37 -15.5q-23 0 -35.5 11.5t-15.5 25t-14.5 25t-33.5 11.5q-51 0 -81.5 -50t-30.5 -112q0 -46 19 -91t54.5 -83t93.5 -61.5t129 -23.5q52 0 105.5 23t102.5 68t80 123.5t31 177.5q0 199 -122 317.5t-325 118.5
q-62 0 -124 -19.5t-123 -64t-107.5 -108.5t-75.5 -160.5t-29 -212.5q0 -143 37.5 -260.5t100.5 -197.5t148.5 -135t180 -80t195.5 -25q125 0 234.5 26t202 81t158.5 134.5t103 192t37 248.5q0 123 -41 228.5t-110 183t-159 146.5t-189 128l-198 118t-189 126t-159 143
t-110 178t-41 222q0 51 15 105t55 114t99.5 106t157.5 76.5t220 30.5q79 0 186 -26t140 -26q31 0 50 18t22 36l3 18h21v-525z" />
    <glyph glyph-name="Zalt.001" horiz-adv-x="1500" 
d="M2811 -202l9 -11q-3 -8 -10.5 -22t-34.5 -55t-60 -78t-90.5 -82t-122.5 -77.5t-159 -55t-198 -22.5q-164 0 -388.5 62.5t-446.5 151.5t-442.5 177.5t-436.5 151t-368 62.5h-18l889 1775h-354q-180 0 -285 -111.5t-105 -347.5h-21v597h21q0 -4 1 -11t5.5 -24.5t11.5 -30.5
t22 -24t35 -11h953l-862 -1721q-12 -24 -29 -39t-28 -18l-11 -3q152 -38 341.5 -104t349.5 -124t343 -114t393.5 -89t429.5 -33q97 0 186.5 12.5t154.5 33t121 45t92.5 49.5t62.5 45.5t38 33.5z" />
    <glyph glyph-name="Zalt.002" horiz-adv-x="1069" 
d="M45 0l889 1775h-354q-180 0 -285 -111.5t-105 -347.5h-21v597h21q0 -4 1 -11t5.5 -24.5t11.5 -30.5t22 -24t35 -11h953l-862 -1721q-12 -24 -29 -39t-28 -18l-11 -3q92 -37 191.5 -100.5t186 -132t177.5 -144t181 -142.5t181 -121t193 -86t202 -32q91 0 177 20.5t168 68
t143.5 116.5t98.5 175t37 235q0 119 -42 217.5t-110 159.5t-150 94t-166 33q-114 0 -207.5 -35.5t-150 -94t-87 -128.5t-30.5 -143q0 -148 100.5 -257.5t255.5 -109.5q138 0 215 67t77 175q0 67 -39.5 110t-91.5 43q-22 0 -33.5 -11.5t-14.5 -25t-15.5 -25t-35.5 -11.5
q-22 0 -37 15.5t-15 38.5q0 34 31 57t72 23q88 0 150 -60.5t62 -153.5q0 -132 -94 -203.5t-231 -71.5q-50 0 -102.5 14t-104.5 46t-93 77t-66.5 113.5t-25.5 149.5q0 131 73 231.5t188.5 151.5t249.5 51q91 0 182 -24t172 -71.5t143.5 -111.5t99 -149.5t36.5 -180.5
q0 -143 -64 -266.5t-172.5 -207t-252 -131t-300.5 -47.5q-131 0 -257.5 42t-230 109.5t-205.5 149t-202 163t-200 149t-219 109.5t-241 42z" />
    </font>
</defs>
</svg>
